<svg width="24" height="24" viewBox="0 0 24 24" fill="none" xmlns="http://www.w3.org/2000/svg">
<path d="M22.425 9.96234V9.94687C22.3706 7.74375 22.1437 5.75859 21.7889 4.35422L21.7739 4.28062L21.75 4.20047C21.4781 3.33609 20.662 3.01969 20.3137 2.88469C18.0318 2.00063 15.345 0.980625 12.7148 0.11625C12.5006 0.0483166 12.278 0.010147 12.0534 0.0028125L12 0H11.9461C11.7232 0.00761541 11.5025 0.0454613 11.2898 0.1125C8.65684 0.980625 5.9695 2.00062 3.68715 2.88516C3.33887 3.02016 2.52372 3.33656 2.24997 4.20047L2.22465 4.28062L2.21106 4.34906V4.3575C1.85575 5.75812 1.62981 7.74328 1.57544 9.94687V9.96234C1.53137 12.9877 1.82012 14.4623 2.00012 15.0783L2.0245 15.1655C2.31278 16.0908 2.84153 17.0405 3.59762 17.992C4.40387 19.0055 5.47262 20.0367 6.77715 21.0558C8.9484 22.7597 10.9561 23.7469 10.9762 23.7567L11.0086 23.7722H11.0132C11.3208 23.9214 11.6581 23.9992 12 24C12.3435 24.0002 12.6826 23.9226 12.9918 23.7731L13.0237 23.7577L13.0411 23.7492C14.5147 22.9843 15.9137 22.0835 17.22 21.0586C18.525 20.0377 19.5961 19.0064 20.4028 17.9925C21.1584 17.0423 21.6872 16.0917 21.9754 15.1664L21.9918 15.113L21.9998 15.0792C22.1793 14.4642 22.469 12.9909 22.425 9.96234ZM11.9456 5.99344C12.4648 5.99344 12.9723 6.14739 13.404 6.43583C13.8356 6.72427 14.1721 7.13424 14.3708 7.61389C14.5695 8.09355 14.6214 8.62135 14.5202 9.13055C14.4189 9.63975 14.1689 10.1075 13.8017 10.4746C13.4346 10.8417 12.9669 11.0917 12.4577 11.193C11.9485 11.2943 11.4207 11.2423 10.941 11.0436C10.4614 10.8449 10.0514 10.5085 9.76298 10.0768C9.47455 9.64513 9.32059 9.13761 9.32059 8.61844C9.32059 7.92224 9.59715 7.25457 10.0894 6.76228C10.5817 6.27 11.2494 5.99344 11.9456 5.99344ZM16.3237 15.1875V15.1987C16.2794 15.5854 16.1172 15.949 15.8592 16.2403C15.6046 16.5359 15.2619 16.742 14.8814 16.8281C14.34 16.9509 12.99 17.0714 12.1476 17.0658C11.3039 17.0864 9.64965 16.9556 9.10872 16.8272C8.72816 16.7399 8.3857 16.5327 8.13184 16.2361C7.874 15.9448 7.71184 15.5814 7.66731 15.195V15.1833C7.63882 14.9044 7.62989 14.6239 7.64059 14.3438C7.62979 14.1115 7.63857 13.8789 7.66684 13.6481V13.6369C7.70587 13.2689 7.8704 12.9256 8.13278 12.6647C8.39642 12.401 8.74188 12.2347 9.11247 12.1931C9.65528 12.1355 11.3067 12.1041 12.1462 12.1045C12.9857 12.105 14.3325 12.1355 14.8753 12.1931C15.246 12.2345 15.5916 12.401 15.855 12.6652C16.1183 12.9269 16.2834 13.2714 16.3223 13.6406V13.6519C16.3495 13.8815 16.3634 14.1125 16.364 14.3438C16.3654 14.6255 16.3519 14.9072 16.3237 15.1875Z" fill="black"/>
</svg>
