<svg width="24" height="24" viewBox="0 0 24 24" fill="none" xmlns="http://www.w3.org/2000/svg">
<path d="M6.30788 14.5553V14.5262C6.30783 12.0796 7.22373 9.77276 8.89301 7.993H0V18.3695C0 18.6666 0.240892 18.9075 0.538035 18.9075H7.36196C6.73313 17.6324 6.37528 16.1772 6.3091 14.5845L6.30788 14.5553Z" fill="black"/>
<path d="M15.8641 4.9604H15.8831C16.5043 4.9604 17.1116 5.02091 17.7003 5.13505V1.89512C17.7003 1.59798 17.4594 1.35709 17.1622 1.35709H0.538035C0.240892 1.35709 0 1.59798 0 1.89512V6.58669H10.5401C12.1043 5.52918 13.9425 4.9604 15.8641 4.9604ZM4.24128 3.99054C4.24128 4.37886 3.92647 4.69367 3.53815 4.69367C3.14984 4.69367 2.83502 4.37886 2.83502 3.99054V3.94873C2.83502 3.56042 3.14984 3.2456 3.53815 3.2456C3.92647 3.2456 4.24128 3.56042 4.24128 3.94873V3.99054ZM7.05381 3.99054C7.05381 4.37886 6.73899 4.69367 6.35067 4.69367C5.96236 4.69367 5.64754 4.37886 5.64754 3.99054V3.94873C5.64754 3.56042 5.96236 3.2456 6.35067 3.2456C6.73899 3.2456 7.05381 3.56042 7.05381 3.94873V3.99054ZM9.86633 3.99054C9.86633 4.37886 9.55151 4.69367 9.1632 4.69367C8.77488 4.69367 8.46007 4.37886 8.46007 3.99054V3.94873C8.46007 3.56042 8.77488 3.2456 9.1632 3.2456C9.55151 3.2456 9.86633 3.56042 9.86633 3.94873V3.99054Z" fill="black"/>
<path d="M11.4193 7.69389L15.8495 13.3602L20.2959 7.67326C19.0173 6.84483 17.4968 6.36478 15.8736 6.36666C14.2364 6.36478 12.7042 6.8529 11.4193 7.69389Z" fill="black"/>
<path d="M24 13.7987C23.8157 11.7207 22.8502 9.87074 21.4062 8.53619L17.2917 13.7987H24Z" fill="black"/>
<path d="M15.8499 15.205C15.8498 15.205 15.8497 15.205 15.8495 15.205H15.8494C15.8494 15.205 15.8494 15.205 15.8493 15.205C15.6405 15.2048 15.4341 15.1121 15.2955 14.935L10.3127 8.56183C8.71814 10.0492 7.71406 12.1681 7.71411 14.5261C8.15446 25.1257 22.9399 25.3356 23.9829 15.205H15.8505C15.8503 15.205 15.8501 15.205 15.8499 15.205Z" fill="black"/>
</svg>
