<?xml version="1.0" encoding="UTF-8"?>
<svg id="Layer_1" data-name="Layer 1" xmlns="http://www.w3.org/2000/svg" xmlns:xlink="http://www.w3.org/1999/xlink" viewBox="0 0 50 50" width="50" height="50">
  <defs>
    <style>
      .cls-1 {
        fill: none;
      }

      .cls-2 {
        fill: url(#radial-gradient-2);
      }

      .cls-3 {
        fill: url(#linear-gradient-4);
      }

      .cls-4 {
        fill: url(#linear-gradient-3);
      }

      .cls-5 {
        fill: url(#linear-gradient-2);
      }

      .cls-6 {
        fill: url(#radial-gradient);
      }

      .cls-7 {
        fill: url(#linear-gradient);
      }

      .cls-8 {
        fill: #e22626;
      }

      .cls-9 {
        fill: #9c1217;
      }
    </style>
    <linearGradient id="linear-gradient" x1="32.93" y1="30.61" x2="16.99" y2="30.61" gradientTransform="translate(0 52) scale(1 -1)" gradientUnits="userSpaceOnUse">
      <stop offset="0" stop-color="#000"/>
      <stop offset="1" stop-color="#1b1c1c"/>
    </linearGradient>
    <linearGradient id="linear-gradient-2" x1="34.19" y1="38.6" x2="15.72" y2="38.6" xlink:href="#linear-gradient"/>
    <linearGradient id="linear-gradient-3" x1="32.7" y1="9.35" x2="17.22" y2="9.35" xlink:href="#linear-gradient"/>
    <radialGradient id="radial-gradient" cx="-.37" cy="53.33" fx="-.37" fy="53.33" r="1.25" gradientTransform="translate(13.1 -32.53) rotate(-180) scale(.92 -.92)" gradientUnits="userSpaceOnUse">
      <stop offset="0" stop-color="#ff5056"/>
      <stop offset="1" stop-color="#e80009"/>
    </radialGradient>
    <radialGradient id="radial-gradient-2" cx="7.4" cy="116.65" fx="7.4" fy="116.65" r="1.25" gradientTransform="translate(29.77 -188.84) scale(.92 -.92)" xlink:href="#radial-gradient"/>
    <linearGradient id="linear-gradient-4" x1="28.46" y1="2.39" x2="21.46" y2="2.39" gradientTransform="translate(0 52) scale(1 -1)" gradientUnits="userSpaceOnUse">
      <stop offset="0" stop-color="#363b39"/>
      <stop offset="1" stop-color="#000"/>
    </linearGradient>
  </defs>
  <rect class="cls-1" x="11.96" y="-.2" width="26.08" height="50"/>
  <path class="cls-9" d="M13.66,7.96c.26-2.24.67-3.4,1.41-4.33.54-.67,1.24-1.23,2.16-1.99.49-.39,1.12-.73,1.89-.99.13-.05.25-.09.39-.12v2.46h10.89V.52c.14.04.26.09.39.13.75.26,1.39.59,1.88.99.94.76,1.64,1.31,2.16,1.99h.02c.74.93,1.15,2.09,1.41,4.33.69,5.92-.48,15.22-.45,17.52.15,12.22.25,18.94-.56,21.51-.15.49-.54.89-1.07,1.22-.96.6-2.41.97-3.88,1.21-.62.1-1.24.17-1.84.23-.1-.14-.25-.23-.44-.23h-6.14c-.18,0-.34.09-.44.23-.44-.04-.9-.09-1.36-.15-1.5-.2-3.04-.55-4.11-1.14-.66-.36-1.14-.81-1.33-1.37-.81-2.58-.71-9.28-.56-21.51.03-2.29-1.14-11.6-.45-17.52h.02Z"/>
  <path d="M19.51,2.98V.52c3.1-.96,7.77-.96,10.89,0v2.46h-10.89Z"/>
  <path class="cls-8" d="M14.34,8.32c.43-3.71,1.28-4.34,3.36-6.08,2.83-2.37,11.68-2.37,14.51,0,2.09,1.74,2.94,2.36,3.36,6.08.65,5.7-.45,14.66-.43,16.86.14,11.78.24,18.94-.53,21.43-.87,2.86-18.46,2.86-19.35,0-.76-2.47-.66-9.65-.53-21.43.03-2.21-1.06-11.16-.42-16.86h.01Z"/>
  <path class="cls-7" d="M29.29,20.61c1.84.26,3.15.76,3.64.98l-.14.81s-1.44-.74-3.69-1.08c-1.94-.29-6.35-.29-8.29,0-2.25.33-3.69,1.08-3.69,1.08l-.14-.81c.49-.21,1.8-.71,3.64-.98,2.02-.29,6.64-.29,8.66,0Z"/>
  <path class="cls-5" d="M33.5,14.5c-.71-.31-1.95-.82-3.9-1.25-2.79-.61-6.5-.61-9.29,0-1.95.43-3.19.94-3.9,1.25-.31.14-.51.25-.61.36v-.03s-.14-.59-.05-.75c.08-.14.29-.26.66-.43.71-.31,1.95-.82,3.9-1.25,2.79-.61,6.5-.61,9.29,0,1.94.43,3.19.94,3.9,1.25.38.16.59.29.66.43.09.16-.05.75-.05.75v.03c-.1-.11-.3-.23-.61-.36Z"/>
  <path d="M29.29,20.61c-2.03-.29-6.64-.29-8.66,0-1.84.26-3.15.76-3.64.98l-1.18-6.74c.1-.11.3-.23.61-.36.71-.31,1.95-.82,3.9-1.25,2.79-.61,6.5-.61,9.29,0,1.94.43,3.19.94,3.9,1.25.31.14.51.25.61.36l-1.17,6.74c-.49-.21-1.8-.71-3.64-.98h-.02Z"/>
  <path class="cls-4" d="M17.27,44.26s1.56.46,3.8.73c1.71.2,6.04.2,7.76,0,2.24-.26,3.8-.73,3.8-.73,0,0,.27-1.73-.3-3.54-.06-.19-.12-.38-.2-.55,0,0-.11.03-.31.08-.84.2-3.3.69-6.86.69-3.89,0-6.09-.48-6.86-.68-.21-.05-.31-.09-.31-.09-.07.19-.15.39-.21.57-.58,1.8-.29,3.51-.29,3.51h-.01ZM17.95,40.82c1.23.23,3.51.53,7,.53,3.25,0,5.69-.33,7-.55.35,1.6.14,3,.14,3,0,0-1.45.46-3.54.72-1.6.2-5.62.2-7.21,0-2.07-.26-3.54-.72-3.54-.72,0,0-.21-1.39.14-2.98h.01Z"/>
  <path d="M31.95,40.8c.35,1.6.14,3,.14,3,0,0-1.45.46-3.54.72-1.6.2-5.62.2-7.21,0-2.07-.26-3.54-.72-3.54-.72,0,0-.21-1.39.14-2.98,1.23.23,3.51.53,7,.53,3.25,0,5.69-.33,7-.55h.01Z"/>
  <path d="M34.56,29.31l-1.55.53.26-6.96,1.48-8.25s.13,2.11,0,5.15c-.07,1.91-.31,4.56-.31,6.26,0,1.61.06,2.71.11,3.28h.01Z"/>
  <path d="M15.35,29.31l1.55.53-.26-6.96-1.47-8.25s-.13,2.11,0,5.15c.09,1.91.31,4.56.31,6.26,0,1.61-.05,2.73-.11,3.28h-.01Z"/>
  <path d="M34.6,29.95l-1.61.67-.18,5.82s.14.72.74,1.91c.69,1.36,1.05,1.74,1.05,1.74,0,0,.17-7.98,0-10.15Z"/>
  <path d="M15.3,29.95l1.61.67.18,5.82s-.14.72-.74,1.91c-.69,1.36-1.05,1.74-1.05,1.74,0,0-.18-7.98,0-10.15Z"/>
  <path d="M15.21,15.13s-.89.17-.91.94c-.02.76.89,2.3.91,1.32.02-.97.07-1.97,0-2.26Z"/>
  <path class="cls-6" d="M11.99,16.8c.01-.48,2.31-1.1,2.39-.93.5,0,.56.36.51.62-1.09-.11-2.09.19-2.83.72-.06-.1-.14-.25-.07-.42Z"/>
  <path d="M14.94,16.5c-.03.18-.09.31-.09.31-1.03-.15-1.99.09-2.73.56,0,0-.06-.05-.13-.14.77-.56,1.81-.86,2.94-.74Z"/>
  <path d="M34.79,15.13s.89.17.91.94c.03.76-.89,2.3-.91,1.32s-.07-1.97,0-2.26Z"/>
  <path class="cls-2" d="M38.01,16.8c-.01-.48-2.31-1.1-2.39-.93-.5,0-.56.36-.51.62,1.09-.11,2.09.19,2.83.72.06-.1.14-.25.07-.42Z"/>
  <path d="M35.05,16.5c.03.18.09.31.09.31,1.02-.15,1.99.09,2.72.56,0,0,.06-.05.13-.14-.77-.56-1.81-.86-2.94-.74Z"/>
  <path d="M35.77,25.12c.13,0,.24.1.24.24v1.96c0,.13-.1.24-.24.24v-2.42h0Z"/>
  <path d="M35.89,34.92c.13,0,.24.1.24.24v1.96c0,.12-.1.24-.24.24v-2.42h0Z"/>
  <path d="M14.14,25.12c-.12,0-.24.1-.24.24v1.96c0,.13.1.24.24.24v-2.42h0Z"/>
  <path d="M14.01,34.92c-.13,0-.24.1-.24.24v1.96c0,.12.1.24.24.24v-2.42h0Z"/>
  <path class="cls-3" d="M21.89,49.42h6.14c.17,0,.34.09.44.23-1.93.17-3.5.15-3.5.15,0,0-1.58.03-3.5-.15.1-.14.25-.23.44-.23h-.01Z"/>
</svg>