<?xml version="1.0" encoding="UTF-8"?>
<svg id="Layer_1" data-name="Layer 1" xmlns="http://www.w3.org/2000/svg" viewBox="0 0 14 14">
  <defs>
    <style>
      
      .cls-1 {
        fill: #d6df2f;
      }

      .cls-2 {
        fill: none;
        stroke: #d6df2f;
        stroke-miterlimit: 10;
        stroke-width: .25px;
      }
    </style>
  </defs>
  <rect x=".7" y=".7" width="12.6" height="12.6" rx="6" ry="6"/>
  <g>
    <path class="cls-1" d="M10.39,3.5l-6.9,1.72v.46c2.66,0,4.82,2.16,4.82,4.82h.46l1.74-6.87c.02-.07-.05-.14-.12-.12Z"/>
    <path class="cls-1" d="M3.49,7.75v.46c1.27,0,2.29,1.03,2.29,2.29h.46c0-1.52-1.23-2.75-2.75-2.75Z"/>
    <path class="cls-1" d="M3.49,6.49v.46c1.96,0,3.56,1.6,3.56,3.56h.46c0-2.21-1.8-4.01-4.01-4.01Z"/>
  </g>
  <rect class="cls-2" x=".25" y=".25" width="13.5" height="13.5" rx="6.75" ry="6.75"/>
</svg>