<?xml version="1.0" encoding="UTF-8"?>
<svg id="Layer_1" data-name="Layer 1" xmlns="http://www.w3.org/2000/svg" xmlns:xlink="http://www.w3.org/1999/xlink" viewBox="0 0 50 50">
  <defs>
    <style>
      .cls-1 {
        fill: url(#linear-gradient-3);
      }

      .cls-2 {
        fill: url(#linear-gradient-2);
      }

      .cls-3 {
        fill: #231f20;
      }

      .cls-4 {
        fill: #171717;
      }

      .cls-5 {
        fill: url(#linear-gradient);
      }

      .cls-6 {
        fill: #066493;
      }

      .cls-7 {
        fill: #00a2ff;
      }

      .cls-8 {
        fill: #1b3c49;
      }
    </style>
    <linearGradient id="linear-gradient" x1="33.21" y1="10.23" x2="33.21" y2="10.24" gradientUnits="userSpaceOnUse">
      <stop offset="0" stop-color="#000"/>
      <stop offset=".25" stop-color="#060606"/>
      <stop offset=".59" stop-color="#171717"/>
      <stop offset=".98" stop-color="#343434"/>
      <stop offset="1" stop-color="#363636"/>
    </linearGradient>
    <linearGradient id="linear-gradient-2" x1="19.57" y1="8.28" x2="20.54" y2="11.5" xlink:href="#linear-gradient"/>
    <linearGradient id="linear-gradient-3" x1="29.76" y1="7.66" x2="31.64" y2="13.93" xlink:href="#linear-gradient"/>
  </defs>
  <path class="cls-3" d="M16.76,35.33c0-.89-.64-1.61-1.41-1.61s-1.41.73-1.41,1.61v10.46s0,0,0,0c0,.89.64,1.61,1.41,1.61s1.41-.72,1.41-1.61v-10.46s0,0,0,0Z"/>
  <path class="cls-3" d="M36.05,34.99h.01c0-.89-.64-1.61-1.41-1.61s-1.41.72-1.41,1.61v10.46s0,0,0,0c0,.89.64,1.61,1.41,1.61s1.41-.73,1.41-1.61v-10.46Z"/>
  <polygon class="cls-8" points="17.85 12.65 20.94 6.64 28.84 6.64 31.86 12.73 17.85 12.65"/>
  <path class="cls-4" d="M25.91,1.17c0-.64-.46-1.17-1.02-1.17s-1.02.52-1.02,1.17v4.84h2.05V1.17Z"/>
  <path class="cls-7" d="M34.46,50H15.51c-.67,0-1.24-.59-1.24-1.31v-22.78c0-1.21.64-2.35.95-3.51l.34-8.68c0-.72.55-1.31,1.24-1.31h16.37c.68,0,1.24.59,1.24,1.31l.26,8.46c.31,1.16,1.02,2.51,1.02,3.72v22.78c0,.72-.55,1.31-1.24,1.31Z"/>
  <path class="cls-6" d="M33.22,12.4h-.55v37.6h.55V12.4Z"/>
  <path class="cls-6" d="M17.3,12.4h-.55v37.6h.55V12.4Z"/>
  <path class="cls-6" d="M31.1,15.79c0-.18.14-.31.31-.31s.31.15.31.31v30.61c0,.17-.14.31-.31.31s-.31-.14-.31-.31V15.79Z"/>
  <path class="cls-6" d="M29.85,15.79c0-.18.14-.31.31-.31s.31.15.31.31v30.61c0,.17-.14.31-.31.31s-.31-.14-.31-.31V15.79Z"/>
  <path class="cls-6" d="M28.59,15.79c0-.18.14-.31.31-.31s.31.15.31.31v30.61c0,.17-.14.31-.31.31s-.31-.14-.31-.31V15.79Z"/>
  <path class="cls-6" d="M21.07,15.79c0-.18.14-.31.31-.31s.31.15.31.31v30.61c0,.17-.14.31-.31.31s-.31-.14-.31-.31V15.79Z"/>
  <path class="cls-6" d="M19.81,15.79c0-.18.14-.31.31-.31s.31.15.31.31v30.61c0,.17-.14.31-.31.31s-.31-.14-.31-.31V15.79Z"/>
  <path class="cls-6" d="M18.56,15.79c0-.18.14-.31.31-.31s.31.15.31.31v30.61c0,.17-.14.31-.31.31s-.31-.14-.31-.31V15.79Z"/>
  <path class="cls-7" d="M27.94,4.56c-.27-.61-1.99-1.83-2.86-1.93h-.13c-.88.1-2.59,1.3-2.86,1.93-.29.64-.14,2.43-.14,2.43l.22.22s.72.75.88,1.01c.29.53,3.64.53,3.92,0,.13-.21.88-1.01.88-1.01l.23-.22s.15-1.79-.14-2.43Z"/>
  <path class="cls-6" d="M22.86,3.72c-.38.3-.68.61-.79.84-.29.64-.14,2.43-.14,2.43l.22.22s.06.07.18.19c.1-.64.36-1.35.5-2,.14-.61.09-1.23.03-1.66h0Z"/>
  <path class="cls-6" d="M27.94,4.56c-.11-.25-.46-.6-.89-.93-.03.44-.03,1.06.11,1.71.15.7.37,1.49.41,2.17.16-.17.27-.3.27-.3l.23-.23s.15-1.79-.14-2.42h0Z"/>
  <path class="cls-7" d="M21.97,6.22c-.58.2-1.04.41-1.04.41l-.16.41s-.02.07-.07.2l.14.4c.99.11,1.2-.6,1.12-1.44h.01Z"/>
  <path class="cls-7" d="M27.81,6.21c-.06.84.15,1.56,1.12,1.44l.14-.4c-.05-.13-.07-.2-.07-.2l-.16-.41s-.46-.21-1.04-.41h.01Z"/>
  <g>
    <path class="cls-5" d="M33.21,10.24h-.01s0,0,0,0c0,0,0,0,0,0Z"/>
    <path class="cls-2" d="M22.86,8.12l-.12-.79-.55-.34-1.17.41v.03s-.05.01-.06.02c-.42.05-1.08.34-1.71.61-.26.11-.5.22-.7.3-.59.22-1.29,0-1.29,0-.11-.04-.25.04-.29.15,0,0,0,.02,0,.03,0,0,0,0,0,0,0,0,0,0,0,.02-.01.1.05.21.15.25.03,0,.36.11.81.11h0c.24-.01.51-.04.78-.14.21-.09.45-.2.71-.31.55-.22,1.24-.52,1.59-.56h.04s.06,0,.1-.01l.18.71-.31.15-.11-.31-.76.29.11.29-3.29,1.3v-.03c-.03-.05-.09-.08-.14-.05-.05.01-.05.12-.05.12l.36.92s.09.06.09.06h0s.04-.01.04-.01c.05-.01.05-.1.05-.12l3.27-1.29.07.2h.04l.73-.28h0s-.12-.36-.12-.36l1.52-.72c.19-.1.29-.34.19-.53-.03-.05-.07-.1-.12-.13Z"/>
    <path class="cls-1" d="M33.18,10.24s-.11,0-.12.05v.03s-3.31-1.3-3.31-1.3l.11-.29-.76-.29-.11.31-.31-.15h0s.19-.72.19-.72c.04,0,.08.01.1.01h.01s0,0,0,0h.03c.35.04,1.04.34,1.59.56.26.11.5.23.71.31.26.1.54.12.78.12h0c.45.01.79-.1.81-.1.06-.02.1-.06.13-.12.03-.06.05-.12.03-.18,0,0,0-.04-.02-.04h-.01s0,0,0,.01c-.05-.08-.16-.14-.25-.11,0,0-.7.22-1.29,0-.19-.08-.44-.19-.7-.3-.64-.28-1.29-.56-1.71-.61-.01,0-.05-.01-.07-.02v-.03s-1.18-.41-1.18-.41l-.55.34-.11.78c-.06.04-.11.09-.14.15-.1.19,0,.43.19.53l1.52.72-.12.34h0s.73.29.73.29h.04l.07-.2,3.27,1.29s0,.11.05.12h.04s.08-.01.09-.05l.36-.92s0-.11-.05-.12Z"/>
  </g>
  <path class="cls-7" d="M26.76,5.56c-.45-.21-1.18-.5-1.78-.51-.55,0-1.32.29-1.78.49-.07.15-.15.29-.21.42-.34.62-1.39,3.06-1.39,3.06l-.21.48c3.54-1.25,6.79,0,6.79,0,0,0-.84-2.31-1.42-3.91v-.02Z"/>
</svg>