<?xml version="1.0" encoding="UTF-8"?>
<svg xmlns="http://www.w3.org/2000/svg" xmlns:xlink="http://www.w3.org/1999/xlink" viewBox="0 0 50 50">
  <defs>
    <style>
      .cls-1 {
        fill: none;
      }

      .cls-2 {
        fill: #f38102;
      }

      .cls-3 {
        fill: #d36c07;
      }

      .cls-4 {
        fill: url(#linear-gradient-4);
      }

      .cls-5 {
        fill: url(#linear-gradient-3);
      }

      .cls-6 {
        fill: url(#linear-gradient-2);
      }

      .cls-7 {
        fill: #331903;
      }

      .cls-8 {
        fill: url(#linear-gradient);
      }

      .cls-9 {
        fill: #1e1e1e;
      }

      .cls-10, .cls-11 {
        isolation: isolate;
      }

      .cls-11 {
        fill: url(#linear-gradient-5);
        mix-blend-mode: multiply;
      }

      .cls-12 {
        fill: #592c06;
      }

      .cls-13 {
        fill: #231e22;
      }
    </style>
    <linearGradient id="linear-gradient" x1="13.75" y1="47.47" x2="14.22" y2="47.2" gradientTransform="translate(0 52) scale(1 -1)" gradientUnits="userSpaceOnUse">
      <stop offset="0" stop-color="#242424"/>
      <stop offset=".29" stop-color="#141414"/>
      <stop offset=".67" stop-color="#060606"/>
      <stop offset="1" stop-color="#010101"/>
    </linearGradient>
    <linearGradient id="linear-gradient-2" x1="12.36" y1="46.94" x2="14.22" y2="46.94" gradientTransform="translate(0 52) scale(1 -1)" gradientUnits="userSpaceOnUse">
      <stop offset="0" stop-color="#5a5a57"/>
      <stop offset=".14" stop-color="#636360"/>
      <stop offset=".37" stop-color="#7b7b79"/>
      <stop offset=".67" stop-color="#a4a4a2"/>
      <stop offset=".99" stop-color="#d9d9d8"/>
    </linearGradient>
    <linearGradient id="linear-gradient-3" x1="36.22" y1="47.47" x2="35.76" y2="47.19" xlink:href="#linear-gradient"/>
    <linearGradient id="linear-gradient-4" x1="37.59" y1="46.94" x2="35.75" y2="46.94" xlink:href="#linear-gradient-2"/>
    <linearGradient id="linear-gradient-5" x1="24.93" y1="52.06" x2="24.93" y2="49.74" gradientTransform="translate(0 52) scale(1 -1)" gradientUnits="userSpaceOnUse">
      <stop offset="0" stop-color="#a2a2a2"/>
      <stop offset=".02" stop-color="#a9a9a9"/>
      <stop offset=".09" stop-color="#c3c3c3"/>
      <stop offset=".17" stop-color="#d9d9d9"/>
      <stop offset=".26" stop-color="#eaeaea"/>
      <stop offset=".38" stop-color="#f6f6f6"/>
      <stop offset=".54" stop-color="#fdfdfd"/>
      <stop offset="1" stop-color="#fff"/>
    </linearGradient>
  </defs>
  <g class="cls-10">
    <g id="Layer_1" data-name="Layer 1">
      <g>
        <path d="M33.39,13.66v1.96c-1.01-.01-2.32-.01-3.78-.01h0s-.08-.01-.08-.01h0s-.17.01-.17.01c-2.7,0-5.86,0-8.58.01v-.02h-.15v.02h-4.43v-.02h-.01v-.66h.01v-.95h-.01v-.22c0-.11.1-.21.25-.21h3.93c.14,0,.26.1.26.21v1.17h.15v-1.28h.32v-.15h.09v.15h.23v-.15h.16v.15h.26v-.15h.09v.15h.22v-.15h.17v.15h.26v-.15h.09v.15h.23v-.15h.16v.15h.26v-.15h.09v.15h.22v-.15h.17v.15h.26v-.15h.09v.15h.23v-.15h.16v.15h.27v-.15h.09v.15h.21v-.15h.17v.15h.26v-.15h.09v.15h.23v-.15h.16v.15h.27v-.15h.09v.15h.23v-.15h.16v.15h.25v-.15h.09v.15h.23v-.15h.16v.15h.27v-.15h.09v.15h.23v-.15h.16v.15h.25v-.15h.09v.15h.23v-.15h.16v.15h.55v1.28h.08v-1.28h.15v-.15h.04v.15h.09v-.15h.08v.15h.1v-.15h.05v.15h.1v-.15h.08v.15h.1v-.15h.05v.15h.09v-.15h.07v.15h.12v-.15h.05v.15h.09v-.15h.07v.15h.12v-.15h.04v.15h.09v-.15h.08v.15h.12v-.15h.04v.15h.09v-.15h.08v.15h.12v-.15h.04v.15h.09v-.15h.08v.15h.1v-.15h.05v.15h.1v-.15h.08v.15h.1v-.15h.04v.15h.09v-.15h.08v.15h.12v-.15h.04v.15h.09v-.15h.08v.15h.12v-.15h.04v.15h.09v-.15h.08v.15h.16Z"/>
        <path class="cls-2" d="M14.39,15.62v34.1h0v.23h21.08v-.23l.03-34.1s-21.11,0-21.11,0Z"/>
        <path class="cls-2" d="M35.81,5.21c0-.38-.2-.73-.52-1v-1.91c0-.9-.76-1.66-1.82-1.81-1.57-.22-4.38-.49-8.53-.49s-6.97.25-8.53.49c-1.06.15-1.82.92-1.82,1.81v1.95c-.29.27-.48.6-.48.96v3.48c0,.37.18.85.48,1.28v3.07c0,.34.33.62.75.62h19.22c.4,0,.75-.27.75-.62v-3.01c.32-.44.52-.95.52-1.34v-3.48Z"/>
        <path class="cls-7" d="M34.1,49.04V16.75H15.76v32.29h18.34Z"/>
        <path class="cls-2" d="M35.5,49.95v-.88s-.03-.05-.06-.05h-1.29s-.06.02-.06.05v.88s.03.05.06.05h1.29s.06-.02.06-.05Z"/>
        <path class="cls-8" d="M14.81,3.65l-.85.39.06.11c-.67.31-1.66,1.02-1.66,1.02,0,0,.09.13.27.14.16.01,1.58-.44,1.58-.44l.07-.25s.12-.11.25-.12c.16-.03.42.04.42.04l-.15-.89Z"/>
        <path class="cls-2" d="M14.41,3.99s.03.02,0,.04c-.12.07-.36.26-.46.39-.13.18-.24.35-.24.35l-1.35.41s.13-.36.49-.66c.55-.46,1.32-.52,1.55-.54h0Z"/>
        <path class="cls-6" d="M14.22,4.89s-.93.4-1.55.46c-.06,0-.19,0-.27-.08-.04-.04-.04-.07-.01-.09.36-.35,1.35-.43,1.35-.43l.49.13Z"/>
        <path class="cls-9" d="M13.72,4.77l.4.11c-.22.09-.96.37-1.46.42h-.07c-.07,0-.13-.01-.16-.05-.04-.05-.03-.1,0-.11.28-.3,1.23-.37,1.32-.39h-.01ZM13.74,4.75s-1.03.06-1.35.4c-.03.02-.04.09,0,.15.04.05.12.05.19.05h.09c.63-.06,1.55-.46,1.55-.46l-.49-.13h0Z"/>
        <path class="cls-5" d="M35.16,3.65l.85.39-.06.11c.67.32,1.66,1.04,1.66,1.04,0,0-.09.12-.27.14-.18.01-1.58-.44-1.58-.44l-.07-.25s-.12-.11-.25-.12c-.16-.03-.42.04-.42.04l.15-.89h0Z"/>
        <path class="cls-2" d="M35.56,3.99s-.03.02,0,.04c.12.07.36.26.46.39.13.18.24.35.24.35l1.36.43s-.13-.36-.49-.66c-.55-.46-1.32-.52-1.55-.54h-.01Z"/>
        <path class="cls-4" d="M35.75,4.89s.93.4,1.55.46c.06,0,.19,0,.27-.08.04-.04.04-.07.01-.09-.36-.35-1.35-.43-1.35-.43l-.49.13Z"/>
        <path class="cls-9" d="M36.25,4.77c.09,0,1.03.08,1.32.39,0,.01.04.06,0,.11-.03.03-.09.05-.16.05h-.07c-.51-.05-1.24-.34-1.46-.43l.4-.11h-.01ZM36.25,4.75l-.49.13s.93.4,1.55.46h.09c.06,0,.13,0,.19-.05.06-.05.03-.12,0-.15-.31-.32-1.35-.4-1.35-.4h0Z"/>
        <path d="M15.25,10.74h-.52V2.86l.48.55c.16.18.24.4.24.62v6.54c0,.09-.09.16-.19.16Z"/>
        <path d="M34.68,10.74h.49V2.86l-.55.62c-.12.13-.18.29-.18.45v6.61c0,.1.1.19.22.19h.01Z"/>
        <path class="cls-11" d="M33.47.49c-1.57-.22-4.38-.49-8.53-.49s-6.97.25-8.53.49c-1.06.15-1.82.93-1.82,1.81v.16h20.72v-.16c0-.9-.76-1.66-1.82-1.81Z"/>
        <path d="M33.29.83c-1.99-.4-8.33-.36-8.33-.36,0,0-6.34-.04-8.33.36-.27.05-.67.16-.97.28-.1.04-.16.15-.12.25l.63,1.3c.04.08.15.11.24.09.28-.09.57-.15,1.05-.25,1.79-.35,7.5-.35,7.5-.35,0,0,5.71,0,7.5.35.42.09.76.16,1.05.25.1.02.21-.02.24-.1l.45-1.35c.03-.09-.02-.17-.12-.22-.22-.1-.54-.19-.79-.24Z"/>
        <path class="cls-3" d="M18.24,4.5h-.31v7.34h.31v-7.34Z"/>
        <path class="cls-3" d="M19.66,4.5h-.31v7.34h.31v-7.34Z"/>
        <path class="cls-3" d="M21.09,4.5h-.31v7.34h.31v-7.34Z"/>
        <path class="cls-3" d="M22.53,4.5h-.31v7.34h.31v-7.34Z"/>
        <path class="cls-3" d="M23.96,4.5h-.31v7.34h.31v-7.34Z"/>
        <path class="cls-3" d="M25.38,4.5h-.31v7.34h.31v-7.34Z"/>
        <path class="cls-3" d="M26.82,4.5h-.31v7.34h.31v-7.34Z"/>
        <path class="cls-3" d="M28.25,4.5h-.31v7.34h.31v-7.34Z"/>
        <path class="cls-3" d="M29.69,4.5h-.31v7.34h.31v-7.34Z"/>
        <path class="cls-3" d="M31.11,4.5h-.31v7.34h.31v-7.34Z"/>
        <path class="cls-3" d="M32.54,4.5h-.31v7.34h.31v-7.34Z"/>
        <g>
          <path class="cls-12" d="M18,17.37h-.31v30.88h.31v-30.88Z"/>
          <path class="cls-12" d="M19.42,17.37h-.31v30.88h.31v-30.88Z"/>
          <path class="cls-12" d="M20.86,17.37h-.31v30.88h.31v-30.88Z"/>
          <path class="cls-12" d="M22.29,17.37h-.31v30.88h.31v-30.88Z"/>
          <path class="cls-12" d="M23.73,17.37h-.31v30.88h.31v-30.88Z"/>
          <path class="cls-12" d="M25.15,17.37h-.31v30.88h.31v-30.88Z"/>
          <path class="cls-12" d="M26.58,17.37h-.31v30.88h.31v-30.88Z"/>
          <path class="cls-12" d="M28.02,17.37h-.31v30.88h.31v-30.88Z"/>
          <path class="cls-12" d="M29.45,17.37h-.31v30.88h.31v-30.88Z"/>
          <path class="cls-12" d="M30.87,17.37h-.31v30.88h.31v-30.88Z"/>
          <path class="cls-12" d="M32.31,17.37h-.31v30.88h.31v-30.88Z"/>
        </g>
        <rect class="cls-1" x="33.96" y="1.41" width="1.49" height="10"/>
        <rect class="cls-1" x="14.53" y="1.41" width="1.49" height="10"/>
        <path class="cls-13" d="M18.89.59l1.57.04v-.08s-.66,0-.66,0l-.91.04Z"/>
        <path class="cls-13" d="M25.67.46l2.05.14v-.06s-.55-.08-.55-.08h-1.49Z"/>
        <rect class="cls-1" x="14.53" y="1.41" width="1.49" height="10"/>
        <rect class="cls-1" x="33.96" y="1.41" width="1.49" height="10"/>
      </g>
    </g>
  </g>
</svg>