<?xml version="1.0" encoding="UTF-8"?>
<svg xmlns="http://www.w3.org/2000/svg" xmlns:xlink="http://www.w3.org/1999/xlink" viewBox="0 0 50 50">
  <defs>
    <style>
      .cls-1 {
        fill: none;
      }

      .cls-2 {
        fill: #f38102;
      }

      .cls-3 {
        fill: #fa0;
      }

      .cls-4 {
        fill: url(#linear-gradient-8);
      }

      .cls-5 {
        fill: url(#linear-gradient-7);
      }

      .cls-6 {
        fill: url(#linear-gradient-5);
      }

      .cls-7 {
        fill: url(#linear-gradient-6);
      }

      .cls-8 {
        fill: url(#linear-gradient-9);
      }

      .cls-9 {
        fill: url(#linear-gradient-4);
      }

      .cls-10 {
        fill: url(#linear-gradient-3);
      }

      .cls-11 {
        fill: url(#linear-gradient-2);
      }

      .cls-12 {
        fill: #828282;
      }

      .cls-13 {
        fill: url(#linear-gradient);
      }

      .cls-14 {
        mix-blend-mode: multiply;
      }

      .cls-14, .cls-15 {
        isolation: isolate;
      }

      .cls-16 {
        fill: #636363;
      }

      .cls-17 {
        fill: #424242;
      }

      .cls-18 {
        fill: #941000;
      }
    </style>
    <linearGradient id="linear-gradient" x1="25.01" y1="5.4" x2="25.01" y2="2.28" gradientTransform="translate(0 52) scale(1 -1)" gradientUnits="userSpaceOnUse">
      <stop offset="0" stop-color="#db9200"/>
      <stop offset="1" stop-color="#b55100"/>
    </linearGradient>
    <linearGradient id="linear-gradient-2" x1="31.86" y1="26.18" x2="31.86" y2="13.45" gradientTransform="translate(0 52) scale(1 -1)" gradientUnits="userSpaceOnUse">
      <stop offset=".58" stop-color="#424242"/>
      <stop offset=".66" stop-color="#484848"/>
      <stop offset=".77" stop-color="#5a5a5a"/>
      <stop offset=".84" stop-color="#6b6b6b"/>
      <stop offset="1" stop-color="#757575"/>
    </linearGradient>
    <linearGradient id="linear-gradient-3" x1="18.12" x2="18.12" xlink:href="#linear-gradient-2"/>
    <linearGradient id="linear-gradient-4" x1="28.07" y1="30.25" x2="31.17" y2="30.25" gradientTransform="translate(0 52) scale(1 -1)" gradientUnits="userSpaceOnUse">
      <stop offset="0" stop-color="#757575"/>
      <stop offset=".16" stop-color="#6b6b6b"/>
      <stop offset=".23" stop-color="#5a5a5a"/>
      <stop offset=".34" stop-color="#484848"/>
      <stop offset=".42" stop-color="#424242"/>
    </linearGradient>
    <linearGradient id="linear-gradient-5" x1="28.71" y1="31.91" x2="18.44" y2="39.28" gradientTransform="translate(0 52) scale(1 -1)" gradientUnits="userSpaceOnUse">
      <stop offset="0" stop-color="#ec920a"/>
      <stop offset="1" stop-color="#fcc400"/>
    </linearGradient>
    <linearGradient id="linear-gradient-6" x1="25.01" y1="17.16" x2="25.01" y2="16.56" gradientTransform="translate(0 52) scale(1 -1)" gradientUnits="userSpaceOnUse">
      <stop offset=".21" stop-color="#212121"/>
      <stop offset=".48" stop-color="#272727"/>
      <stop offset=".86" stop-color="#393939"/>
      <stop offset="1" stop-color="#424242"/>
    </linearGradient>
    <linearGradient id="linear-gradient-7" x1="30.52" y1="17.81" x2="32.03" y2="17.81" gradientTransform="translate(0 52) scale(1 -1)" gradientUnits="userSpaceOnUse">
      <stop offset="0" stop-color="#363b39"/>
      <stop offset="1" stop-color="#1b1c1c"/>
    </linearGradient>
    <linearGradient id="linear-gradient-8" x1="21.91" y1="30.12" x2="18.81" y2="30.12" xlink:href="#linear-gradient-4"/>
    <linearGradient id="linear-gradient-9" x1="25.24" y1="15.31" x2="25.24" y2="14.31" xlink:href="#linear-gradient-2"/>
  </defs>
  <g class="cls-15">
    <g id="Layer_1" data-name="Layer 1">
      <g>
        <path d="M33.53,37.69h-2.87c-.64,0-1.15-.6-1.15-1.34v-12.81c0-.74.51-1.34,1.15-1.34h2.87c.64,0,1.15.6,1.15,1.34v12.81c0,.74-.51,1.34-1.15,1.34Z"/>
        <path d="M16.51,37.69h2.88c.64,0,1.15-.6,1.15-1.34v-12.81c0-.74-.51-1.34-1.15-1.34h-2.88c-.64,0-1.15.6-1.15,1.34v12.81c0,.74.51,1.34,1.15,1.34Z"/>
        <polygon class="cls-12" points="33.81 1.34 33.8 1.34 33.32 .03 33.15 1.34 30.96 1.34 30.54 .03 30.32 1.34 28.14 1.34 27.76 .03 27.49 1.34 25.3 1.34 24.98 .03 24.66 1.34 22.48 1.34 22.21 .03 21.83 1.34 19.64 1.34 19.42 .03 19 1.34 16.85 1.34 16.68 .03 16.2 1.34 16.19 1.34 15.06 8.08 34.94 8.08 33.81 1.34"/>
        <path class="cls-17" d="M28.07,36.5l.53,1.19-.14.86h-.76l-.08-2.05h.45Z"/>
        <path class="cls-17" d="M21.96,36.5l-.54,1.19.14.86h.76l.08-2.05h-.44Z"/>
        <path class="cls-12" d="M21.38,48.47l.29-4.79c0-.49.4-.59.87-.59h4.9c.49,0,.88.1.88.59l.29,4.79c0,.49-.4.59-.88.59h-5.49c-.49,0-.88-.1-.88-.59h.01Z"/>
        <path d="M22.27,43.69h5.47l.3,4.79h-6.07l.3-4.79Z"/>
        <path class="cls-13" d="M25.76,46.6h-1.5v3.11h1.5v-3.11Z"/>
        <path class="cls-2" d="M24.12,48.02c-.57,0-1.28-2.19-1.28-3.12,0,0,.43-1.45,1.11-1.45h2.1c.69,0,1.11,1.45,1.11,1.45,0,.94-.7,3.12-1.28,3.12h-1.78Z"/>
        <path class="cls-3" d="M22.84,44.91l-.79-9.46h5.9l-.79,9.46h-4.33Z"/>
        <path d="M31.78,19.77h-1.91c-.43,0-.76-.4-.76-.89v-8.5c0-.49.34-.89.76-.89h1.91c.43,0,.76.4.76.89v8.5c0,.49-.34.89-.76.89Z"/>
        <path class="cls-3" d="M30.97,11.41c-.13-.06-.26-.09-.41-.09h-2.63l-.4,6.81.16,1.17c.11.48.35,1.05.97,1.05h1.68c.5,0,.94-.4.98-.9l.1-6.69c0-.54-.19-1.03-.46-1.36h.01Z"/>
        <path class="cls-3" d="M29.19,11.62v-.69c0-.36-.31-.29-.7-.29h-.71l.51,2.73.45-.71c.25-.39.45-.85.45-1.04Z"/>
        <path d="M21.14,10.15h-.25v8.71h.25v-8.71Z"/>
        <path d="M18.24,19.74h1.91c.43,0,.76-.4.76-.89v-8.5c0-.49-.34-.89-.76-.89h-1.91c-.43,0-.76.4-.76.89v8.5c0,.49.34.89.76.89Z"/>
        <path class="cls-3" d="M19.06,11.38c.13-.06.26-.09.41-.09h2.62l.4,6.81-.16,1.18c-.11.48-.35,1.05-.97,1.05h-1.68c-.5,0-.94-.4-.97-.9l-.1-6.7c0-.54.19-1.02.46-1.36h-.01Z"/>
        <path d="M29.54,23.21h-.37v13.14h.37v-13.14Z"/>
        <path class="cls-16" d="M29.51,36.35h1.32v.9h-1.01c-.19-.24-.31-.55-.31-.9Z"/>
        <path class="cls-16" d="M30.82,34.2h-1.46v.9h1.46v-.9Z"/>
        <path class="cls-16" d="M30.82,32.04h-1.46v.9h1.46v-.9Z"/>
        <path class="cls-16" d="M30.82,29.89h-1.46v.9h1.46v-.9Z"/>
        <path class="cls-16" d="M30.82,27.73h-1.46v.9h1.46v-.9Z"/>
        <path class="cls-16" d="M30.82,25.56h-1.46v.9h1.46v-.9Z"/>
        <path class="cls-16" d="M30.82,23.41h-1.46v.9h1.46v-.9Z"/>
        <path class="cls-16" d="M30.82,35.15h-1.46v.9h1.46v-.9Z"/>
        <path class="cls-16" d="M30.82,33h-1.46v.9h1.46v-.9Z"/>
        <path class="cls-16" d="M30.82,30.84h-1.46v.9h1.46v-.9Z"/>
        <path class="cls-16" d="M30.82,28.69h-1.46v.9h1.46v-.9Z"/>
        <path class="cls-16" d="M30.82,26.52h-1.46v.9h1.46v-.9Z"/>
        <path class="cls-16" d="M30.82,24.38h-1.46v.9h1.46v-.9Z"/>
        <path class="cls-16" d="M18.67,34.2h-1.46v.9h1.46v-.9Z"/>
        <path class="cls-3" d="M20.71,11.62v-.69c0-.36.31-.29.7-.29h.71l-.51,2.73-.45-.71c-.25-.39-.45-.85-.45-1.04Z"/>
        <path class="cls-11" d="M33.84,21.88c-.2-.09-.41-.14-.64-.14h-2.74l-1.24,13.22-.06,1.8c.16.72.54,1.62,1.49,1.62h1.61c.76,0,1.44-.62,1.5-1.39l.79-13.04c0-.82-.28-1.58-.71-2.09Z"/>
        <path class="cls-10" d="M16.18,21.88c.2-.09.41-.14.64-.14h2.74l1.24,13.22v1.8c-.17.72-.54,1.62-1.5,1.62h-1.55c-.76,0-1.44-.62-1.5-1.39l-.79-13.04c0-.82.28-1.58.71-2.09h.01Z"/>
        <path class="cls-2" d="M27.36,36.69h-4.69c-.76,0-1.39-.61-1.39-1.35v-1.35h7.47v1.35c0,.75-.62,1.35-1.39,1.35h-.01Z"/>
        <path class="cls-2" d="M29.19,34.81c0,.77.62,1.39,1.39,1.39h1.3c.76,0,1.44-.62,1.5-1.39l.61-11.41c0-1.54-.94-2.79-2.06-2.79h-2.74v14.19h0Z"/>
        <path class="cls-9" d="M31.17,21.62h-3.1v.25h3.1v-.25Z"/>
        <path d="M30.94,21.58c.03-.1.27-.16.56-.13.15.03.32.05.51.07.56.08,1,.28.96.44-.02.1-.02.46-.09.51-.37.26-1.28-.23-1.55-.29s-.46-.29-.41-.5l.03-.1h-.01Z"/>
        <path class="cls-6" d="M29.33,23.22l-.7-1.55.26-9.99c0-1.81-7.75-1.9-7.75,0l.26,9.98-.72,1.56.75-.53.03.92h7.12l.03-.9.72.5Z"/>
        <path class="cls-2" d="M29.33,23.22l-.45-1.55.03-9.99c0-1.81-7.75-1.9-7.75,0l.03,9.98-.49,1.56.75-.53.02.92h7.13l.03-.9.72.5h-.01Z"/>
        <path class="cls-7" d="M27.96,35.45h-5.91l-.79-.48h7.5l-.8.48Z"/>
        <path class="cls-2" d="M20.84,34.81c0,.77-.62,1.39-1.39,1.39h-1.3c-.76,0-1.44-.62-1.5-1.39l-.61-11.41c0-1.54.94-2.79,2.06-2.79h2.74v14.19h0Z"/>
        <path class="cls-5" d="M32.03,32.73h-1.51v2.94h1.51v-2.94Z"/>
        <path class="cls-18" d="M31.89,32.86h-1.24v2.65h1.24v-2.65Z"/>
        <path class="cls-18" d="M19.31,32.86h-1.24v2.65h1.24v-2.65Z"/>
        <path d="M29.46,21.22h-8.84l.61-1.22h7.6l.62,1.22Z"/>
        <path class="cls-4" d="M21.91,21.75h-3.1v.25h3.1v-.25Z"/>
        <path d="M19.02,21.7c-.03-.1-.28-.16-.56-.13-.15.03-.33.05-.51.07-.56.07-1,.28-.96.44.03.1.03.46.09.51.38.26,1.28-.23,1.55-.29.27-.06.46-.29.41-.5l-.03-.1h.01Z"/>
        <path class="cls-3" d="M21.96,20.64h6.12c1.54,0,2.79,1.25,2.79,2.79v8.9c0,1.54-1.25,2.79-2.79,2.79h-6.12c-1.54,0-2.79-1.25-2.79-2.79v-8.9c0-1.54,1.25-2.79,2.79-2.79Z"/>
        <path d="M20.64,29.66v-7.26h8.56v7.26h-.29v-6.99h-8v6.99h-.28Z"/>
        <path class="cls-14" d="M21.59,30.55h-.34v3.09h.34v-3.09Z"/>
        <path class="cls-14" d="M22.23,30.55h-.34v3.09h.34v-3.09Z"/>
        <path class="cls-14" d="M22.87,30.55h-.34v3.09h.34v-3.09Z"/>
        <path class="cls-14" d="M23.51,30.55h-.34v3.09h.34v-3.09Z"/>
        <path class="cls-14" d="M24.14,30.55h-.34v3.09h.34v-3.09Z"/>
        <path class="cls-14" d="M24.77,30.55h-.34v3.09h.34v-3.09Z"/>
        <path class="cls-14" d="M25.41,30.55h-.34v3.09h.34v-3.09Z"/>
        <path class="cls-14" d="M26.04,30.55h-.34v3.09h.34v-3.09Z"/>
        <path class="cls-14" d="M26.68,30.55h-.34v3.09h.34v-3.09Z"/>
        <path class="cls-14" d="M27.32,30.55h-.34v3.09h.34v-3.09Z"/>
        <path class="cls-14" d="M27.96,30.55h-.34v3.09h.34v-3.09Z"/>
        <path class="cls-14" d="M28.59,30.55h-.34v3.09h.34v-3.09Z"/>
        <path class="cls-14" d="M29.23,30.55h-.34v3.09h.34v-3.09Z"/>
        <path class="cls-12" d="M24.94,11.06c1.1,0,2.12.35,2.97.95h.05v-3.02h-5.95v2.99c.84-.58,1.85-.9,2.91-.9h.01Z"/>
        <path class="cls-12" d="M27.53,8.08h-1.52v.91h1.52v-.91Z"/>
        <path class="cls-12" d="M24.02,8.08h-1.52v.91h1.52v-.91Z"/>
        <path class="cls-12" d="M29.33,13.47h-1.75v4.25h1.75v-4.25Z"/>
        <path class="cls-12" d="M22.41,13.47h-1.75v4.25h1.75v-4.25Z"/>
        <path class="cls-2" d="M24.29,44.91l.31-7.23h1.28l.17,7.23h-1.76Z"/>
        <path class="cls-16" d="M26.01,8.99h-1.99v.5h1.99v-.5Z"/>
        <rect class="cls-1" x="23.76" y="37.5" width="2.5" height="7.5"/>
        <path class="cls-8" d="M26.04,36.69h-1.61v1h1.61v-1Z"/>
        <rect class="cls-1" x="23.76" y="48.75" width="2.5" height="1.25"/>
        <path class="cls-17" d="M25.32,48.02h-.5v1.25h.5v-1.25Z"/>
        <path d="M16.62,1.83h16.76l.98,5.75H15.64l.97-5.75Z"/>
      </g>
    </g>
  </g>
</svg>