<svg width="12" height="12" viewBox="0 0 12 12" fill="none" xmlns="http://www.w3.org/2000/svg">
<g clip-path="url(#clip0_4_58)">
<path d="M7.47265 0.625C6.7889 0.62499 6.2377 0.62498 5.80425 0.68326C5.3542 0.74377 4.97524 0.873215 4.67429 1.17418C4.41182 1.43664 4.2792 1.75918 4.20958 2.13818C4.14194 2.50646 4.129 2.95715 4.12598 3.49792C4.12483 3.70502 4.29179 3.87384 4.49889 3.875C4.706 3.87615 4.87482 3.70919 4.87597 3.50209C4.87902 2.95534 4.89322 2.5678 4.94724 2.27368C4.9993 1.99027 5.0829 1.82623 5.2046 1.70451C5.343 1.56613 5.5373 1.4759 5.90415 1.42658C6.28185 1.3758 6.7824 1.375 7.5001 1.375H8.0001C8.7178 1.375 9.21835 1.3758 9.59605 1.42658C9.96295 1.4759 10.1572 1.56613 10.2956 1.70451C10.434 1.84289 10.5242 2.03718 10.5736 2.40406C10.6243 2.78174 10.6251 3.2823 10.6251 4V8C10.6251 8.7177 10.6243 9.21825 10.5736 9.59595C10.5242 9.96285 10.434 10.1571 10.2956 10.2955C10.1572 10.4339 9.96295 10.5241 9.59605 10.5735C9.21835 10.6242 8.7178 10.625 8.0001 10.625H7.5001C6.7824 10.625 6.28185 10.6242 5.90415 10.5735C5.5373 10.5241 5.343 10.4339 5.2046 10.2955C5.0829 10.1737 4.9993 10.0097 4.94724 9.72635C4.89322 9.4322 4.87902 9.04465 4.87597 8.4979C4.87482 8.2908 4.706 8.12385 4.49889 8.125C4.29179 8.12615 4.12483 8.295 4.12598 8.5021C4.129 9.04285 4.14194 9.49355 4.20958 9.8618C4.2792 10.2408 4.41182 10.5633 4.67429 10.8258C4.97524 11.1268 5.3542 11.2562 5.80425 11.3167C6.2377 11.375 6.7889 11.375 7.47265 11.375H8.02755C8.71135 11.375 9.2625 11.375 9.696 11.3167C10.1461 11.2562 10.525 11.1268 10.826 10.8258C11.1269 10.5248 11.2564 10.146 11.3169 9.6959C11.3752 9.2624 11.3751 8.71125 11.3751 8.02745V3.97257C11.3751 3.28877 11.3752 2.73761 11.3169 2.30413C11.2564 1.85407 11.1269 1.47514 10.826 1.17418C10.525 0.873215 10.1461 0.74377 9.696 0.68326C9.2625 0.62498 8.71135 0.62499 8.02755 0.625H7.47265Z" fill="#D3FC5E"/>
<path d="M1.00049 5.6245C0.793378 5.6245 0.625488 5.7924 0.625488 5.9995C0.625488 6.2066 0.793378 6.3745 1.00049 6.3745H6.98675L6.00645 7.2148C5.8492 7.34955 5.831 7.5863 5.96575 7.74355C6.10055 7.9008 6.3373 7.919 6.49455 7.78425L8.24455 6.28425C8.32765 6.213 8.3755 6.109 8.3755 5.9995C8.3755 5.89005 8.32765 5.78605 8.24455 5.7148L6.49455 4.21479C6.3373 4.08001 6.10055 4.09823 5.96575 4.25547C5.831 4.41272 5.8492 4.64946 6.00645 4.78424L6.98675 5.6245H1.00049Z" fill="#D3FC5E"/>
</g>
<defs>
<clipPath id="clip0_4_58">
<rect width="12" height="12" fill="white"/>
</clipPath>
</defs>
</svg>
