<svg width="25" height="25" viewBox="0 0 25 25" fill="none" xmlns="http://www.w3.org/2000/svg">
<g clip-path="url(#clip0_90_70)">
<path fill-rule="evenodd" clip-rule="evenodd" d="M22.9534 16.4583L24.1629 23.7168C24.1906 23.8808 24.1443 24.0482 24.0368 24.1748C23.9294 24.3021 23.7716 24.375 23.6054 24.375H18.7202V16.4583H22.9534Z" fill="#0B0611"/>
<path fill-rule="evenodd" clip-rule="evenodd" d="M15.3393 16.4583C14.3989 17.5604 13.6791 18.2441 13.6672 18.2549C13.0129 18.8752 11.9872 18.8752 11.3329 18.2549C11.3165 18.2396 9.94635 16.939 8.51288 15.0248L6.51392 17.0238L13.8651 24.375H17.5893V16.4583H15.3393Z" fill="#0B0611"/>
<path fill-rule="evenodd" clip-rule="evenodd" d="M12.2659 24.375H1.39464C1.22839 24.375 1.07062 24.3021 0.963188 24.1748C0.855746 24.0482 0.809377 23.8808 0.837083 23.7168L1.04009 22.4982L5.71431 17.8234L12.2659 24.375Z" fill="#0B0611"/>
<path fill-rule="evenodd" clip-rule="evenodd" d="M6.55692 11.9345H3.27941C3.0029 11.9345 2.76709 12.1341 2.72185 12.4073L1.35962 20.5784L7.84563 14.0924C7.69522 13.8718 7.5465 13.6451 7.4006 13.4138C7.1009 12.9382 6.81647 12.4434 6.55692 11.9345Z" fill="#0B0611"/>
<path fill-rule="evenodd" clip-rule="evenodd" d="M18.4431 11.9345C18.1836 12.4434 17.8991 12.9382 17.5994 13.4138C17.1657 14.102 16.7054 14.7466 16.2576 15.3274H22.7651L22.2782 12.4073C22.233 12.1341 21.9971 11.9345 21.7206 11.9345H18.4431Z" fill="#0B0611"/>
<path fill-rule="evenodd" clip-rule="evenodd" d="M12.5 0.625C9.06754 0.625 6.28003 3.41249 6.28003 6.845C6.28003 8.8725 7.21503 10.9975 8.35751 12.81C9.19003 14.135 10.13 15.29 10.86 16.115C11.59 16.94 12.11 17.435 12.11 17.435C12.22 17.5375 12.36 17.59 12.5 17.59C12.64 17.59 12.78 17.5375 12.89 17.435C12.89 17.435 13.725 16.6425 14.7625 15.3875V15.3275H14.8125C15.4 14.6125 16.0475 13.755 16.6425 12.81C17.785 10.9975 18.72 8.8725 18.72 6.845C18.72 3.41249 15.9325 0.625 12.5 0.625ZM12.5 9.73C10.905 9.73 9.61252 8.4375 9.61252 6.845C9.61252 5.25499 10.905 3.96249 12.5 3.96249C14.095 3.96249 15.3875 5.25499 15.3875 6.845C15.3875 8.4375 14.095 9.73 12.5 9.73Z" fill="#0B0611"/>
</g>
<defs>
<clipPath id="clip0_90_70">
<rect width="25" height="25" fill="white"/>
</clipPath>
</defs>
</svg>
