<?xml version="1.0" encoding="UTF-8"?>
<svg xmlns="http://www.w3.org/2000/svg" xmlns:xlink="http://www.w3.org/1999/xlink" viewBox="0 0 50 50" width="50" height="50">
  <defs>
    <style>
      .cls-1 {
        fill: #d36c07;
      }

      .cls-2 {
        fill: url(#linear-gradient-2);
      }

      .cls-3 {
        fill: #f18121;
      }

      .cls-4 {
        fill: #828282;
      }

      .cls-5 {
        fill: #231f20;
      }

      .cls-6 {
        fill: url(#linear-gradient);
      }

      .cls-7 {
        isolation: isolate;
      }

      .cls-8 {
        fill: url(#linear-gradient-3);
      }

      .cls-8, .cls-9 {
        mix-blend-mode: multiply;
        opacity: .5;
      }

      .cls-9 {
        fill: url(#linear-gradient-4);
      }
    </style>
    <linearGradient id="linear-gradient" x1="29.3" y1="40.1" x2="29.52" y2="41.88" gradientUnits="userSpaceOnUse">
      <stop offset="0" stop-color="#fff"/>
      <stop offset=".23" stop-color="#cbcccc"/>
      <stop offset=".46" stop-color="#9e9fa0"/>
      <stop offset=".66" stop-color="#7e7e80"/>
      <stop offset=".84" stop-color="#6a6b6d"/>
      <stop offset=".95" stop-color="#636466"/>
    </linearGradient>
    <linearGradient id="linear-gradient-2" x1="24.77" y1="36.56" x2="24.77" y2="46.55" gradientUnits="userSpaceOnUse">
      <stop offset="0" stop-color="#000"/>
      <stop offset=".34" stop-color="#0e0e0e"/>
      <stop offset=".97" stop-color="#343434"/>
      <stop offset="1" stop-color="#363636"/>
    </linearGradient>
    <linearGradient id="linear-gradient-3" x1="19.69" y1="26.55" x2="30.35" y2="26.55" gradientUnits="userSpaceOnUse">
      <stop offset="0" stop-color="#000"/>
      <stop offset=".14" stop-color="#0d0d0d"/>
      <stop offset=".35" stop-color="#1b1b1b"/>
      <stop offset=".52" stop-color="#212121"/>
      <stop offset=".68" stop-color="#1b1b1b"/>
      <stop offset=".89" stop-color="#0c0c0c"/>
      <stop offset="1" stop-color="#000"/>
    </linearGradient>
    <linearGradient id="linear-gradient-4" x1="19.69" y1="36.84" x2="30.35" y2="36.84" xlink:href="#linear-gradient-3"/>
  </defs>
  <g class="cls-7">
    <g id="Layer_1" data-name="Layer 1">
      <g>
        <path class="cls-4" d="M29.2,20.67h-8.84s.64,7.96.4,8.85c-.02.09-.06.19-.1.31h8.26c-.04-.11-.08-.22-.1-.31-.24-.89.39-8.85.39-8.85Z"/>
        <path class="cls-3" d="M30.11,19.12c.64-.92,1.98-3.78.95-6.1-1.04-2.31-4.5-2.61-6.18-2.71h0s0,0,0,0h0c-1.68.1-5.15.4-6.19,2.71-1.04,2.32.3,5.18.95,6.1,0,0,.01-.02.03-.04-.03.26-.05.51-.03.72.12,1.2,1.98,5.3,2.83,6.22.28.3.65.59,1.08.8.37.23.77.32,1.17.31.21,0,.42-.02.62-.08.7-.17,1.34-.59,1.77-1.02.91-.92,2.89-5.02,3.01-6.22.02-.21,0-.46-.03-.72.02.02.03.04.03.04ZM24.91,14.52h-.39s-.26-.04-.64-.05c.39-.12.64-.08.64-.08h.69s0,0,0,0c0,0,.25-.04.63.08-.55,0-.94.05-.94.05Z"/>
        <path class="cls-4" d="M31.16,40.32l-.04-.25-.52-.39-.98-4.32-2.63.67s.31,2.09.37,2.66c.06.57.29,2.17.64,2.59.16.33.75.58,1.45.58s1.26-.33,1.47-.62c0,0,0,0,0,0,.25-.3.27-.6.24-.92Z"/>
        <path class="cls-6" d="M30.58,41.29c0,.3-.51.55-1.13.55s-1.14-.25-1.14-.55.51-.55,1.14-.55,1.13.25,1.13.55Z"/>
        <path d="M29.88,41.44c0,.11-.2.19-.44.19s-.45-.09-.45-.19.2-.19.45-.19.44.09.44.19Z"/>
        <path d="M31.18,39.91s-.12-4.2-.37-5.55c-.26-1.36-.49-3.38-.7-4.98-.21-1.6-.33-1.77-1.17-1.75-.84.02-1.15.4-1.15.4l1.22,8.17.56,3.51.06.38c1.09-.24,1.56.23,1.56.23.31-.24-.01-.41-.01-.41Z"/>
        <path d="M23.43,48.64c0,.75.66,1.36,1.47,1.36s1.46-.61,1.46-1.36c0-.05,0-5.64,0-5.64h-2.93s0,5.59,0,5.64Z"/>
        <path class="cls-2" d="M20.35,36.51s.4,1.68.98,2.59c.58.92.96,3.36,1.42,4.69.47,1.33.58,2.69,2.01,2.67h.01c1.43.02,1.54-1.33,2.01-2.67.47-1.33.84-3.78,1.43-4.69.58-.91.98-2.59.98-2.59h-8.85Z"/>
        <path class="cls-4" d="M26.27,20.01c0,.7-.69,1.27-1.55,1.27s-1.55-.57-1.55-1.27.7-1.27,1.55-1.27,1.55.57,1.55,1.27Z"/>
        <path d="M26.35,1.36c0-.75-.66-1.36-1.47-1.36s-1.46.61-1.46,1.36c0,.05,0,5.64,0,5.64h2.92s0-5.59,0-5.64Z"/>
        <path class="cls-1" d="M22.86,6.61h4.32s0,0,0-.01c-.08-.2-.48-.94-1.26-1.61-.3-.26-.6-.36-.9-.35-.3,0-.6.09-.9.35-.78.67-1.18,1.41-1.26,1.61,0,0,0,0,0,.01Z"/>
        <path class="cls-3" d="M30.48,8.7c-.53-.94-3.69-2.77-5.32-2.92-.08,0-.15-.01-.23,0-1.63.15-4.79,1.98-5.32,2.92-.54.97-.27,3.68-.27,3.68l.43.34s1.35,1.13,1.63,1.53c.54.78,6.75.78,7.29,0,.23-.33,1.63-1.53,1.63-1.53l.43-.34s.28-2.71-.27-3.68Z"/>
        <path d="M20.92,12.49s-.01.07-.03.11c-.08.13-.27.19-.44.13-.37-.14-1.03-.06-1.23-.02-.02,0-.04,0-.05,0-.5.03-1.48.39-2.26.67-.37.13-.73.26-1.02.36-.37.12-.76.16-1.11.16-.64,0-1.14-.13-1.17-.14-.02,0-.04-.01-.06-.02,0,.11.08.22.22.26.03,0,.53.14,1.17.14.35,0,.73-.04,1.11-.16.3-.09.65-.22,1.02-.35.79-.29,1.77-.64,2.27-.67.02,0,.04,0,.05,0,.2-.04.86-.12,1.23.02.16.06.36,0,.44-.13.07-.13.01-.27-.13-.34Z"/>
        <path class="cls-5" d="M26.61,10.48c0,.7-.74,1.27-1.66,1.27s-1.66-.57-1.66-1.27.74-1.27,1.66-1.27,1.66.57,1.66,1.27Z"/>
        <path class="cls-3" d="M30.42,33.35c0-.64-1.11-2.52-1.51-3.53h-8.26c-.4,1.02-1.51,2.89-1.51,3.53,0,.71-.06,2.26,3.78,7.74.2.6.57,1.18,1.63,1.18h.51c1.13,0,1.48-.67,1.67-1.31,3.74-5.38,3.69-6.91,3.69-7.61Z"/>
        <path d="M28.2,28.14c-.58-1.46-.05-2.29-.34-2.4-.3-.11-.67.26-1.39.74-.54.36-1.3.41-1.66.41h-.01c-.35,0-1.12-.05-1.66-.41-.72-.48-1.09-.85-1.39-.74-.3.12.23.94-.34,2.4-.58,1.46-1.36,2.45-1.04,3.75.31,1.3,1.49,4.94,1.49,4.94,0,0,1.8.17,2.95.14,1.15.03,2.95-.14,2.95-.14,0,0,1.18-3.65,1.49-4.94.31-1.3-.47-2.29-1.04-3.75Z"/>
        <path class="cls-8" d="M24.79,27.21c1.35,0,2.36-1.18,2.36-1.18,0,0,.01-.02.04-.05-.19.13-.43.31-.71.5-.54.36-1.3.41-1.66.41h-.01c-.35,0-1.12-.05-1.66-.41-.35-.23-.62-.44-.84-.58,0,.01.02.02.02.03.21.35,1.1,1.28,2.45,1.28Z"/>
        <path class="cls-9" d="M21.86,36.84s1.8.17,2.95.14c1.15.03,2.95-.14,2.95-.14-3.2-.32-5.89,0-5.89,0Z"/>
        <path d="M20.27,9.07s-1.25-.31-2.27-.84c-.56-.29-.84-.36-.98-.37-.14-.12-.27-.2-.28-.21-.07-.03-.15-.02-.19.03,0,.01,0,.02,0,.03-.25-.12-.56-.18-.94-.13-1.51.18-2.89,1.99-2.89,1.99l5,.04c-.06-.26-.15-.57-.29-.88.03-.02.04-.04.05-.07.24.01.71.24,1.24.53.61.34,1.05.73,1.19.86,0,.01.05.04.05.04,0,0,0,0,.01,0,.13.03.3-.18.39-.47.08-.28.05-.54-.08-.56Z"/>
        <path d="M37.42,9.57s-1.39-1.81-2.89-1.99c-.38-.04-.69.01-.94.13,0-.01,0-.02,0-.03-.04-.05-.13-.07-.19-.03-.01,0-.14.08-.28.21-.14,0-.42.08-.98.37-1.01.53-2.27.84-2.27.84-.13.03-.17.28-.08.56.08.28.26.49.39.47,0,0,0,0,.01,0,0,0,.05-.03.06-.04.15-.13.58-.52,1.19-.86.54-.3,1.01-.52,1.25-.53,0,.03.02.05.04.07-.14.31-.23.63-.29.88l5-.04Z"/>
        <path class="cls-4" d="M30.83,14.03l-2.27-.87c-.28-.11-.61,0-.74.22-.06.1-.06.21-.03.31-.7.11-1.43.12-2.14.16-.5.02-.98.02-1.48,0-.53-.02-1.05-.05-1.58-.09-.14-.01-.28-.03-.42-.04.04-.11.04-.22-.02-.33-.13-.23-.47-.33-.75-.22l-2.27.87c-.28.11-.4.38-.27.61.09.16.3.26.51.26.08,0,.16-.01.24-.04l1.15-.44c-.04.38.08,1.02.57,1.34.6.39.81.18,1.12-.17.4-.43,1.03-.56,1.57-.22.27.17.56.42.94.4.21,0,.39-.05.56-.15.23-.14.4-.32.68-.4.27-.08.54-.05.77.08.13.08.28.18.37.29.3.35.5.55,1.07.17.51-.35.61-1.09.52-1.44l1.43.55c.08.03.16.04.24.04.21,0,.41-.1.51-.26.13-.23.01-.5-.27-.61Z"/>
        <g>
          <path d="M19.26,13.16c-.1.03-.15.12-.11.2l.09.2-1.2.37c-.23.07-.35.28-.28.47l-4.17,1.34h0c-.03-.07-.11-.1-.18-.07-.07.02-.11.09-.08.15l.52,1.07s.07.07.13.07c.02,0,.04,0,.05,0,.07-.02.11-.09.08-.15v-.02s4.16-1.34,4.16-1.34c.12.13.33.18.53.12l1.18-.37.11.23c.03.06.1.1.18.1.02,0,.04,0,.06,0,.1-.03.15-.12.11-.2l-.95-2.06c-.04-.08-.14-.12-.24-.09Z"/>
          <path d="M36.59,15.67c-.07-.02-.15,0-.18.06h0s-4.17-1.33-4.17-1.33c.07-.19-.04-.4-.28-.47l-1.2-.37.09-.2c.04-.08-.01-.17-.11-.2-.1-.03-.2,0-.24.09l-.14.3.19-.63s.1.01.13.02c.02,0,.03,0,.05,0,.5.03,1.48.39,2.26.67.37.13.73.26,1.02.35.37.12.76.16,1.11.16.64,0,1.14-.13,1.17-.14.17-.05.26-.2.21-.34,0-.02-.02-.03-.03-.05,0,0-.01,0-.01,0-.07-.11-.22-.17-.37-.13-.01,0-1,.26-1.83,0-.28-.09-.63-.21-1-.35-.9-.33-1.84-.66-2.45-.71-.02,0-.06-.01-.1-.02v-.02s-1.69-.48-1.69-.48l-.05.02c-.42-.93-.97-2.16-1.42-3.16-.41-.9-.75-1.6-.82-1.7-.14-.24-.84-.75-1.56-.77-.62-.02-1.37.45-1.62.76-.2.24-.65,1.01-1.06,1.68-.11.17-.21.34-.31.49-.31.48-1.08,1.9-1.57,2.79l-1.29.36v.02s-.07.01-.09.02c-.61.05-1.55.38-2.45.71-.37.13-.71.26-.99.35-.84.27-1.82.01-1.84,0-.17-.05-.35.03-.41.17-.06.14.04.29.21.34.03,0,.53.14,1.17.14.35,0,.73-.04,1.11-.16.3-.09.65-.22,1.02-.35.79-.29,1.77-.64,2.27-.67.02,0,.04,0,.05,0,.03,0,.08-.01.13-.02l.26.85.35.26,1.87-.78-.07-.35c2.53-.39,4.79-.16,6.19.1l-.05.26,1.87.78.3-.22-.69,1.5c-.04.08.01.17.11.2.02,0,.04,0,.06,0,.08,0,.15-.04.18-.1l.11-.23,1.18.37c.19.06.4,0,.53-.12l4.17,1.34v.02c-.04.06,0,.13.07.15.02,0,.03,0,.05,0,.06,0,.11-.03.13-.07l.52-1.07c.03-.06,0-.13-.08-.15Z"/>
        </g>
      </g>
    </g>
  </g>
</svg>