<?xml version="1.0" encoding="UTF-8"?>
<svg id="Layer_1" data-name="Layer 1" xmlns="http://www.w3.org/2000/svg" xmlns:xlink="http://www.w3.org/1999/xlink" viewBox="0 0 50 50">
  <defs>
    <style>
      .cls-1 {
        fill: none;
      }

      .cls-2 {
        fill: url(#linear-gradient-5);
      }

      .cls-3 {
        fill: url(#linear-gradient-6);
      }

      .cls-4 {
        fill: url(#linear-gradient-4);
      }

      .cls-5 {
        fill: url(#linear-gradient-3);
      }

      .cls-6 {
        fill: url(#linear-gradient-2);
      }

      .cls-7 {
        fill: #f18121;
      }

      .cls-8 {
        fill: url(#linear-gradient);
      }

      .cls-9 {
        fill: #1e1e1e;
      }

      .cls-10 {
        fill: #be1e2d;
      }

      .cls-11 {
        fill: #d56f27;
      }

      .cls-12 {
        fill: #353535;
      }
    </style>
    <linearGradient id="linear-gradient" x1="15.01" y1="15.27" x2="15.01" y2="9.12" gradientTransform="translate(0 52) scale(1 -1)" gradientUnits="userSpaceOnUse">
      <stop offset="0" stop-color="#363b39"/>
      <stop offset="1" stop-color="#0c0d0d"/>
    </linearGradient>
    <linearGradient id="linear-gradient-2" x1="35.03" y1="11.39" x2="35.05" y2="11.39" xlink:href="#linear-gradient"/>
    <linearGradient id="linear-gradient-3" x1="15.12" y1="44.48" x2="15.12" y2="38.33" xlink:href="#linear-gradient"/>
    <linearGradient id="linear-gradient-4" x1="34.92" y1="44.48" x2="34.92" y2="38.33" xlink:href="#linear-gradient"/>
    <linearGradient id="linear-gradient-5" x1="32.47" y1="32.49" x2="17.51" y2="32.49" gradientTransform="translate(0 52) scale(1 -1)" gradientUnits="userSpaceOnUse">
      <stop offset="0" stop-color="#000"/>
      <stop offset="1" stop-color="#1b1c1c"/>
    </linearGradient>
    <linearGradient id="linear-gradient-6" x1="33.64" y1="39.71" x2="16.34" y2="39.71" xlink:href="#linear-gradient-5"/>
  </defs>
  <g>
    <rect class="cls-1" x="12.89" y="0" width="24.22" height="49.99"/>
    <path class="cls-8" d="M15.01,44.48c.66,0,1.21-.82,1.21-1.84v-4.06c0-1.01-.54-1.84-1.21-1.84s-1.21.82-1.21,1.84v4.06c0,1.01.54,1.84,1.21,1.84Z"/>
    <path class="cls-6" d="M35.03,44.48c.66,0,1.21-.82,1.21-1.84v-4.06c0-1.01-.54-1.84-1.21-1.84s-1.21.82-1.21,1.84v4.06c0,1.01.54,1.84,1.21,1.84Z"/>
    <path class="cls-5" d="M15.12,15.27c.66,0,1.21-.82,1.21-1.84v-4.06c0-1.01-.54-1.84-1.21-1.84s-1.21.82-1.21,1.84v4.06c0,1.01.54,1.84,1.21,1.84Z"/>
    <path class="cls-4" d="M34.92,15.27c.66,0,1.21-.82,1.21-1.84v-4.06c0-1.01-.54-1.84-1.21-1.84s-1.21.82-1.21,1.84v4.06c0,1.01.54,1.84,1.21,1.84Z"/>
    <path class="cls-10" d="M32.5,49.85c0,.09.15.15.34.15h1.49c.19,0,.34-.06.34-.15v-.51c0-.09-.15-.15-.34-.15h-1.49c-.19,0-.34.06-.34.15v.51Z"/>
    <path class="cls-10" d="M15.35,49.85c0,.09.15.15.34.15h1.49c.19,0,.34-.06.34-.15v-.51c0-.09-.15-.15-.34-.15h-1.49c-.19,0-.34.06-.34.15v.51Z"/>
    <path d="M20.2,2.88V.66c2.91-.87,6.67-.87,9.59,0v2.22h-9.59Z"/>
    <path class="cls-11" d="M14.72,6.32c.24-2.02.62-2.01,1.32-2.85.29.06.6,0,.85-.17l2.49-1.75c.26-.19.41-.46.46-.76.11-.04.24-.07.36-.11v2.22h9.59V.66c.12.04.25.07.36.11.04.3.2.57.46.76l2.49,1.75c.26.19.56.24.85.17.69.84,1.07.82,1.32,2.85.64,5.35.49,14.81.51,16.89.01,1.36.34,25.11-.56,26-1.11,1.07-19.34,1.07-20.43,0-.9-.87-.59-24.62-.57-26,.02-2.07-.12-11.54.51-16.89h-.01Z"/>
    <path class="cls-7" d="M34.55,22.88c.01,1.46,1.01,25.25.05,26.18-1.15,1.12-18.45.92-19.22,0-.85-1.02.04-24.71.05-26.18.02-1.99-.69-11.11-.07-16.25.39-3.35,1.19-2.85,3.15-4.41,2.66-2.14,10.32-2.14,12.99-.01,1.96,1.57,2.76,1.07,3.15,4.41.6,5.14-.1,14.26-.07,16.25h-.01Z"/>
    <path class="cls-2" d="M29.06,18.8c1.72.24,2.96.69,3.41.87l-.14.74s-1.35-.66-3.46-.96c-1.82-.26-5.95-.26-7.77,0-2.11.3-3.45.96-3.45.96l-.14-.74c.45-.19,1.69-.65,3.41-.87,1.9-.26,6.22-.26,8.12,0h.01Z"/>
    <path class="cls-3" d="M33,13.28c-.67-.27-1.84-.75-3.65-1.12-2.61-.55-6.09-.55-8.7,0-1.82.39-2.99.85-3.66,1.12-.29.12-.47.22-.57.32v-.02s-.12-.52-.05-.67c.07-.12.26-.24.62-.39.67-.28,1.84-.75,3.66-1.12,2.61-.55,6.09-.55,8.7,0,1.82.39,2.99.85,3.65,1.12.35.15.55.26.62.39.07.14-.05.67-.05.67v.02c-.1-.1-.29-.2-.57-.32Z"/>
    <path d="M29.06,18.8c-1.9-.26-6.22-.26-8.12,0-1.72.24-2.96.69-3.41.87l-1.1-6.07c.1-.1.27-.2.57-.32.67-.27,1.84-.75,3.66-1.12,2.61-.55,6.09-.55,8.7,0,1.82.39,2.99.85,3.65,1.12.29.12.47.22.57.32l-1.1,6.07c-.46-.19-1.69-.65-3.41-.87h-.01Z"/>
    <path d="M33.9,23.69c0,1.46.06,2.45.1,2.96l-1.37.45h-.09l.25-6.26,1.39-7.45s.12,1.91,0,4.65c-.07,1.74-.29,4.11-.29,5.65h.01Z"/>
    <path d="M17.35,27.1l-1.37-.45c.05-.5.1-1.5.1-2.96,0-1.54-.21-3.92-.29-5.65-.12-2.74,0-4.65,0-4.65l1.39,7.45.25,6.26h-.09.01Z"/>
    <path d="M33.1,3.29l-2.49-1.75c-.26-.19-.42-.46-.46-.76.71.24,1.31.54,1.77.9.87.69,1.54,1.19,2.04,1.8-.29.06-.6,0-.85-.17h-.01Z"/>
    <path d="M19.38,1.53l-2.49,1.75c-.26.19-.56.24-.85.17.5-.61,1.15-1.11,2.02-1.8.45-.35,1.06-.65,1.77-.9-.04.3-.2.57-.46.76h0Z"/>
    <path d="M15.86,13.85s-.84.16-.85.85.84,2.07.85,1.2c.01-.89.07-1.77,0-2.04h0Z"/>
    <path class="cls-11" d="M12.96,15.37c.19-.24,1.86-.74,1.86-.74.32-.1.45.17.49.41l-2.4.7c-.02-.11-.04-.25.06-.39h-.01Z"/>
    <path d="M15.31,15.04c.02.15.02.3.02.3l-2.36.56s-.04-.06-.06-.15l2.4-.7h0Z"/>
    <path d="M34.13,13.82s.89.16.91.85c.02.69-.89,2.07-.91,1.2-.02-.89-.07-1.77,0-2.04h0Z"/>
    <path class="cls-11" d="M35.17,14.58s1.67.5,1.86.74c.11.14.09.3.05.41l-2.4-.71c.04-.25.15-.55.49-.45h0Z"/>
    <path d="M37.08,15.73c-.02.07-.05.12-.05.12l-2.36-.56s0-.12.01-.26l2.4.71h0Z"/>
    <path d="M35.76,22.88c.12,0,.22.1.22.21v1.76c0,.11-.1.21-.22.21v-2.2h0Z"/>
    <path d="M14.22,22.88c-.12,0-.22.1-.22.21v1.76c0,.11.1.21.22.21v-2.2h0Z"/>
    <path d="M32.55,27.65h1.51l.2,2.41s-1.76-.79-1.71-2.41Z"/>
    <path d="M17.45,27.65h-1.51l-.2,2.41s1.76-.79,1.71-2.41Z"/>
    <path d="M34.13,31.08c.07.07.12.11.12.11,0,0-.16,13.99-.2,17.27,0,0-4.16.6-9.05.6-4.45,0-9.09-.6-9.09-.6-.04-3.3-.2-17.31-.2-17.31,0,0,.04-.02.09-.07h18.34-.01Z"/>
    <path class="cls-12" d="M34.2,36.75s-1.65.77-1.65,1.44v5.15s.04,1.09.45,1.39c.41.3.62.62.62.62l.46.64.1-9.24h.01Z"/>
    <path class="cls-12" d="M15.81,36.75s1.65.77,1.65,1.44v5.15s-.04,1.09-.45,1.39c-.41.3-.62.62-.62.62l-.46.64-.1-9.24h-.01Z"/>
  </g>
  <g>
    <path class="cls-9" d="M20.72,32.38c0-.17.12-.29.28-.29s.28.14.28.29v15.05c0,.17-.12.29-.28.29s-.28-.13-.28-.29v-15.05Z"/>
    <path class="cls-9" d="M19.58,32.38c0-.17.12-.29.28-.29s.28.14.28.29v15.05c0,.17-.12.29-.28.29s-.28-.13-.28-.29v-15.05Z"/>
    <path class="cls-9" d="M18.43,32.38c0-.17.12-.29.28-.29s.28.14.28.29v15.05c0,.17-.12.29-.28.29s-.28-.13-.28-.29v-15.05Z"/>
    <path class="cls-9" d="M24.18,32.38c0-.17.12-.29.28-.29s.28.14.28.29v15.05c0,.17-.12.29-.28.29s-.28-.13-.28-.29v-15.05Z"/>
    <path class="cls-9" d="M23.03,32.38c0-.17.12-.29.28-.29s.28.14.28.29v15.05c0,.17-.12.29-.28.29s-.28-.13-.28-.29v-15.05Z"/>
    <path class="cls-9" d="M21.89,32.38c0-.17.12-.29.28-.29s.28.14.28.29v15.05c0,.17-.12.29-.28.29s-.28-.13-.28-.29v-15.05Z"/>
    <path class="cls-9" d="M27.54,32.38c0-.17.12-.29.28-.29s.28.14.28.29v15.05c0,.17-.12.29-.28.29s-.28-.13-.28-.29v-15.05Z"/>
    <path class="cls-9" d="M26.4,32.38c0-.17.12-.29.28-.29s.28.14.28.29v15.05c0,.17-.12.29-.28.29s-.28-.13-.28-.29v-15.05Z"/>
    <path class="cls-9" d="M25.26,32.38c0-.17.12-.29.28-.29s.28.14.28.29v15.05c0,.17-.12.29-.28.29s-.28-.13-.28-.29v-15.05Z"/>
    <path class="cls-9" d="M31,32.38c0-.17.12-.29.28-.29s.28.14.28.29v15.05c0,.17-.12.29-.28.29s-.28-.13-.28-.29v-15.05Z"/>
    <path class="cls-9" d="M29.86,32.38c0-.17.12-.29.28-.29s.28.14.28.29v15.05c0,.17-.12.29-.28.29s-.28-.13-.28-.29v-15.05Z"/>
    <path class="cls-9" d="M28.71,32.38c0-.17.12-.29.28-.29s.28.14.28.29v15.05c0,.17-.12.29-.28.29s-.28-.13-.28-.29v-15.05Z"/>
  </g>
</svg>