<?xml version="1.0" encoding="UTF-8"?>
<svg id="Layer_1" data-name="Layer 1" xmlns="http://www.w3.org/2000/svg" viewBox="0 0 50 50">
  <defs>
    <style>
      .cls-1 {
        fill: #f21c00;
      }

      .cls-2 {
        fill: #828282;
      }

      .cls-3 {
        fill: #283242;
      }

      .cls-4 {
        fill: #3b4435;
      }

      .cls-5 {
        fill: #414a3b;
      }

      .cls-6 {
        fill: #f29d00;
      }
    </style>
  </defs>
  <path class="cls-2" d="M30.96,30.94s-1.63.14-1.63-.47c.17,0,.31-.08.34-.19.14-.47.31-2.84-.22-3.67h-9.13c-.53.84-.36,3.2-.22,3.67.03.11.17.19.34.19,0,.61-1.63.47-1.63.47h-.02v2.78h12.18v-2.78h-.02Z"/>
  <g>
    <path class="cls-2" d="M34.25,42.96l-.37-11.58c0-.38-.32-.71-.78-.9l-.56-7.83c-.4,1.03-.96,2.01-1.54,2.85l.36,4.93c-.53.17-.9.53-.9.95l.17,11.74,1.2,1.11.18,3.39,1.55-.04-.05-3.49.75-1.14Z"/>
    <path class="cls-2" d="M18.66,30.45l.39-5.29c-.61-.93-1.18-2-1.52-3.11l-.61,8.43c-.47.19-.79.52-.8.9l-.37,11.58.75,1.14-.05,3.49,1.59.05.17-3.54,1.01-.97.32-11.74c0-.41-.36-.76-.88-.94Z"/>
  </g>
  <path class="cls-4" d="M27.88,14.76h-5.49c-9.04,2.5-4.03,9.99-1.71,12.51.54.59,1.45.99,2.47,1.08l1.99-.03,1.99.03c1.03-.09,1.93-.49,2.47-1.08,2.32-2.52,7.33-10.01-1.71-12.51h-.02Z"/>
  <path class="cls-6" d="M32.39,11.61c.65,0,1.18-.14,1.18-.31s-.53-.31-1.18-.31-1.18.14-1.18.31.53.31,1.18.31Z"/>
  <path class="cls-4" d="M24.83,36.04c-2.92,0-5.29,1.9-5.29,4.25v1.05c0,1.5.97,2.81,2.43,3.57.09,1.43.2,2.87.27,3.27.16.87,2.21,1.2,2.21,1.2h1.06s2.05-.33,2.21-1.2c.08-.42.19-1.98.28-3.46,1.28-.78,2.11-1.99,2.11-3.38v-1.05c0-2.35-2.37-4.25-5.29-4.25Z"/>
  <path class="cls-6" d="M20.24,48.89c.6,0,1.09-.13,1.09-.29s-.49-.29-1.09-.29-1.09.13-1.09.29.49.29,1.09.29Z"/>
  <path d="M20.04,48.45c.42.01.84.01,1.24.01.03,0,.06,0,.09.01v-.11c0-.71-.51-1.29-1.14-1.29s-1.14.57-1.14,1.29v.1c.31-.01.62-.04.93-.03h0Z"/>
  <path class="cls-6" d="M29.76,48.89c.6,0,1.09-.13,1.09-.29s-.49-.29-1.09-.29-1.09.13-1.09.29.49.29,1.09.29Z"/>
  <path d="M29.98,48.45c-.42.01-.84.01-1.24.01-.03,0-.06,0-.09.01v-.11c0-.71.51-1.29,1.14-1.29s1.14.57,1.14,1.29v.1c-.31-.01-.62-.04-.93-.03h0Z"/>
  <path d="M30.91,48.36c0-.71-.51-1.29-1.14-1.29-.32,0-.6.15-.81.39h0s-1.86-.01-1.86-.01c-.25-.24-.61-.4-1.03-.4h-2.16c-.43,0-.79.17-1.04.41h-1.82c-.21-.24-.49-.39-.81-.39-.62,0-1.14.58-1.14,1.29h-.02v.27h2.3v-.27h-.02c0-.16-.03-.31-.08-.45h1.31c-.02.08-.06.15-.06.24,0,.61.61,1.1,1.37,1.1h2.16c.76,0,1.37-.49,1.37-1.1,0-.09-.04-.17-.06-.25h1.34c-.05.14-.08.3-.08.46h0s-.03.01-.03.01v.28h2.3v-.19h0v-.1Z"/>
  <path d="M27.36,13.71V1.36C27.36.61,26.45,0,25.3,0h-.82C23.34,0,22.4.61,22.4,1.36v12.35c1.65-.09,3.31-.15,4.95-.01h.02Z"/>
  <path class="cls-5" d="M27.94,8.06l-.14-4.03c0-.29-.08-.56-.26-.83-.33-.47-1.06-1.05-2.68-1.04-1.62-.02-2.35.55-2.68,1.04-.19.26-.26.55-.26.83l-.14,4.03c0,.27,0,.55.05.82l.09.6h5.88l.09-.6c.05-.27.06-.55.05-.82Z"/>
  <path d="M33.65,11.24h-2.52v.3h2.52v-.3Z"/>
  <path class="cls-5" d="M18.97,36.02s-1.14.2-1.32-.84c0,0-.81-3.77.62-4.29,0,0,.56-.14.93,0l-.22,5.12h-.02Z"/>
  <path class="cls-5" d="M30.8,36.02s1.14.2,1.32-.84c0,0,.81-3.77-.62-4.29,0,0-.56-.14-.93,0l.22,5.12h.02Z"/>
  <path class="cls-5" d="M24.8,44.51c-1.17,0-2.29-.17-3.37-.51l-.11-.04c-.79-.78-.81-1.71-.84-2.79v-.45c-.05-1.28.54-5.65,1.43-8.08.68-1.88,5.1-1.85,5.79,0,.89,2.42,1.46,6.8,1.43,8.06,0,.33,0,.64.05.94.08.93.12,1.55-.82,2.29l-.06.03c-1.1.36-2.26.55-3.45.55h-.03Z"/>
  <path class="cls-3" d="M28.16,10.1h-6.59v.58h6.59v-.58Z"/>
  <path d="M30.8,32.36s-2.27-1.65-2.36-3.81c0,0-.09-1.36-3.61-1.28-3.51-.09-3.61,1.28-3.61,1.28-.09,2.15-2.36,3.81-2.36,3.81-1.21,1.19-.72,2.51-.72,2.51.25,1.31,2.02,1.97,3.67,2.31,1.96.4,4.06.4,6,0,1.65-.34,3.42-1,3.67-2.31,0,0,.51-1.32-.72-2.51h.03Z"/>
  <path d="M29.77,41.54c0-2.2-2.21-3.97-4.94-3.97s-4.94,1.78-4.94,3.97v.49c0,2.2,2.21,3.98,4.94,3.98s4.94-1.78,4.94-3.98v-.49Z"/>
  <path class="cls-3" d="M30.04,11.76h-.26v.68h.26v-.68Z"/>
  <path class="cls-3" d="M29.59,11.76h-.26v.68h.26v-.68Z"/>
  <path class="cls-3" d="M20.19,11.76h-.26v.68h.26v-.68Z"/>
  <path class="cls-3" d="M20.4,12.42h.26v-.67h-.26v.67Z"/>
  <path class="cls-6" d="M17.41,11.61c.65,0,1.18-.14,1.18-.31s-.53-.31-1.18-.31-1.18.14-1.18.31.53.31,1.18.31Z"/>
  <g>
    <path d="M32.62,11.44h-.02c-.45,0-.92-.01-1.37-.01-.03,0-.06,0-.09-.01v.11c0,.12.02.23.04.34h-1.67v.46h1.86c.23.37.6.61,1.02.61.68,0,1.24-.62,1.24-1.41v-.11c-.34.01-.67.04-1.01.03Z"/>
    <path d="M18.64,11.52v-.11s-.06.01-.09.01c-.45,0-.92.01-1.37.02h-.02c-.34,0-.67-.02-1.01-.04v.11c0,.79.56,1.41,1.24,1.41.42,0,.8-.24,1.02-.61h1.87v-.46h-1.69c.02-.11.04-.22.04-.34Z"/>
  </g>
  <path class="cls-2" d="M21.1,14.76l-.98-.03c-.17,0-.31-.1-.31-.21l.3-6.84c0-.11.16-.2.33-.2l.98.02c.17,0,.31.1.31.21l-.3,6.84c0,.11-.16.2-.33.2Z"/>
  <path class="cls-2" d="M28.69,14.76l.98-.03c.17,0,.31-.1.31-.21l-.3-6.84c0-.11-.16-.2-.33-.2l-.98.02c-.17,0-.31.1-.31.21l.3,6.84c0,.11.16.2.33.2Z"/>
  <path class="cls-4" d="M30.02,10.72h-1.79c.26-.35.45-.73.54-1.15.05-.19.06-.39.06-.59v-.26c-1.1.04-7.33.02-7.85.02-.11,0-.22,0-.33-.04v.27c0,.2.02.4.06.59.09.42.28.8.54,1.15h-1.47l-.11,3.33c0,.31.36.58.82.58h.25c.47,0,.84-.24.86-.54v-.34c.43.27.96.34.96.34h4.39s.82-.11,1.23-.57l.02.57c.02.3.39.54.86.54h.25c.47,0,.82-.26.82-.58l-.11-3.33ZM21.75,11.66s-.04.05-.06.08l.02-.53c.08.07.15.15.24.22-.13.13-.19.22-.19.22ZM27.78,11.66s-.07-.1-.21-.24c.2-.16.37-.34.53-.52l.04,1.25c-.09-.15-.2-.31-.36-.48Z"/>
  <path class="cls-2" d="M24.75,13.19c1.11,0,2.01-.59,2.01-1.32s-.9-1.33-2.01-1.33-2.01.59-2.01,1.33.9,1.32,2.01,1.32Z"/>
  <g>
    <path class="cls-1" d="M26.59,49.59c0,.22-.72.41-1.6.41s-1.6-.19-1.6-.41.72-.41,1.6-.41,1.6.19,1.6.41Z"/>
    <path class="cls-2" d="M26.65,49.6v-.16c0-1.05-.75-1.9-1.66-1.9s-1.66.85-1.66,1.9v.15c.45-.03,3.3,0,3.33.01Z"/>
  </g>
  <path class="cls-2" d="M26.48,18.14c.05-.1.08-.21.08-.33,0-.64-.78-1.15-1.73-1.15s-1.73.51-1.73,1.15c0,.11.03.23.08.33.03.05.05.1.09.15l.64,1.13c.12.25.48.42.87.42h.11c.4,0,.75-.17.87-.42l.64-1.13s.06-.1.09-.16h-.02Z"/>
  <path d="M16.13,11.55h2.52v-.3h-2.52v.3Z"/>
  <path d="M38.76,15.08c-.15,0-.28.12-.28.28v.02c-2.02.02-4.18-.84-4.18-.84v.02l-.64,1.29-.21-.04s-3.41-2.02-3.44-2.02c-.13-.08-.43-.04-.43-.04l-3.31.23c-.13-.18-.32-.31-.53-.31h-1.5c-.22,0-.41.12-.53.31l-3.31-.23v-.02c-.16-.05-.34,0-.48.09l-3.36,1.96-.19.06-.64-1.29v-.02s-2.16.85-4.18.84v-.02c0-.16-.13-.28-.28-.28s-.28.12-.28.28.13.28.28.28c.04,0,.08,0,.12-.03.52.06,2.22.22,3.76-.12l.29.42-.34.15c-.2.09-.3.33-.21.53l-2.6,1.18c-.08,0-.17,0-.25.03l-.23.11c-.23.11-.32.37-.21.61l.11.23c.11.22.39.33.63.22l.23-.11c.07-.04.13-.09.17-.15l2.61-1.17v.02c.12.2.37.29.59.2l.35-.16c.18-.08.27-.29.22-.47l.51-.4,3.42-1.81h9.15s3.41,1.84,3.41,1.84l.53.38c-.05.18.04.39.22.47l.35.16c.21.09.47,0,.58-.2v-.02s2.62,1.17,2.62,1.17c.04.06.1.12.17.15l.23.11c.24.11.52,0,.63-.22l.11-.23c.11-.23.01-.5-.21-.61l-.23-.11c-.08-.04-.16-.04-.25-.03l-2.6-1.18c.09-.2-.01-.43-.21-.53l-.34-.15.29-.42c1.54.34,3.24.19,3.76.12.04.03.08.03.12.03.15,0,.28-.12.28-.28s-.13-.28-.28-.28Z"/>
</svg>