<svg width="50" height="50" viewBox="0 0 50 50" fill="none" xmlns="http://www.w3.org/2000/svg">
<g clip-path="url(#clip0_5344_1723)">
<path d="M31 30.94C31 30.94 29.37 31.08 29.37 30.47C29.54 30.47 29.68 30.39 29.71 30.28C29.85 29.81 30.02 27.44 29.49 26.61H20.36C19.83 27.45 20 29.81 20.14 30.28C20.17 30.39 20.31 30.47 20.48 30.47C20.48 31.08 18.85 30.94 18.85 30.94H18.83V33.72H31.01V30.94H30.99H31Z" fill="#828282"/>
<path d="M34.29 42.96L33.92 31.38C33.92 31 33.6 30.67 33.14 30.48L32.58 22.65C32.18 23.68 31.62 24.66 31.04 25.5L31.4 30.43C30.87 30.6 30.5 30.96 30.5 31.38L30.67 43.12L31.87 44.23L32.05 47.62L33.6 47.58L33.55 44.09L34.3 42.95L34.29 42.96Z" fill="#828282"/>
<path d="M18.7 30.45L19.09 25.16C18.48 24.23 17.91 23.16 17.57 22.05L16.96 30.48C16.49 30.67 16.17 31 16.16 31.38L15.79 42.96L16.54 44.1L16.49 47.59L18.08 47.64L18.25 44.1L19.26 43.13L19.58 31.39C19.58 30.98 19.22 30.63 18.7 30.45Z" fill="#828282"/>
<path d="M27.92 14.76H22.43C13.39 17.26 18.4 24.75 20.72 27.27C21.26 27.86 22.17 28.26 23.19 28.35L25.18 28.32L27.17 28.35C28.2 28.26 29.1 27.86 29.64 27.27C31.96 24.75 36.97 17.26 27.93 14.76H27.91H27.92Z" fill="#EDB78D"/>
<path d="M32.43 11.61C33.08 11.61 33.61 11.47 33.61 11.3C33.61 11.13 33.08 10.99 32.43 10.99C31.78 10.99 31.25 11.13 31.25 11.3C31.25 11.47 31.78 11.61 32.43 11.61Z" fill="#F29D00"/>
<path d="M24.87 36.04C21.95 36.04 19.58 37.94 19.58 40.29V41.34C19.58 42.84 20.55 44.15 22.01 44.91C22.1 46.34 22.21 47.78 22.28 48.18C22.44 49.05 24.49 49.38 24.49 49.38H25.55C25.55 49.38 27.6 49.05 27.76 48.18C27.84 47.76 27.95 46.2 28.04 44.72C29.32 43.94 30.15 42.73 30.15 41.34V40.29C30.15 37.94 27.78 36.04 24.86 36.04H24.87Z" fill="#EDB78D"/>
<path d="M20.2799 48.89C20.8799 48.89 21.3699 48.76 21.3699 48.6C21.3699 48.44 20.8799 48.31 20.2799 48.31C19.6799 48.31 19.1899 48.44 19.1899 48.6C19.1899 48.76 19.6799 48.89 20.2799 48.89Z" fill="#F29D00"/>
<path d="M20.08 48.45C20.5 48.46 20.92 48.46 21.32 48.46C21.35 48.46 21.38 48.46 21.41 48.47V48.36C21.41 47.65 20.9 47.07 20.27 47.07C19.64 47.07 19.13 47.64 19.13 48.36V48.46C19.44 48.45 19.75 48.42 20.06 48.43L20.08 48.45Z" fill="black"/>
<path d="M29.8 48.89C30.4 48.89 30.89 48.76 30.89 48.6C30.89 48.44 30.4 48.31 29.8 48.31C29.2 48.31 28.71 48.44 28.71 48.6C28.71 48.76 29.2 48.89 29.8 48.89Z" fill="#F29D00"/>
<path d="M30.0199 48.45C29.5999 48.46 29.1799 48.46 28.7799 48.46C28.7499 48.46 28.7199 48.46 28.6899 48.47V48.36C28.6899 47.65 29.1999 47.07 29.8299 47.07C30.4599 47.07 30.9699 47.64 30.9699 48.36V48.46C30.6599 48.45 30.3499 48.42 30.0399 48.43L30.0199 48.45Z" fill="black"/>
<path d="M30.95 48.36C30.95 47.65 30.44 47.07 29.81 47.07C29.49 47.07 29.21 47.22 29 47.46L27.14 47.45C26.89 47.21 26.53 47.05 26.11 47.05H23.95C23.52 47.05 23.16 47.22 22.91 47.46H21.09C20.88 47.22 20.6 47.07 20.28 47.07C19.66 47.07 19.14 47.65 19.14 48.36H19.12V48.63H21.42V48.36H21.4C21.4 48.2 21.37 48.05 21.32 47.91H22.63C22.61 47.99 22.57 48.06 22.57 48.15C22.57 48.76 23.18 49.25 23.94 49.25H26.1C26.86 49.25 27.47 48.76 27.47 48.15C27.47 48.06 27.43 47.98 27.41 47.9H28.75C28.7 48.04 28.67 48.2 28.67 48.36L28.64 48.37V48.65H30.94V48.46V48.36H30.95Z" fill="black"/>
<path d="M27.3999 13.71V1.36C27.3999 0.61 26.4799 0 25.3299 0H24.5099C23.3699 0 22.4399 0.61 22.4399 1.36V13.71C24.0899 13.62 25.7499 13.56 27.3899 13.7H27.4099L27.3999 13.71Z" fill="black"/>
<path d="M27.9799 8.06L27.8399 4.03C27.8399 3.74 27.7599 3.47 27.5799 3.2C27.2499 2.73 26.5199 2.15 24.8999 2.16C23.2799 2.14 22.5499 2.71 22.2199 3.2C22.0299 3.46 21.9599 3.75 21.9599 4.03L21.8199 8.06C21.8199 8.33 21.8199 8.61 21.8699 8.88L21.9599 9.48H27.8399L27.9299 8.88C27.9799 8.61 27.9899 8.33 27.9799 8.06Z" fill="#EFBF99"/>
<path d="M33.69 11.24H31.17V11.54H33.69V11.24Z" fill="black"/>
<path d="M19.0001 36.02C19.0001 36.02 17.8601 36.22 17.6801 35.18C17.6801 35.18 16.8701 31.41 18.3001 30.89C18.3001 30.89 18.8601 30.75 19.2301 30.89L19.0101 36.01H18.9901L19.0001 36.02Z" fill="#EFBF99"/>
<path d="M30.84 36.02C30.84 36.02 31.98 36.22 32.16 35.18C32.16 35.18 32.97 31.41 31.54 30.89C31.54 30.89 30.98 30.75 30.61 30.89L30.83 36.01H30.85L30.84 36.02Z" fill="#EFBF99"/>
<path d="M24.84 44.51C23.67 44.51 22.55 44.34 21.47 44L21.36 43.96C20.57 43.18 20.55 42.25 20.52 41.17V40.72C20.47 39.44 21.06 35.07 21.95 32.64C22.63 30.76 27.05 30.79 27.74 32.64C28.63 35.06 29.2 39.44 29.17 40.7C29.17 41.03 29.17 41.34 29.22 41.64C29.3 42.57 29.34 43.19 28.4 43.93L28.34 43.96C27.24 44.32 26.08 44.51 24.89 44.51H24.86H24.84Z" fill="#EFBF99"/>
<path d="M28.2 10.1H21.61V10.68H28.2V10.1Z" fill="#283242"/>
<path d="M30.84 32.36C30.84 32.36 28.57 30.71 28.48 28.55C28.48 28.55 28.39 27.19 24.87 27.27C21.36 27.18 21.26 28.55 21.26 28.55C21.17 30.7 18.9 32.36 18.9 32.36C17.69 33.55 18.18 34.87 18.18 34.87C18.43 36.18 20.2 36.84 21.85 37.18C23.81 37.58 25.91 37.58 27.85 37.18C29.5 36.84 31.27 36.18 31.52 34.87C31.52 34.87 32.03 33.55 30.8 32.36H30.83H30.84Z" fill="#7F6669"/>
<path d="M29.8101 41.54C29.8101 39.34 27.6001 37.57 24.8701 37.57C22.1401 37.57 19.9301 39.35 19.9301 41.54V42.03C19.9301 44.23 22.1401 46.01 24.8701 46.01C27.6001 46.01 29.8101 44.23 29.8101 42.03V41.54Z" fill="#7F6669"/>
<path d="M30.0799 11.76H29.8199V12.44H30.0799V11.76Z" fill="#283242"/>
<path d="M29.63 11.76H29.37V12.44H29.63V11.76Z" fill="#283242"/>
<path d="M20.23 11.76H19.97V12.44H20.23V11.76Z" fill="#283242"/>
<path d="M20.4301 12.42H20.6901V11.75H20.4301V12.42Z" fill="#283242"/>
<path d="M17.45 11.61C18.1 11.61 18.63 11.47 18.63 11.3C18.63 11.13 18.1 10.99 17.45 10.99C16.8 10.99 16.27 11.13 16.27 11.3C16.27 11.47 16.8 11.61 17.45 11.61Z" fill="#F29D00"/>
<path d="M32.6599 11.44H32.6399C32.1899 11.44 31.7199 11.43 31.2699 11.43C31.2399 11.43 31.2099 11.43 31.1799 11.42V11.53C31.1799 11.65 31.1999 11.76 31.2199 11.87H29.5499V12.33H31.4099C31.6399 12.7 32.0099 12.94 32.4299 12.94C33.1099 12.94 33.6699 12.32 33.6699 11.53V11.42C33.3299 11.43 32.9999 11.46 32.6599 11.45V11.44Z" fill="black"/>
<path d="M18.6799 11.52V11.41C18.6799 11.41 18.6199 11.42 18.5899 11.42C18.1399 11.42 17.6699 11.43 17.2199 11.44H17.1999C16.8599 11.44 16.5299 11.42 16.1899 11.4V11.51C16.1899 12.3 16.7499 12.92 17.4299 12.92C17.8499 12.92 18.2299 12.68 18.4499 12.31H20.3199V11.85H18.6299C18.6499 11.74 18.6699 11.63 18.6699 11.51L18.6799 11.52Z" fill="black"/>
<path d="M21.13 14.76L20.15 14.73C19.98 14.73 19.84 14.63 19.84 14.52L20.14 7.67998C20.14 7.56998 20.3 7.47998 20.47 7.47998L21.45 7.49998C21.62 7.49998 21.76 7.59998 21.76 7.70998L21.46 14.55C21.46 14.66 21.3 14.75 21.13 14.75V14.76Z" fill="#828282"/>
<path d="M28.72 14.76L29.7 14.73C29.87 14.73 30.01 14.63 30.01 14.52L29.71 7.67998C29.71 7.56998 29.55 7.47998 29.38 7.47998L28.4 7.49998C28.23 7.49998 28.09 7.59998 28.09 7.70998L28.39 14.55C28.39 14.66 28.55 14.75 28.72 14.75V14.76Z" fill="#828282"/>
<path d="M30.06 10.72H28.27C28.53 10.37 28.72 9.99001 28.81 9.57001C28.86 9.38001 28.87 9.18001 28.87 8.98001V8.72001C27.77 8.76001 21.54 8.74001 21.02 8.74001C20.91 8.74001 20.8 8.74001 20.69 8.70001V8.97001C20.69 9.17001 20.71 9.37001 20.75 9.56001C20.84 9.98001 21.03 10.36 21.29 10.71H19.82L19.71 14.04C19.71 14.35 20.07 14.62 20.53 14.62H20.78C21.25 14.62 21.62 14.38 21.64 14.08V13.74C22.07 14.01 22.6 14.08 22.6 14.08H26.99C26.99 14.08 27.81 13.97 28.22 13.51L28.24 14.08C28.26 14.38 28.63 14.62 29.1 14.62H29.35C29.82 14.62 30.17 14.36 30.17 14.04L30.06 10.71V10.72ZM21.79 11.66C21.79 11.66 21.75 11.71 21.73 11.74L21.75 11.21C21.83 11.28 21.9 11.36 21.99 11.43C21.86 11.56 21.8 11.65 21.8 11.65L21.79 11.66ZM27.82 11.66C27.82 11.66 27.75 11.56 27.61 11.42C27.81 11.26 27.98 11.08 28.14 10.9L28.18 12.15C28.09 12 27.98 11.84 27.82 11.67V11.66Z" fill="#EDB78D"/>
<path d="M24.79 13.19C25.9 13.19 26.8 12.6 26.8 11.87C26.8 11.14 25.9 10.54 24.79 10.54C23.68 10.54 22.78 11.13 22.78 11.87C22.78 12.61 23.68 13.19 24.79 13.19Z" fill="#828282"/>
<path d="M26.6301 49.59C26.6301 49.81 25.9101 50 25.0301 50C24.1501 50 23.4301 49.81 23.4301 49.59C23.4301 49.37 24.1501 49.18 25.0301 49.18C25.9101 49.18 26.6301 49.37 26.6301 49.59Z" fill="#F21C00"/>
<path d="M26.69 49.6V49.44C26.69 48.39 25.94 47.54 25.03 47.54C24.12 47.54 23.37 48.39 23.37 49.44V49.59C23.82 49.56 26.67 49.59 26.7 49.6H26.69Z" fill="#828282"/>
<path d="M26.52 18.14C26.57 18.04 26.6 17.93 26.6 17.81C26.6 17.17 25.82 16.66 24.87 16.66C23.92 16.66 23.14 17.17 23.14 17.81C23.14 17.92 23.17 18.04 23.22 18.14C23.25 18.19 23.27 18.24 23.31 18.29L23.95 19.42C24.07 19.67 24.43 19.84 24.82 19.84H24.93C25.33 19.84 25.68 19.67 25.8 19.42L26.44 18.29C26.44 18.29 26.5 18.19 26.53 18.13H26.51L26.52 18.14Z" fill="#828282"/>
<path d="M16.17 11.55H18.69V11.25H16.17V11.55Z" fill="black"/>
<path d="M38.79 15.08C38.64 15.08 38.51 15.2 38.51 15.36V15.38C36.49 15.4 34.33 14.54 34.33 14.54V14.56L33.69 15.85L33.48 15.81C33.48 15.81 30.07 13.79 30.04 13.79C29.91 13.71 29.61 13.75 29.61 13.75L26.3 13.98C26.17 13.8 25.98 13.67 25.77 13.67H24.27C24.05 13.67 23.86 13.79 23.74 13.98L20.43 13.75V13.73C20.27 13.68 20.09 13.73 19.95 13.82L16.59 15.78L16.4 15.84L15.76 14.55V14.53C15.76 14.53 13.6 15.38 11.58 15.37V15.35C11.58 15.19 11.45 15.07 11.3 15.07C11.15 15.07 11.02 15.19 11.02 15.35C11.02 15.51 11.15 15.63 11.3 15.63C11.34 15.63 11.38 15.63 11.42 15.6C11.94 15.66 13.64 15.82 15.18 15.48L15.47 15.9L15.13 16.05C14.93 16.14 14.83 16.38 14.92 16.58L12.32 17.76C12.24 17.76 12.15 17.76 12.07 17.79L11.84 17.9C11.61 18.01 11.52 18.27 11.63 18.51L11.74 18.74C11.85 18.96 12.13 19.07 12.37 18.96L12.6 18.85C12.67 18.81 12.73 18.76 12.77 18.7L15.38 17.53V17.55C15.5 17.75 15.75 17.84 15.97 17.75L16.32 17.59C16.5 17.51 16.59 17.3 16.54 17.12L17.05 16.72L20.47 14.91H29.62L33.03 16.75L33.56 17.13C33.51 17.31 33.6 17.52 33.78 17.6L34.13 17.76C34.34 17.85 34.6 17.76 34.71 17.56V17.54L37.33 18.71C37.37 18.77 37.43 18.83 37.5 18.86L37.73 18.97C37.97 19.08 38.25 18.97 38.36 18.75L38.47 18.52C38.58 18.29 38.48 18.02 38.26 17.91L38.03 17.8C37.95 17.76 37.87 17.76 37.78 17.77L35.18 16.59C35.27 16.39 35.17 16.16 34.97 16.06L34.63 15.91L34.92 15.49C36.46 15.83 38.16 15.68 38.68 15.61C38.72 15.64 38.76 15.64 38.8 15.64C38.95 15.64 39.08 15.52 39.08 15.36C39.08 15.2 38.95 15.08 38.8 15.08H38.79Z" fill="black"/>
</g>
<defs>
<clipPath id="clip0_5344_1723">
<rect width="28.08" height="50" fill="white" transform="translate(11)"/>
</clipPath>
</defs>
</svg>
