<?xml version="1.0" encoding="UTF-8"?>
<svg xmlns="http://www.w3.org/2000/svg" xmlns:xlink="http://www.w3.org/1999/xlink" viewBox="0 0 50 50">
  <defs>
    <style>
      .cls-1 {
        fill: none;
      }

      .cls-2 {
        fill: #feb202;
      }

      .cls-3 {
        fill: url(#linear-gradient-3);
      }

      .cls-4 {
        fill: url(#linear-gradient-2);
      }

      .cls-5 {
        fill: url(#linear-gradient);
      }

      .cls-6 {
        fill: #d88e0b;
      }

      .cls-7, .cls-8, .cls-9 {
        isolation: isolate;
      }

      .cls-8 {
        fill: url(#linear-gradient-5);
      }

      .cls-8, .cls-9 {
        mix-blend-mode: multiply;
      }

      .cls-9 {
        fill: url(#linear-gradient-4);
      }

      .cls-10 {
        fill: #be1e2d;
      }
    </style>
    <linearGradient id="linear-gradient" x1="20.04" y1="50.79" x2="29.99" y2="50.79" gradientTransform="translate(0 52) scale(1 -1)" gradientUnits="userSpaceOnUse">
      <stop offset="0" stop-color="#000"/>
      <stop offset="1" stop-color="#1b1c1c"/>
    </linearGradient>
    <linearGradient id="linear-gradient-2" x1="17.24" y1="36.1" x2="32.76" y2="36.1" xlink:href="#linear-gradient"/>
    <linearGradient id="linear-gradient-3" x1="16.01" y1="41.57" x2="34" y2="41.57" xlink:href="#linear-gradient"/>
    <linearGradient id="linear-gradient-4" x1="32.18" y1="19.72" x2="32.64" y2="19.72" gradientTransform="translate(0 52) scale(1 -1)" gradientUnits="userSpaceOnUse">
      <stop offset="0" stop-color="#f7f7f7"/>
      <stop offset=".28" stop-color="#fff"/>
      <stop offset="1" stop-color="#000"/>
    </linearGradient>
    <linearGradient id="linear-gradient-5" x1="17.39" y1="19.72" x2="17.85" y2="19.72" gradientTransform="translate(0 52) scale(1 -1)" gradientUnits="userSpaceOnUse">
      <stop offset="0" stop-color="#7a7a7a"/>
      <stop offset=".72" stop-color="#fff"/>
      <stop offset="1" stop-color="#f7f7f7"/>
    </linearGradient>
  </defs>
  <g class="cls-7">
    <g id="Layer_1" data-name="Layer 1">
      <g>
        <rect class="cls-1" x="11.71" y="-.03" width="26.58" height="50"/>
        <path class="cls-5" d="M20.04.53v1.91h9.95V.53c-3.03-.75-6.93-.75-9.95,0Z"/>
        <path class="cls-10" d="M33.85,49.81c0,.09-.24.16-.52.16h-2.31c-.29,0-.51-.08-.51-.16v-.52c0-.09.22-.16.51-.16h2.31c.29,0,.52.08.52.16v.52Z"/>
        <path class="cls-10" d="M19.29,49.81c0,.09-.24.16-.51.16h-2.31c-.29,0-.51-.08-.51-.16v-.52c0-.09.22-.16.51-.16h2.31c.29,0,.51.08.51.16v.52Z"/>
        <path class="cls-6" d="M35.84,22.12c-.02-2.15.14-11.99-.54-17.54-.25-2.1-.68-1.85-1.4-2.71-.3.06-.21.54-.49.35l-2.34-1.28c-.34.09-.71.14-1.11.15v1.06h-9.95v-.68c-.4-.14-.83-.21-1.15-.45l-2.29,1.18c-.26.19-.2-.28-.5-.34-.71.88-1.12.6-1.37,2.7-.66,5.56-.5,15.39-.54,17.54,0,.44.34,3.14.33,6.68-.04,7.81,0,19.7.65,20.33,1.15,1.12,18.56,1.12,19.71,0,.65-.62.69-12.53.65-20.34-.01-3.53.33-6.23.33-6.68v.02Z"/>
        <path class="cls-2" d="M15.09,21.79c0,.49.65,3.33.54,7.01-.24,7.86-.5,19.54.18,20.19,1.2,1.16,17.65.96,18.45,0,.6-.73.36-12.35.15-20.19-.1-3.68.56-6.52.55-7-.02-2.06.71-11.55.09-16.89-.41-3.48-1.03-3.03-3.28-3.83C28.41-.08,21.7-.2,18.27,1.1c-2.44.93-2.86.34-3.27,3.83-.62,5.34.11,14.81.09,16.89h0Z"/>
        <path class="cls-4" d="M20.79,15.36c-1.79.17-3.08.52-3.55.66l.14.56s1.4-.5,3.59-.72c1.89-.2,6.19-.2,8.08,0,2.19.23,3.59.72,3.59.72l.14-.56c-.48-.14-1.76-.49-3.55-.66-1.97-.2-6.46-.2-8.44,0h.01Z"/>
        <path class="cls-3" d="M16.69,11.17c.7-.21,1.9-.56,3.8-.85,2.71-.41,6.32-.41,9.04,0,1.9.29,3.1.64,3.8.85.3.09.5.18.6.25,0,0,.13-.43.05-.53-.07-.1-.27-.19-.65-.3-.7-.21-1.9-.56-3.8-.85-2.71-.41-6.32-.41-9.04,0-1.89.29-3.1.64-3.8.85-.36.11-.57.2-.65.3-.09.11.05.51.05.51.1-.06.29-.14.6-.23h0Z"/>
        <path d="M20.79,15.36c1.97-.2,6.46-.2,8.44,0,1.79.17,3.07.52,3.55.66l1.15-4.6c-.1-.08-.29-.15-.6-.25-.7-.21-1.9-.56-3.8-.85-2.71-.41-6.32-.41-9.04,0-1.89.29-3.1.64-3.8.85-.3.09-.5.17-.6.25l1.15,4.6c.48-.14,1.76-.49,3.55-.66Z"/>
        <path d="M15.76,22.64c0,1.51.19,2.55.25,3.08l1.06.46h.09l-.26-6.5-1.44-7.74s-.12,1.99,0,4.82c.08,1.8.3,4.28.3,5.87Z"/>
        <path d="M32.95,26.18l1.19-.46c.04-.5.14-1.55.13-3.08,0-1.6.22-4.07.3-5.87.12-2.85,0-4.82,0-4.82l-1.44,7.74-.26,6.5h.09Z"/>
        <path d="M34.51,12.35s1.06.2,1.09,1.07c.02.87-1.06,2.64-1.09,1.52-.03-1.12-.1-2.26,0-2.6Z"/>
        <path d="M38.19,14.26c-.24-.3-2.36-.94-2.36-.94-.43-.14-.56.22-.61.53l3.05.9c.04-.14.05-.32-.08-.49Z"/>
        <path class="cls-2" d="M35.21,13.85c-.04.2-.02.37-.02.37l3,.72s.05-.09.07-.2l-3.05-.9Z"/>
        <path d="M35.39,20.01c.13,0,.23.1.23.22v1.84c0,.13-.1.23-.23.23v-2.27h0Z"/>
        <path d="M14.58,20.01c-.13,0-.23.1-.23.22v1.84c0,.13.1.23.23.23v-2.27h0Z"/>
        <path class="cls-9" d="M32.64,16.41h-.46v31.74h.46v-31.74Z"/>
        <path class="cls-8" d="M17.85,16.41h-.46v31.74h.46v-31.74Z"/>
        <path class="cls-2" d="M17.63,26.01h14.79v-8.59s-1.81-1.23-7.4-1.2c-5.55-.03-7.4,1.2-7.4,1.2v10.09-1.5h.01Z"/>
        <path class="cls-6" d="M30.04,30.47c0-.15.11-.26.26-.26s.26.13.26.26v13.44c0,.15-.11.26-.26.26s-.26-.11-.26-.26v-13.44Z"/>
        <path class="cls-6" d="M28.98,30.47c0-.15.11-.26.26-.26s.26.13.26.26v13.44c0,.15-.11.26-.26.26s-.26-.11-.26-.26v-13.44Z"/>
        <path class="cls-6" d="M27.91,30.47c0-.15.11-.26.26-.26s.26.13.26.26v13.44c0,.15-.11.26-.26.26s-.26-.11-.26-.26v-13.44Z"/>
        <path class="cls-6" d="M21.54,30.47c0-.15.11-.26.26-.26s.26.13.26.26v13.44c0,.15-.11.26-.26.26s-.26-.11-.26-.26v-13.44Z"/>
        <path class="cls-6" d="M20.47,30.47c0-.15.11-.26.26-.26s.26.13.26.26v13.44c0,.15-.11.26-.26.26s-.26-.11-.26-.26v-13.44Z"/>
        <path class="cls-6" d="M19.41,30.47c0-.15.11-.26.26-.26s.26.13.26.26v13.44c0,.15-.11.26-.26.26s-.26-.11-.26-.26v-13.44Z"/>
        <g>
          <path d="M15.5,12.32s-1.06.2-1.09,1.07c-.02.87,1.06,2.64,1.09,1.53.03-1.12.1-2.26,0-2.6Z"/>
          <path d="M11.81,14.23c.24-.3,2.36-.94,2.36-.94.43-.14.56.23.61.53l-3.05.9c-.04-.14-.05-.33.08-.49Z"/>
          <path class="cls-2" d="M14.79,13.82c.04.2.02.38.02.38l-3,.71s-.05-.09-.07-.2l3.05-.9h0Z"/>
        </g>
        <rect class="cls-1" x="16.25" y="47.63" width="17.5" height="2.5"/>
        <path class="cls-6" d="M31.75,1.09c-.29-.1-.61-.19-.95-.28.03.09,1.48,4.26,4.12,3.44-.41-2.76-1.09-2.43-3.19-3.16h.01Z"/>
        <path d="M34.25,3.98c-1.39,0-2.36-1.65-2.8-2.61.06.02.12.04.19.06.36.13.69.23.96.31,1.24.38,1.63.49,1.93,2.23-.09.01-.19.02-.27.02h0Z"/>
        <path class="cls-6" d="M18.2,1.09c.29-.1.61-.19.95-.28-.02.09-1.47,4.26-4.13,3.44.41-2.76,1.09-2.43,3.19-3.16h-.01Z"/>
        <path d="M15.71,3.98c1.39,0,2.36-1.65,2.8-2.61-.06.02-.12.04-.19.06-.36.13-.69.23-.96.31-1.24.38-1.63.49-1.93,2.23.09.01.19.02.28.02h0Z"/>
      </g>
    </g>
  </g>
</svg>