<?xml version="1.0" encoding="UTF-8"?>
<svg id="Layer_1" data-name="Layer 1" xmlns="http://www.w3.org/2000/svg" viewBox="0 0 50 50" width="50" height="50">
  <defs>
    <style>
      .cls-1 {
        fill: #feb202;
      }

      .cls-2 {
        fill: #d88e0b;
      }
    </style>
  </defs>
  <g>
    <g>
      <path class="cls-1" d="M35.66,1.79c-.05.46-.27.81-.62.93-.72.21-1.73-.55-2.28-1.7,0-.04-.03-.08-.05-.11-1.67-.43-4.29-.9-7.43-.9s-5.99.48-7.82.9c0,.04-.03.06-.05.1-.55,1.15-1.56,1.91-2.28,1.7-.39-.11-.61-.51-.64-1.04-.3.16-.5.43-.5.73v45.6c0,1.79,3.5,2.01,3.5,2.01h15.49s3.01-.4,3.01-2.01V2.4c0-.24-.12-.45-.34-.61Z"/>
      <path d="M15.14,2.71c.72.21,1.73-.55,2.28-1.7.02-.04.03-.06.05-.1-1.36.31-2.18.59-2.18.59-.3,0-.55.08-.78.19.03.51.25.91.64,1.04h0Z"/>
      <path d="M35.03,2.71c.36-.11.58-.46.62-.93-.23-.19-.56-.31-.95-.31,0,0-.73-.28-2-.59.02.04.03.08.05.11.55,1.15,1.56,1.91,2.28,1.7h0Z"/>
    </g>
    <path d="M16.7,10.16c.29-3.43-1.9-6-1.9-6v6.05s.45,0,1.9-.06h0Z"/>
    <path d="M16.65,17.17h-1.91v5.11h1.91v-5.11Z"/>
    <path d="M16.65,22.72h-1.91v5.72h1.91v-5.72Z"/>
    <path d="M14.74,42.99v4.71l1.91-.74v-3.98h-1.91Z"/>
    <path d="M16.65,10.94h-1.91v5.72h1.91v-5.72Z"/>
    <path d="M33.13,10.15c-.27-3.43,1.91-6,1.91-6v6.05s-.45,0-1.91-.06h0Z"/>
    <path d="M35.1,17.17h-1.91v5.11h1.91v-5.11Z"/>
    <path d="M35.1,22.72h-1.91v5.72h1.91v-5.72Z"/>
    <path d="M16.65,28.9h-1.91v5.72h1.91v-5.72Z"/>
    <path d="M35.1,28.9h-1.91v5.72h1.91v-5.72Z"/>
    <path d="M16.65,35.07h-1.91v7.46h1.91v-7.46Z"/>
    <path d="M35.1,35.07h-1.91v7.46h1.91v-7.46Z"/>
    <path d="M35.1,42.99v4.71l-1.91-.74v-3.98h1.91Z"/>
    <path d="M35.1,10.94h-1.91v5.72h1.91v-5.72Z"/>
    <path d="M15.41,3.65l1.74,3.54,15.73.11,1.2-3.76s-2.93-.79-9.04-.9c-6.11-.11-9.63,1.01-9.63,1.01Z"/>
    <path d="M15.35,48.31c.56-.44,1.55-1.15,1.55-1.15l16.08-.03s.56.55,1.02,1.09c.79,1.32-18.67,1.64-18.65.09Z"/>
    <path class="cls-2" d="M31.97,8.8c0-.15.11-.26.26-.26s.26.12.26.26v37.21c0,.15-.11.26-.26.26s-.26-.11-.26-.26V8.8Z"/>
    <path class="cls-2" d="M30.9,8.8c0-.15.11-.26.26-.26s.26.12.26.26v37.21c0,.15-.11.26-.26.26s-.26-.11-.26-.26V8.8Z"/>
    <path class="cls-2" d="M29.84,8.8c0-.15.11-.26.26-.26s.26.12.26.26v37.21c0,.15-.11.26-.26.26s-.26-.11-.26-.26V8.8Z"/>
    <path class="cls-2" d="M19.46,8.8c0-.15.11-.26.26-.26s.26.12.26.26v37.21c0,.15-.11.26-.26.26s-.26-.11-.26-.26V8.8Z"/>
    <path class="cls-2" d="M18.4,8.8c0-.15.11-.26.26-.26s.26.12.26.26v37.21c0,.15-.11.26-.26.26s-.26-.11-.26-.26V8.8Z"/>
    <path class="cls-2" d="M17.35,8.8c0-.15.11-.26.26-.26s.26.12.26.26v37.21c0,.15-.11.26-.26.26s-.26-.11-.26-.26V8.8Z"/>
  </g>
  <g>
    <g>
      <path d="M15.71,3.92s-.96-.67-.98.19c-.02.86,1.78,1.68,1.8.58.02-1.1-.72-.44-.82-.77Z"/>
      <path d="M12.18,4.93c.23-.29,2.32-.92,2.32-.92.42-.13.55.22.6.52l-2.99.88c-.04-.13-.05-.32.07-.48Z"/>
      <path class="cls-1" d="M15.1,4.52c.04.2.02.37.02.37l-2.94.7s-.05-.09-.07-.2l2.99-.88h0Z"/>
    </g>
    <g>
      <path d="M33.12,4.69c.02,1.09,1.83.27,1.8-.58-.02-.86-.98-.19-.98-.19-.1.33-.85-.33-.82.77Z"/>
      <path d="M37.55,5.4l-2.99-.88c.05-.29.18-.65.6-.52,0,0,2.09.63,2.32.92.12.16.11.34.07.48Z"/>
      <path class="cls-1" d="M34.56,4.51l2.99.88c-.02.11-.07.2-.07.2l-2.94-.7s-.01-.17.02-.37h0Z"/>
    </g>
  </g>
</svg>