<?xml version="1.0" encoding="UTF-8"?>
<svg id="Layer_1" data-name="Layer 1" xmlns="http://www.w3.org/2000/svg" viewBox="0 0 50 50">
  <defs>
    <style>
      .cls-1 {
        fill: #543a22;
      }

      .cls-2 {
        fill: #feb202;
      }

      .cls-3 {
        fill: #e95433;
      }

      .cls-4 {
        fill: #400900;
      }

      .cls-5 {
        fill: #7c140a;
      }

      .cls-6 {
        fill: #313030;
      }

      .cls-7 {
        fill: #d88e0b;
      }

      .cls-8 {
        fill: #0c2518;
      }

      .cls-9 {
        fill: #626362;
      }

      .cls-10 {
        fill: #878888;
      }

      .cls-11 {
        fill: #fffce6;
      }

      .cls-12 {
        fill: #aeaeae;
      }

      .cls-13 {
        fill: #797a79;
      }

      .cls-14 {
        fill: #a7170d;
      }
    </style>
  </defs>
  <path class="cls-1" d="M20.38,34.02c-.58,0-1.04-.54-1.04-1.19V13.14c0-.65.46-1.19,1.04-1.19h9.25c.58,0,1.04.54,1.04,1.19v19.7c0,.65-.46,1.19-1.04,1.19h-9.25Z"/>
  <path class="cls-7" d="M21.68,11.95h-.68v22.07h.68V11.95Z"/>
  <path class="cls-7" d="M20.22,34.01s.1.01.16.01h.44V11.95h-.44s-.11,0-.16.01v22.05Z"/>
  <path class="cls-7" d="M20.02,12.02c-.4.16-.69.6-.69,1.11v19.7c0,.51.29.95.69,1.11V12.02Z"/>
  <path class="cls-7" d="M28.82,11.95h-.55v22.07h.55V11.95Z"/>
  <path class="cls-7" d="M29.49,11.95h-.48v22.07h.48V11.95Z"/>
  <path class="cls-7" d="M29.69,34.02c.55-.04.98-.55.98-1.19V13.14c0-.64-.44-1.15-.98-1.19v22.07Z"/>
  <path class="cls-7" d="M22.72,34.02c-.29,0-.51-.54-.51-1.19V13.14c0-.65.23-1.19.51-1.19h4.56c.29,0,.51.54.51,1.19v19.7c0,.65-.23,1.19-.51,1.19h-4.56Z"/>
  <path d="M25.08,0h-.15c-.66,0-1.19.53-1.19,1.19v5.64c0,.66.53,1.19,1.19,1.19h.15c.66,0,1.19-.53,1.19-1.19V1.19c0-.66-.53-1.19-1.19-1.19Z"/>
  <path class="cls-2" d="M28.09,12.11v-4.15c-.05-4.39-1.56-5.84-2.09-5.84h-2.01c-.53,0-2.15,1.56-2.06,5.21v4.78h6.18-.01Z"/>
  <path class="cls-7" d="M32.34,14.9s-.9-8.19-5.94-9.48c0,0-8.24-2.29-8.76,9.48h14.7Z"/>
  <path class="cls-2" d="M32.34,14.9s-1.61-4.49-5.94-5.27c0,0-8.24-1.27-8.76,5.27h14.7Z"/>
  <path class="cls-4" d="M29.13,13.44s-.72-2.05-2.62-2.46c-1.9-.41-4.93.11-5.86,2.59l8.49-.13Z"/>
  <path class="cls-5" d="M28.49,11.75c-.24,0-.44.2-.44.44v1.19c0,.24.2.44.44.44s.44-.2.44-.44v-1.19c0-.24-.2-.44-.44-.44Z"/>
  <path class="cls-3" d="M29.53,11.76s-.32-1.51-1.32-1.24c-.53.15-1,1.78-.7,2.31.13.22,1.42.26,1.89.05.24-.11.25-.7.15-1.13h-.01Z"/>
  <path class="cls-1" d="M29.38,12.89c.17-.08.23-.4.21-.74h-2.17c-.03.28,0,.53.07.68.13.22,1.42.26,1.89.05h0Z"/>
  <path class="cls-5" d="M21.51,11.75c-.24,0-.44.2-.44.44v1.19c0,.24.2.44.44.44s.44-.2.44-.44v-1.19c0-.24-.2-.44-.44-.44Z"/>
  <path class="cls-3" d="M22.54,11.76s-.33-1.51-1.33-1.24c-.53.15-1,1.78-.7,2.31.13.22,1.42.26,1.89.05.24-.11.25-.7.15-1.13h-.01Z"/>
  <path class="cls-1" d="M22.39,12.89c.17-.08.23-.4.21-.74h-2.17c-.03.28,0,.53.07.68.13.22,1.42.26,1.89.05h0Z"/>
  <path class="cls-7" d="M24.83,13.17c-.54,0-1.34-.4-1.51-1.03l-.3-2.55c0-.56.44-1.02.96-1.02h2.02c.54,0,.96.45.96,1.02l-.3,2.55c0,.56-.92,1.03-1.45,1.03h-.39Z"/>
  <path class="cls-11" d="M26.94,9.92l.04-.33c0-.56-.44-1.02-.96-1.02h-2.02c-.54,0-.96.45-.96,1.02l.04.33h3.87Z"/>
  <path class="cls-10" d="M26.94,9.92l.04-.33v-.09h-3.95v.09l.04.33h3.87Z"/>
  <path class="cls-2" d="M25.12,16.2l.16-3.83s-1.29-.05-2.86.44c-1.22.38-2.56,1.19-4.01,1.94l.5.56s2.41-.66,2.93-.2,2.33,1.25,3.29,1.09Z"/>
  <path class="cls-10" d="M16.08,12.8c.97-.12,1.74-.46,1.7-.75-.03-.29-.84-.43-1.81-.3-.96.13-1.73.46-1.7.75.03.29.84.42,1.81.3Z"/>
  <path class="cls-9" d="M16.08,12.8c-.97.13-1.79,0-1.81-.3v-.06c.19.22.91.31,1.76.2.9-.11,1.63-.41,1.7-.69.02.02.04.06.05.1.02.29-.73.62-1.7.75Z"/>
  <path class="cls-13" d="M15.98,11.74c0-.08.03-.13.08-.16.09-.08.25-.06.32-.05h.03s.14.01.64.07c.9.1,2.59.3,2.77.3.3,0,.34.2.35.21l.71,2.88-.09.03-.72-2.88s-.03-.15-.26-.15c-.2,0-1.81-.19-2.79-.3-.34-.04-.61-.08-.64-.08h-.04c-.06,0-.19-.02-.25.04-.03.03-.04.05-.04.1h-.09.01Z"/>
  <path class="cls-6" d="M15.81,16.28c-.11.04-.22-.03-.25-.13l-.14-.49c-.03-.1.04-.21.15-.24l3.15-.9c.11-.04.22.03.25.13l.14.49c.03.1-.04.21-.15.25l-3.15.9h0Z"/>
  <path class="cls-8" d="M19.16,15.5s-.11,0-.13-.04l-.31-1.09s.03-.08.09-.1c0,0,.11,0,.12.04l.31,1.09s-.02.08-.09.1Z"/>
  <path class="cls-2" d="M24.99,16.2l.27-3.83s.95-.07,2.25.35c1.14.37,2.53,1.21,4.06,2.02l-.5.56s-2.41-.66-2.93-.2-2.21,1.25-3.17,1.09h.01Z"/>
  <path class="cls-10" d="M33.92,12.8c-.98-.12-1.74-.46-1.7-.75.03-.29.84-.43,1.81-.3.97.13,1.74.46,1.7.75-.03.29-.84.42-1.81.3Z"/>
  <path class="cls-9" d="M33.92,12.8c.98.13,1.79,0,1.81-.3v-.06c-.19.22-.91.31-1.76.2-.9-.11-1.63-.41-1.7-.69-.03.02-.04.06-.05.1-.03.29.72.62,1.7.75Z"/>
  <path class="cls-13" d="M28.88,14.99l.95-2.87s.04-.2.34-.2c.19,0,1.88-.2,2.77-.3.5-.06.62-.08.64-.08h.03c.07,0,.23-.02.33.05.05.04.06.09.07.16h-.09s-.01-.08-.04-.1c-.06-.05-.2-.04-.25-.04h-.04s-.29.04-.62.07c-.96.11-2.59.3-2.79.3-.23,0-.26.14-.26.14l-.95,2.89-.07-.03h-.01Z"/>
  <path class="cls-6" d="M34.19,16.27c.11.04.23-.03.25-.13l.14-.49c.02-.1-.04-.21-.15-.24l-3.15-.9c-.11-.04-.23.03-.25.13l-.14.49c-.03.1.04.21.15.25l3.15.9h0Z"/>
  <path class="cls-8" d="M30.84,15.5s.11,0,.13-.04l.31-1.09s-.03-.07-.09-.1c0,0-.11,0-.13.04l-.31,1.09s.03.08.09.1Z"/>
  <path class="cls-12" d="M25.28,16.09c-1,0-1.81-.54-1.81-1.2s.81-1.2,1.81-1.2,1.81.54,1.81,1.2-.81,1.2-1.81,1.2Z"/>
  <path class="cls-12" d="M25.28,16.09c-1,0-1.81-.54-1.81-1.2s.81-1.2,1.81-1.2,1.81.54,1.81,1.2-.81,1.2-1.81,1.2Z"/>
  <path class="cls-2" d="M31.92,31.41s-.68-4.05-3.18-6.65c-.08-.97-.57-1.73-1.17-1.73h-1.41s-.02,0-.03-.01h0s-2.26.01-2.26.01h0s-.02,0-.03,0h-1.65c-.64,0-1.17.88-1.19,1.99-2.3,2.6-2.93,6.39-2.93,6.39,0,0-.28,4.65-.08,9.79.16,4.09,2.24,6.6,3.07,7.46.17.78.6,1.34,1.11,1.34h5.38c.44,0,.83-.42,1.03-1.04.31-.27,3.21-2.9,3.39-7.76.2-5.14-.08-9.79-.08-9.79Z"/>
  <path class="cls-7" d="M21.92,46.4s-2.59-2.13-2.75-6.24c-.16-4.11.06-7.84.06-7.84,0,0,.87-5.36,4.64-6.73l-1.95,20.8Z"/>
  <path class="cls-7" d="M27.99,45.9s2.46-2.03,2.61-5.94c.15-3.91-.05-7.46-.05-7.46,0,0-.84-5.11-4.41-6.4l1.86,19.8h-.01Z"/>
  <path class="cls-14" d="M21.66,39.28c-.16,0-.29-.24-.29-.54s.13-.54.29-.54h6.24c.16,0,.29.24.29.54s-.13.54-.29.54h-6.24Z"/>
  <path class="cls-3" d="M29.22,42.94s-.33,1.51-1.33,1.24c-.53-.15-1-1.78-.7-2.31.13-.23,1.42-.26,1.89-.05.24.11.25.7.15,1.12h-.01Z"/>
  <path class="cls-1" d="M29.07,41.81c.17.07.23.4.21.74h-2.17c-.03-.28,0-.53.07-.68.13-.23,1.43-.26,1.89-.05h0Z"/>
  <path class="cls-3" d="M20.63,42.94s.33,1.51,1.33,1.24c.53-.15,1-1.78.7-2.31-.13-.23-1.42-.26-1.89-.05-.24.11-.25.7-.15,1.12h.01Z"/>
  <path class="cls-1" d="M20.78,41.81c-.17.07-.23.4-.21.74h2.17c.03-.28,0-.53-.07-.68-.13-.23-1.42-.26-1.89-.05h0Z"/>
  <path class="cls-3" d="M26.61,44.59h-3.19v3.12h3.19v-3.12Z"/>
  <path class="cls-3" d="M26.61,44.59h-.81v3.12h.81v-3.12Z"/>
  <path class="cls-1" d="M29.49,32.84h.01c-1.56-2.77-1.6-3.41-2.19-6.38-.59-2.95-4.06-2.95-4.65,0-.59,2.95-.62,3.59-2.19,6.38-1.11,1.98-1.51,5.41,1.45,6.55-.07.12-.11.25-.11.38v6.58c0,.54.61.97,1.35.97h3.63c.75,0,1.35-.44,1.35-.97v-6.58c0-.14-.04-.27-.11-.39,2.96-1.15,2.56-4.57,1.45-6.55Z"/>
</svg>