<?xml version="1.0" encoding="UTF-8"?>
<svg id="Layer_1" data-name="Layer 1" xmlns="http://www.w3.org/2000/svg" xmlns:xlink="http://www.w3.org/1999/xlink" viewBox="0 0 50 50">
  <defs>
    <style>
      .cls-1 {
        mask: url(#mask);
      }

      .cls-2 {
        fill: #f38102;
      }

      .cls-3 {
        fill: #1e1e1e;
      }

      .cls-4 {
        mask: url(#mask-2);
      }

      .cls-5 {
        mask: url(#mask-1);
      }

      .cls-6 {
        fill: #fff;
      }

      .cls-7 {
        fill: #d41c1c;
      }

      .cls-8 {
        fill: #b25b1b;
      }
    </style>
    <mask id="mask" x="15.2" y="-.82" width="20.78" height="50.19" maskUnits="userSpaceOnUse">
      <g id="mask0_3884_114" data-name="mask0 3884 114">
        <path class="cls-6" d="M35.91,13.33c.06-5.76-.74-8.54-1.21-9.81-.49-1.27-2.97-3.06-4.66-3.29C28.51.03,26.04-.02,25.57,0c-.45-.01-2.93.02-4.46.22-1.69.22-4.19,2.01-4.66,3.29-.49,1.27-1.28,4.05-1.21,9.81.06,5.76-.1,23.55-.01,25.81.09,2.26.82,6.69,1.7,8.49.8,1.65,8.66,1.74,8.66,1.74,0,0,7.86-.09,8.66-1.74.86-1.8,1.61-6.22,1.7-8.49.09-2.26-.07-20.04-.01-25.81h-.02Z"/>
      </g>
    </mask>
    <mask id="mask-1" x="15.43" y=".47" width="5.61" height="4.82" maskUnits="userSpaceOnUse">
      <g id="mask1_3884_114" data-name="mask1 3884 114">
        <path class="cls-6" d="M17.47,3.34c.43-.65,2.32-1.59,3.14-1.98.24-.11.39-.34.41-.6l.03-.3c-1.59.26-3.94,1.93-4.4,3.14-.15.39-.29.83-.4,1.27l.2-.12c.21-.12.39-.31.51-.54.1-.2.26-.49.53-.87h-.01Z"/>
      </g>
    </mask>
    <mask id="mask-2" x="30.12" y=".48" width="5.61" height="4.84" maskUnits="userSpaceOnUse">
      <g id="mask2_3884_114" data-name="mask2 3884 114">
        <path class="cls-6" d="M33.7,3.36c-.43-.65-2.33-1.59-3.14-1.98-.24-.11-.39-.34-.41-.6l-.03-.3c1.59.26,3.94,1.93,4.4,3.14.15.39.29.83.4,1.27l-.2-.12c-.21-.12-.39-.31-.51-.54-.1-.2-.26-.49-.53-.87h.01Z"/>
      </g>
    </mask>
  </defs>
  <path class="cls-2" d="M35.91,13.33c.06-5.76-.74-8.54-1.21-9.81-.49-1.27-2.97-3.06-4.66-3.29C28.51.03,26.04-.02,25.57,0c-.45-.01-2.93.02-4.46.22-1.69.22-4.19,2.01-4.66,3.29-.49,1.27-1.28,4.05-1.21,9.81.06,5.76-.1,23.55-.01,25.81.09,2.26.82,6.69,1.7,8.49.8,1.65,8.66,1.74,8.66,1.74,0,0,7.86-.09,8.66-1.74.86-1.8,1.61-6.22,1.7-8.49.09-2.26-.07-20.04-.01-25.81h-.02Z"/>
  <path class="cls-8" d="M35.91,13.33c.06-5.76-.74-8.54-1.21-9.81-.49-1.27-2.97-3.06-4.66-3.29C28.51.03,26.04-.02,25.57,0c-.45-.01-2.93.02-4.46.22-1.69.22-4.19,2.01-4.66,3.29-.49,1.27-1.28,4.05-1.21,9.81.06,5.76-.1,23.55-.01,25.81.09,2.26.82,6.69,1.7,8.49.8,1.65,8.66,1.74,8.66,1.74,0,0,7.86-.09,8.66-1.74.86-1.8,1.61-6.22,1.7-8.49.09-2.26-.07-20.04-.01-25.81h-.02ZM35.19,39.11c-.06,1.64-.5,4.29-1.01,6.26-.36,1.36-1.5,2.36-2.89,2.55-1.55.21-3.69.48-5.71.5-2.04-.02-4.16-.29-5.71-.5-1.39-.19-2.54-1.19-2.89-2.55-.51-1.96-.95-4.63-1.01-6.26-.04-1.12-.02-6.29,0-11.75.03-5.49.05-11.17.01-14.03-.05-4.13.5-6.98,1.19-9.14.39-1.21,2.27-2.29,4.14-2.87l-.85,7.07,1.35-6.29c.13-.59.64-1.01,1.24-1.04.92-.04,1.84.02,2.3.02h.47c.49,0,1.5-.06,2.49-.01.5.02.92.37,1.02.86l1.39,6.44-.85-7.08c1.86.59,3.75,1.66,4.14,2.87.69,2.16,1.22,5.01,1.19,9.14-.02,2.85,0,8.54.01,14.02.03,5.46.05,10.62,0,11.75h-.01Z"/>
  <g class="cls-1">
    <path d="M29.05.99h-.1c-2.26-.16-4.53-.16-6.78,0h-.17c-.33.04-.6-.23-.6-.55V-.26c0-.31.25-.56.56-.56h7.14c.31,0,.56.25.56.56V.43c0,.33-.27.59-.6.56h-.01Z"/>
  </g>
  <path d="M25.59,10.28h-.03c-6.71,0-9.3,2.77-9.3,2.77l1.74,7.35s2.08-1.47,7.55-1.47h.05c5.47,0,7.55,1.47,7.55,1.47l1.74-7.35s-2.59-2.77-9.3-2.77Z"/>
  <path d="M33.42,22.61l-.34,17.72c0,1.37-.75,2.64-1.56,3.24-1.18.89-2.55,1.38-5.95,1.38h-.01c-3.4,0-4.76-.49-5.95-1.38-.8-.6-1.56-1.86-1.56-3.24l-.34-17.72-1.75-7.93s.19,21.35.19,23.17c0,3.61.44,5.85,1.83,7.49.98,1.15,3.61,1.81,7.59,1.81h.01c3.98,0,6.61-.65,7.59-1.81,1.38-1.64,1.82-3.86,1.82-7.47,0-1.82.19-23.17.19-23.17l-1.75,7.93h0Z"/>
  <path d="M17.47,3.34c.43-.65,2.32-1.59,3.14-1.98.24-.11.39-.34.41-.6l.03-.3c-1.59.26-3.94,1.93-4.4,3.14-.15.39-.29.83-.4,1.27l.2-.12c.21-.12.39-.31.51-.54.1-.2.26-.49.53-.87h-.01Z"/>
  <g class="cls-5">
    <path d="M16.52,3.12l1.2.66-1.01,1.51s-1.33-.32-1.28-.44c.05-.11.26-.7.34-.79.07-.09.76-.94.76-.94h-.01Z"/>
  </g>
  <path d="M33.7,3.36c-.43-.65-2.33-1.59-3.14-1.98-.24-.11-.39-.34-.41-.6l-.03-.3c1.59.26,3.94,1.93,4.4,3.14.15.39.29.83.4,1.27l-.2-.12c-.21-.12-.39-.31-.51-.54-.1-.2-.26-.49-.53-.87h.01Z"/>
  <g class="cls-4">
    <path d="M34.65,3.14l-1.2.66,1.01,1.51s1.32-.32,1.28-.44c-.05-.11-.26-.7-.34-.8-.07-.09-.76-.94-.76-.94h.01Z"/>
  </g>
  <path class="cls-2" d="M32.87,20.98c-.04-.17-.14-.33-.29-.4-1.86-.97-5.24-1.21-7-1.21h-.01c-1.76,0-5.14.24-7,1.21-.15.07-.26.23-.29.4-.05.28-.11.79-.11,1.63l.34,17.74c0,1.28.71,2.39,1.38,2.89,1.04.77,2.36,1.24,5.67,1.29h.03c3.31-.05,4.64-.51,5.67-1.29.66-.5,1.38-1.61,1.38-2.89l.34-17.74c0-.84-.06-1.35-.11-1.63h.01Z"/>
  <path d="M29.84,30.02h-.05c-2.8.4-5.64.4-8.42,0-.36-.05-.62-.36-.62-.72v-6.49c0-.36.28-.67.64-.72l.85-.11c2.23-.29,4.47-.29,6.71,0l.91.11c.36.05.64.36.64.72v6.49c0,.36-.28.68-.64.72h-.01Z"/>
  <path d="M25.57,48.42c-2.36,0-4.49-.36-4.49-.36l.25,1.22s1.43.72,4.2.72h.09c2.78,0,4.15-.69,4.2-.72l.25-1.22s-2.13.36-4.49.36h-.01Z"/>
  <path class="cls-7" d="M18.66,46.74c-.62-.3-.99-.76-1.19-1.1-.18-.3-.44-.54-.74-.71l-.26-.15c.25,1.06.53,2.03.82,2.64.2.4,1.14.73,2.39.96-.05-.2-.1-.4-.15-.6-.12-.46-.45-.85-.89-1.06v.02Z"/>
  <path class="cls-7" d="M32.41,46.74c.62-.3.99-.76,1.19-1.1.17-.3.44-.54.74-.71l.26-.15c-.25,1.06-.53,2.03-.82,2.64-.2.4-1.14.73-2.39.96.05-.2.1-.4.15-.6.12-.46.45-.85.89-1.06v.02Z"/>
  <path class="cls-2" d="M37.29,16.36c-.25-.29-2.1-1.65-2.1-1.65v.81l.25.24v.76l1.85.8s.25-.67,0-.96Z"/>
  <path class="cls-2" d="M13.86,16.36c.25-.29,2.1-1.65,2.1-1.65v.81l-.25.24v.76l-1.85.8s-.25-.67,0-.96Z"/>
  <path class="cls-3" d="M18.85,21.22s-.45.04-.43.95c.01.82.26,15.65.31,18.56,0,.29.21.54.49.6l-.37-20.11Z"/>
  <path class="cls-3" d="M32.29,21.22s.45.04.43.95c-.01.82-.26,15.65-.31,18.56,0,.29-.21.54-.49.6l.37-20.11Z"/>
  <path d="M25.56,11.81h.03c5.43,0,8.15,1.81,9,2.5l.3-1.26s-2.59-2.77-9.3-2.77h-.03c-6.71,0-9.3,2.77-9.3,2.77l.3,1.26c.85-.7,3.57-2.5,9-2.5Z"/>
</svg>