<?xml version="1.0" encoding="UTF-8"?>
<svg id="Layer_1" data-name="Layer 1" xmlns="http://www.w3.org/2000/svg" xmlns:xlink="http://www.w3.org/1999/xlink" viewBox="0 0 50 50">
  <defs>
    <style>
      .cls-1 {
        fill: none;
      }

      .cls-2 {
        fill: #e09112;
      }

      .cls-3 {
        fill: #fa0;
      }

      .cls-4 {
        fill: #ccc;
      }

      .cls-5 {
        fill: #c00;
      }

      .cls-6 {
        fill: #fff;
      }

      .cls-7 {
        fill: #f60;
      }

      .cls-8 {
        fill: url(#linear-gradient-2);
        opacity: .4;
      }

      .cls-8, .cls-9 {
        isolation: isolate;
      }

      .cls-10 {
        fill: #ffbc00;
      }

      .cls-9 {
        fill: url(#linear-gradient);
        opacity: .6;
      }

      .cls-11 {
        fill: #dcfffe;
      }
    </style>
    <linearGradient id="linear-gradient" x1="25.03" y1="51.2" x2="25.03" y2="51.53" gradientTransform="translate(0 52) scale(1 -1)" gradientUnits="userSpaceOnUse">
      <stop offset="0" stop-color="#b87704"/>
      <stop offset="1" stop-color="#b87604" stop-opacity="0"/>
    </linearGradient>
    <linearGradient id="linear-gradient-2" x1="25.03" y1="51.28" x2="25.03" y2="52" gradientTransform="translate(0 52) scale(1 -1)" gradientUnits="userSpaceOnUse">
      <stop offset=".42" stop-color="#fff" stop-opacity="0"/>
      <stop offset="1" stop-color="#fff"/>
    </linearGradient>
  </defs>
  <rect class="cls-1" x="14.21" width="21.58" height="50"/>
  <g>
    <path class="cls-10" d="M34.41,5.38v40.71c0,2.16-1.75,3.91-3.91,3.91h-10.96c-2.16,0-3.91-1.75-3.91-3.91V5.38c0-2.96,2.41-5.38,5.38-5.38h8.03c2.97,0,5.39,2.41,5.39,5.38Z"/>
    <path class="cls-2" d="M15.62,43.18V9.4C15.62,4.21,19.84,0,25.02,0s9.4,4.21,9.4,9.4v33.78c0,3.76-3.06,6.82-6.83,6.82h-5.14c-3.76,0-6.83-3.06-6.83-6.82h-.01Z"/>
    <path class="cls-9" d="M19.77.81h10.49c1.26,0,2.4.58,3.16,1.46-.98-1.38-2.58-2.28-4.39-2.28h-8.03c-1.81,0-3.41.9-4.39,2.28.76-.9,1.9-1.46,3.16-1.46h-.01Z"/>
    <path class="cls-8" d="M19.77.81h10.49c1.26,0,2.4.58,3.16,1.46-.98-1.38-2.58-2.28-4.39-2.28h-8.03c-1.81,0-3.41.9-4.39,2.28.76-.9,1.9-1.46,3.16-1.46h-.01Z"/>
    <path class="cls-3" d="M19.77.81h10.49c1.26,0,2.4.58,3.16,1.46-.98-1.38-2.58-2.28-4.39-2.28h-8.03c-1.81,0-3.41.9-4.39,2.28.76-.9,1.9-1.46,3.16-1.46h-.01Z"/>
    <path class="cls-3" d="M16.26,46.77V4.7c0-1.92,1.56-3.49,3.49-3.49h10.53c1.92,0,3.49,1.56,3.49,3.49v42.08c0,1.11-.9,2.03-2.02,2.03h-13.45c-1.11,0-2.02-.9-2.02-2.03Z"/>
    <path class="cls-3" d="M31.75,48.8h-13.46c-1.11,0-2.02-.9-2.02-2.03v.38c0,1.11.9,2.02,2.02,2.02h13.46c1.11,0,2.02-.9,2.02-2.02v-.38c0,1.11-.9,2.03-2.02,2.03Z"/>
    <path d="M31.75,48.8h-13.46c-1.11,0-2.02-.9-2.02-2.03v.38c0,1.11.9,2.02,2.02,2.02h13.46c1.11,0,2.02-.9,2.02-2.02v-.38c0,1.11-.9,2.03-2.02,2.03Z"/>
    <path d="M30.28.81h-10.51c-1.94,0-3.5,1.56-3.5,3.49v.39c0-1.92,1.56-3.49,3.49-3.49h10.53c1.92,0,3.49,1.56,3.49,3.49v-.39c0-1.93-1.56-3.49-3.49-3.49Z"/>
    <path class="cls-7" d="M17.57,1.98v-.39c-.8.64-1.31,1.62-1.31,2.73v.39c0-1.1.51-2.09,1.31-2.73Z"/>
    <path class="cls-11" d="M17.57,1.98c.6-.47,1.36-.77,2.19-.77h2.26l.15-.39h-2.41c-.82,0-1.59.29-2.19.77v.39Z"/>
    <path class="cls-7" d="M32.46,1.98v-.39c.8.64,1.31,1.62,1.31,2.73v.39c0-1.1-.51-2.09-1.31-2.73Z"/>
    <path class="cls-11" d="M32.46,1.98c-.6-.47-1.36-.77-2.19-.77h-2.26l-.15-.39h2.41c.82,0,1.59.29,2.19.77v.39Z"/>
    <path d="M19.16,20.92c-.21,0-.4-.13-.48-.33l-2-4.96c-.04-.1-.04-.21,0-.3.04-.09.13-.16.23-.19,2.83-.75,5.69-1.14,8.5-1.14,3.73,0,6.43.66,7.7,1.06.1.02.17.1.22.19.04.1.05.2,0,.3l-2.16,5c-.09.19-.26.31-.47.31h-.11c-1.38-.29-3.01-.44-4.87-.44-2.71,0-5.23.31-6.49.49h-.08.01Z"/>
    <path d="M19.16,20.75c-.14,0-.26-.09-.31-.21l-2-4.96c-.02-.08,0-.13,0-.16.01-.04.05-.07.11-.09,2.81-.75,5.66-1.14,8.45-1.14,3.7,0,6.38.66,7.65,1.05.06.03.1.08.11.1.01.02.03.09,0,.15l-2.16,5c-.05.13-.18.2-.31.2h-.08c-1.39-.3-3.04-.44-4.91-.44-2.73,0-5.25.31-6.51.5h-.05.01Z"/>
    <path d="M19.16,33.88c-.21,0-.4.13-.48.33l-2,4.96c-.04.1-.04.21,0,.3.05.09.13.16.23.19,2.83.75,5.69,1.14,8.5,1.14,3.73,0,6.43-.66,7.7-1.06.1-.03.17-.1.22-.19.04-.1.05-.2,0-.3l-2.16-5c-.09-.19-.26-.31-.47-.31h-.11c-1.38.29-3.01.44-4.87.44-2.71,0-5.23-.31-6.49-.49h-.08.01Z"/>
    <path d="M19.16,34.05c-.14,0-.26.09-.31.21l-2,4.96c-.02.08,0,.13,0,.16.01.04.05.07.11.09,2.81.75,5.66,1.14,8.45,1.14,3.7,0,6.38-.66,7.65-1.05.06-.03.1-.07.11-.1s.03-.09,0-.15l-2.16-5c-.05-.13-.18-.2-.31-.2h-.08c-1.39.3-3.04.44-4.91.44-2.73,0-5.25-.31-6.51-.5h-.05.01Z"/>
    <path d="M16.89,39.12c2.17.54,5.01.86,8.12.86s5.92-.33,8.1-.85l.07.16c.03.06,0,.13,0,.15-.01.03-.05.08-.11.1-1.28.4-3.95,1.05-7.65,1.05-2.8,0-5.64-.37-8.45-1.14-.06-.01-.1-.06-.11-.09s-.04-.09,0-.16l.04-.1h-.01Z"/>
    <path d="M33.61,16.15l-2.63,6.2s-.03.06-.03.1v2.65c0,.14.1.25.23.26l2.26.32c.16.03.31-.1.31-.26v-9.25c0-.09-.12-.11-.16-.04h.01Z"/>
    <path d="M33.49,25.54l-2.26-.33s-.09-.05-.09-.1v-2.69l2.46-5.84v8.86s0,.05-.04.07c-.03.03-.05.03-.07.03h-.01.01Z"/>
    <path d="M31.17,25.76l2.44.37c.09.01.15.09.15.17v5.28c0,.11-.11.2-.23.17l-2.44-.65c-.07-.02-.14-.09-.14-.17v-5.01c0-.11.1-.19.2-.17h.01Z"/>
    <path d="M31.15,30.96v-5.03s2.45.36,2.45.36v5.29s0,.03,0,.03l-2.45-.65Z"/>
    <path d="M31.16,31.52l2.51.76s.1.07.1.14v5.25c0,.15-.21.2-.27.06l-2.51-5.5s-.01-.04-.01-.06v-.5c0-.1.09-.16.19-.14h0Z"/>
    <path d="M31.14,32.15v-.49l2.49.78v5.15s-2.49-5.44-2.49-5.44Z"/>
    <path d="M16.39,16.15l2.63,6.2s.02.06.02.1v2.65c0,.14-.1.25-.22.26l-2.26.32c-.16.03-.31-.1-.31-.26v-9.25c0-.09.13-.11.16-.04h-.01Z"/>
    <path d="M16.51,25.54l2.26-.33s.09-.05.09-.1v-2.69l-2.46-5.84v8.86s0,.05.04.07c.03.03.05.03.08.03h.01-.01Z"/>
    <path d="M18.81,25.76l-2.44.37c-.09.01-.15.09-.15.17v5.28c0,.11.11.2.23.17l2.44-.65c.08-.02.14-.09.14-.17v-5.01c0-.11-.1-.19-.2-.17h-.01Z"/>
    <path d="M18.85,30.96v-5.03s-2.45.36-2.45.36v5.29s0,.03,0,.03l2.45-.65Z"/>
    <path d="M18.84,31.52l-2.51.76s-.1.07-.1.14v5.25c0,.15.21.2.28.06l2.51-5.5s.01-.04.01-.06v-.5c0-.1-.09-.16-.19-.14h0Z"/>
    <path d="M18.86,32.15v-.49l-2.49.78v5.15s2.49-5.44,2.49-5.44Z"/>
    <path class="cls-10" d="M32.15,14.13c-.09,0-.15-.06-.15-.15v-.71c0-.09.06-.15.15-.15s.15.06.15.15v.71c0,.09-.06.15-.15.15Z"/>
    <path class="cls-10" d="M31.56,13.99c-.09,0-.15-.06-.15-.15v-.71c0-.09.06-.15.15-.15s.15.06.15.15v.71c0,.09-.06.15-.15.15Z"/>
    <path class="cls-10" d="M30.99,13.84c-.09,0-.15-.06-.15-.15v-.71c0-.09.06-.15.15-.15s.15.06.15.15v.71c0,.09-.06.15-.15.15Z"/>
    <path class="cls-10" d="M19.23,12.81c-.09,0-.15.06-.15.15v.71c0,.09.06.15.15.15s.15-.06.15-.15v-.71c0-.09-.06-.15-.15-.15Z"/>
    <path class="cls-10" d="M18.65,12.95c-.09,0-.15.06-.15.15v.71c0,.09.06.15.15.15s.15-.06.15-.15v-.71c0-.09-.06-.15-.15-.15Z"/>
    <path class="cls-10" d="M18.06,13.1c-.09,0-.15.06-.15.15v.71c0,.09.06.15.15.15s.15-.06.15-.15v-.71c0-.09-.06-.15-.15-.15Z"/>
    <g>
      <path class="cls-5" d="M17.25,48.5c-.59-.35-.97-1-.97-1.73v.38c0,.74.39,1.38.97,1.73.3.19.66.29,1.05.29h1.27l.09-.38h-1.36c-.39,0-.74-.11-1.05-.29Z"/>
      <path class="cls-5" d="M32.95,48.5c-.31.17-.66.29-1.05.29h-1.36l.09.38h1.28c.39,0,.75-.1,1.05-.29.59-.35.98-.99.98-1.73v-.38c0,.73-.39,1.38-.98,1.73Z"/>
    </g>
    <polygon class="cls-6" points="25.78 22.49 25.46 22.8 24.57 22.8 24.26 22.49 23.78 22.49 23.78 32.09 24.26 32.09 24.57 31.77 25.46 31.77 25.78 32.09 26.26 32.09 26.26 22.49 25.78 22.49"/>
    <path d="M16.39,16.92l-2.17.84v-.4c0-.19.11-.36.3-.43l1.88-.72v.72h0Z"/>
    <path class="cls-10" d="M15.76,17.5l-1.37.45c-.09.03-.18-.04-.18-.12v-.5l1.65-.54v.59s-.04.11-.1.13Z"/>
    <path class="cls-3" d="M15.76,17.5l-1.37.45c-.09.03-.18-.04-.18-.12v-.5l1.65-.54v.59s-.04.11-.1.13Z"/>
    <path d="M33.61,16.92l2.17.84v-.4c0-.19-.11-.36-.3-.43l-1.88-.72v.72h0Z"/>
    <path class="cls-10" d="M34.24,17.5l1.38.45c.09.03.17-.04.17-.12v-.5l-1.65-.54v.59s.04.11.1.13Z"/>
    <path class="cls-3" d="M34.24,17.5l1.38.45c.09.03.17-.04.17-.12v-.5l-1.65-.54v.59s.04.11.1.13Z"/>
    <path class="cls-4" d="M25.26,23l.51-.51h.49v9.6h-.49l-.51-.51v-8.58Z"/>
    <path class="cls-4" d="M24.76,23l-.5-.51h-.49v9.6h.49l.5-.51v-8.58Z"/>
  </g>
</svg>