<?xml version="1.0" encoding="UTF-8"?>
<svg id="Layer_1" data-name="Layer 1" xmlns="http://www.w3.org/2000/svg" xmlns:xlink="http://www.w3.org/1999/xlink" viewBox="0 0 50 50">
  <defs>
    <style>
      .cls-1 {
        fill: none;
      }

      .cls-2 {
        fill: #f38102;
      }

      .cls-3 {
        fill: #fa0;
      }

      .cls-4 {
        fill: url(#linear-gradient-2);
      }

      .cls-5 {
        fill: #828282;
      }

      .cls-6 {
        fill: #231f20;
      }

      .cls-7 {
        fill: url(#radial-gradient);
      }

      .cls-8 {
        fill: url(#linear-gradient);
      }

      .cls-9 {
        fill: #5c5c5c;
      }

      .cls-10 {
        fill: #993630;
      }

      .cls-11 {
        fill: #262626;
      }

      .cls-12 {
        fill: #965411;
      }
    </style>
    <radialGradient id="radial-gradient" cx="1441.7" cy="41.91" fx="1441.7" fy="41.91" r="1.25" gradientTransform="translate(-661.22 46.93) scale(.48 -.48)" gradientUnits="userSpaceOnUse">
      <stop offset="0" stop-color="#b0b0b0"/>
      <stop offset=".07" stop-color="#8a8a8a"/>
      <stop offset=".19" stop-color="#3c3c3c"/>
      <stop offset="1" stop-color="#212121"/>
    </radialGradient>
    <linearGradient id="linear-gradient" x1="23.31" y1="28.99" x2="26.73" y2="28.99" gradientTransform="translate(0 52) scale(1 -1)" gradientUnits="userSpaceOnUse">
      <stop offset="0" stop-color="#212121"/>
      <stop offset="1" stop-color="#424242"/>
    </linearGradient>
    <linearGradient id="linear-gradient-2" x1="32.66" y1="31.96" x2="32.66" y2="29.63" xlink:href="#linear-gradient"/>
  </defs>
  <path class="cls-2" d="M13.41,31.21v-12.17c0-.78.82-1.41,1.85-1.41h19.46c1.03,0,1.85.63,1.85,1.41v12.17H13.41Z"/>
  <path class="cls-6" d="M13.68,30.66v-10.77c0-.69.81-1.25,1.8-1.25h19.01c1,0,1.81.56,1.81,1.25v10.77H13.68Z"/>
  <path class="cls-9" d="M22.72,18.65h-.29v12.01h.29v-12.01Z"/>
  <path class="cls-9" d="M21.93,18.65h-.29v12.01h.29v-12.01Z"/>
  <path class="cls-9" d="M21.16,18.65h-.29v12.01h.29v-12.01Z"/>
  <path class="cls-9" d="M23.49,18.65h-.29v12.01h.29v-12.01Z"/>
  <path class="cls-9" d="M20.37,18.65h-.29v12.01h.29v-12.01Z"/>
  <path class="cls-9" d="M24.27,18.65h-.29v12.01h.29v-12.01Z"/>
  <path class="cls-9" d="M25.06,18.65h-.29v12.01h.29v-12.01Z"/>
  <path class="cls-9" d="M17.26,18.65h-.29v12.01h.29v-12.01Z"/>
  <path class="cls-9" d="M14.62,30.66h.29v-11.94c-.1.03-.2.05-.29.08v11.85Z"/>
  <path class="cls-9" d="M15.69,18.65h-.29v12h.29v-12.01h0Z"/>
  <path class="cls-9" d="M19.59,18.65h-.29v12.01h.29v-12.01Z"/>
  <path class="cls-9" d="M16.47,18.65h-.29v12.01h.29v-12.01Z"/>
  <path class="cls-9" d="M18.03,18.65h-.29v12.01h.29v-12.01Z"/>
  <path class="cls-9" d="M18.82,18.65h-.29v12.01h.29v-12.01Z"/>
  <path class="cls-9" d="M25.83,18.65h-.29v12.01h.29v-12.01Z"/>
  <path class="cls-9" d="M33.63,18.65h-.29v12.01h.29v-12.01Z"/>
  <path class="cls-9" d="M32.86,18.65h-.29v12.01h.29v-12.01Z"/>
  <path class="cls-9" d="M26.62,18.65h-.29v12.01h.29v-12.01Z"/>
  <path class="cls-9" d="M32.08,18.65h-.29v12.01h.29v-12.01Z"/>
  <path class="cls-9" d="M35.98,19.18c-.09-.08-.17-.15-.29-.22v11.69h.29v-11.47Z"/>
  <path class="cls-9" d="M13.84,30.66h.29v-11.58c-.11.09-.21.19-.29.3v11.28Z"/>
  <path class="cls-9" d="M34.91,30.66h.29v-11.91c-.09-.03-.19-.04-.29-.06v11.98h0Z"/>
  <path class="cls-9" d="M34.42,18.65h-.29v12.01h.29v-12.01Z"/>
  <path class="cls-9" d="M31.29,18.65h-.29v12.01h.29v-12.01Z"/>
  <path class="cls-9" d="M28.96,18.65h-.29v12.01h.29v-12.01Z"/>
  <path class="cls-9" d="M27.39,18.65h-.29v12.01h.29v-12.01Z"/>
  <path class="cls-9" d="M28.18,18.65h-.29v12.01h.29v-12.01Z"/>
  <path class="cls-9" d="M29.73,18.65h-.29v12.01h.29v-12.01Z"/>
  <path class="cls-9" d="M30.52,18.65h-.29v12.01h.29v-12.01Z"/>
  <rect class="cls-1" x="19.79" y="17.84" width="10.5" height="9.6"/>
  <path class="cls-11" d="M31.03,27.03l-.29-.24,1.57-1.91.15-3.65h.37s-.15,3.79-.15,3.79l-1.66,2.01Z"/>
  <path class="cls-7" d="M30.89,27.5c.33,0,.6-.27.6-.6s-.27-.6-.6-.6-.6.27-.6.6.27.6.6.6Z"/>
  <path d="M39.54,32.43h-4.33c-.96,0-1.74.67-1.74,1.51v14.55c0,.84.77,1.51,1.74,1.51h4.33c.96,0,1.74-.68,1.74-1.51v-14.55c0-.84-.77-1.51-1.74-1.51Z"/>
  <path d="M10.46,50h4.33c.96,0,1.74-.68,1.74-1.51v-14.55c0-.84-.77-1.51-1.74-1.51h-4.33c-.96,0-1.74.67-1.74,1.51v14.55c0,.84.77,1.51,1.74,1.51Z"/>
  <path class="cls-2" d="M37.29,33.24c0-2.04-1.65-3.7-3.7-3.7h-3.81c-.38-.27-2.34-.47-4.73-.47s-4.36.21-4.72.47h-3.94c-2.04,0-3.7,1.65-3.7,3.7,0,0-.18,8.69,1.17,10.99,1,1.7,2.04,1.97,4.9,1.96,0-.03-.01-.05-.01-.08,0-.96,2.69-1.74,6-1.74s6,.77,6,1.74c0,.04,0,.06-.01.1,3.24.05,4.3-.16,5.37-1.99,1.36-2.3,1.18-10.99,1.18-10.99Z"/>
  <path class="cls-10" d="M25.98,0h-1.99v.46h1.99v-.46Z"/>
  <path class="cls-5" d="M33.64,5.48h-5.46v4.46h5.46v-4.46Z"/>
  <path d="M33.11,4.8h-.36v5.57h.36v-5.57Z"/>
  <path class="cls-5" d="M21.71,5.48h-5.46v4.46h5.46v-4.46Z"/>
  <path d="M17.13,4.8h-.36v5.57h.36v-5.57Z"/>
  <path class="cls-2" d="M31.12,19.42l-.39-2.3.04-14.79c0-2.69-11.49-2.81-11.49,0l.04,14.77-.44,2.33.82-.77.04,1.36h10.56l.04-1.33.79.75v-.03Z"/>
  <path class="cls-3" d="M30.76,1.84c0-.69-1.41-1.15-3.25-1.38.27.6.77,1.4,1.61,1.76.85.37,1.3.31,1.64.4v-.8h0Z"/>
  <path class="cls-3" d="M19.29,1.84c0-.69,1.41-1.15,3.25-1.38-.27.6-.77,1.4-1.61,1.76-.85.37-1.3.31-1.64.4v-.8h0Z"/>
  <path class="cls-12" d="M30.37,29.54h-.59c-.38-.27-2.34-.47-4.73-.47s-4.36.21-4.72.47h-.8v13.15h10.85v-13.15h-.01Z"/>
  <path d="M30.67,17.65h-11.26s-.8,1.56-.91,2.11c-.1.46,0,1.85,0,1.85,0,1.02,1.65,1.86,3.7,1.86h5.69c2.04,0,3.7-.82,3.7-1.86s.1-1.4,0-1.85c-.11-.55-.91-2.11-.91-2.11Z"/>
  <path d="M27.07,23.01c0,.99-.92,1.78-2.05,1.78s-2.05-.8-2.05-1.78.92-1.78,2.05-1.78,2.05.8,2.05,1.78Z"/>
  <path class="cls-8" d="M26.73,23.01c0,.81-.76,1.49-1.71,1.49s-1.71-.66-1.71-1.49.76-1.49,1.71-1.49,1.71.66,1.71,1.49Z"/>
  <path d="M28.9,20.2l-2.38,1.72.43.6,2.38-1.73-.43-.6Z"/>
  <path d="M21.12,20.2l-.43.6,2.41,1.73.43-.6-2.41-1.73Z"/>
  <path class="cls-4" d="M33.38,20h-1.45v2.31h1.45v-2.31Z"/>
  <rect class="cls-1" x="19.49" y="30.74" width="10.8" height="11.7"/>
  <path d="M30.24,41.53c.26,1.24.05,1.86-.45,2.33-1.71,1.56-7.81,1.69-9.66,0-.4-.36-.66-1.06-.36-2.33l.56-3.49c0-1.29.67.98,1.09.98h7.1c.41,0,1.16-2.26,1.16-.98l.56,3.49Z"/>
  <path d="M27.91,41.37c0,1.01-1.04.46-2.3.46h-1.69c-1.28,0-2.3.55-2.3-.46l1.42-6.59c0-1.01-.39-.91.89-.91h1.69c1.28,0,.89-.1.89.91l1.42,6.59h-.03Z"/>
  <path d="M33.71,39.8c-.8.34-1.45-.21-1.45-1.24v-5.1c0-1.02.65-1.58,1.45-1.24.8.34,1.45,1.44,1.45,2.46v2.64c0,1.02-.65,2.12-1.45,2.46h0Z"/>
  <path class="cls-2" d="M34.11,33.82c0,.3-.24.54-.54.54s-.54-.24-.54-.54.24-.54.54-.54.54.24.54.54Z"/>
  <path class="cls-2" d="M34.11,35.94c0,.3-.24.54-.54.54s-.54-.24-.54-.54.24-.54.54-.54.54.24.54.54Z"/>
  <path class="cls-2" d="M34.01,37.55h-.96v.96h.96v-.96Z"/>
  <path d="M16.32,39.8c.8.34,1.45-.21,1.45-1.24v-5.1c0-1.02-.65-1.58-1.45-1.24-.8.34-1.45,1.44-1.45,2.46v2.64c0,1.02.65,2.12,1.45,2.46h0Z"/>
  <path class="cls-2" d="M15.93,33.82c0,.3.24.54.54.54s.54-.24.54-.54-.24-.54-.54-.54-.54.24-.54.54Z"/>
  <path class="cls-2" d="M15.93,35.94c0,.3.24.54.54.54s.54-.24.54-.54-.24-.54-.54-.54-.54.24-.54.54Z"/>
  <path class="cls-2" d="M16.99,37.55h-.96v.96h.96v-.96Z"/>
  <circle cx="16.77" cy="42.41" r="1.11"/>
  <circle cx="33.16" cy="42.41" r="1.11"/>
  <rect class="cls-1" x="32.39" y="41.84" width="1.5" height="1.2"/>
  <rect class="cls-1" x="14.69" y="31.34" width="1.2" height="1.5"/>
  <path d="M37.03,13.44h-2.83c-.62,0-1.14-.44-1.14-.99V2.96c0-.55.51-.99,1.14-.99h2.83c.62,0,1.14.44,1.14.99v9.49c0,.55-.51.99-1.14.99Z"/>
  <path d="M12.86,13.44h2.82c.62,0,1.14-.44,1.14-.99V2.96c0-.55-.51-.99-1.14-.99h-2.82c-.62,0-1.14.44-1.14.99v9.49c0,.55.51.99,1.14.99Z"/>
</svg>