<?xml version="1.0" encoding="UTF-8"?>
<svg xmlns="http://www.w3.org/2000/svg" xmlns:xlink="http://www.w3.org/1999/xlink" viewBox="0 0 50 50">
  <defs>
    <style>
      .cls-1 {
        fill: none;
      }

      .cls-2 {
        fill: #f38102;
      }

      .cls-3 {
        fill: #d36c07;
      }

      .cls-4 {
        fill: url(#linear-gradient-4);
      }

      .cls-5 {
        fill: url(#linear-gradient-3);
      }

      .cls-6 {
        fill: url(#linear-gradient-2);
      }

      .cls-7 {
        fill: url(#linear-gradient);
      }

      .cls-8 {
        fill: #1e1e1e;
      }

      .cls-9 {
        isolation: isolate;
      }

      .cls-10 {
        mix-blend-mode: multiply;
      }

      .cls-11 {
        mix-blend-mode: soft-light;
      }

      .cls-12 {
        clip-path: url(#clippath);
      }
    </style>
    <clipPath id="clippath">
      <rect class="cls-1" x="12.64" width="25.25" height="50"/>
    </clipPath>
    <linearGradient id="linear-gradient" x1="14.03" y1="47.47" x2="14.5" y2="47.2" gradientTransform="translate(0 52) scale(1 -1)" gradientUnits="userSpaceOnUse">
      <stop offset="0" stop-color="#242424"/>
      <stop offset=".29" stop-color="#141414"/>
      <stop offset=".67" stop-color="#060606"/>
      <stop offset="1" stop-color="#010101"/>
    </linearGradient>
    <linearGradient id="linear-gradient-2" x1="12.64" y1="46.94" x2="14.49" y2="46.94" gradientTransform="translate(0 52) scale(1 -1)" gradientUnits="userSpaceOnUse">
      <stop offset="0" stop-color="#5a5a57"/>
      <stop offset=".14" stop-color="#636360"/>
      <stop offset=".37" stop-color="#7b7b79"/>
      <stop offset=".67" stop-color="#a4a4a2"/>
      <stop offset=".99" stop-color="#d9d9d8"/>
    </linearGradient>
    <linearGradient id="linear-gradient-3" x1="36.5" y1="47.47" x2="36.03" y2="47.19" xlink:href="#linear-gradient"/>
    <linearGradient id="linear-gradient-4" x1="37.87" y1="46.94" x2="36.03" y2="46.94" xlink:href="#linear-gradient-2"/>
  </defs>
  <g class="cls-9">
    <g id="Layer_1" data-name="Layer 1">
      <g class="cls-12">
        <g>
          <path d="M33.67,13.66v1.96c-1.01-.01-2.32-.01-3.78-.01h0s-.08-.01-.08-.01h0s-.17.01-.17.01c-2.7,0-5.86,0-8.58.01v-.02h-.15v.02h-4.43v-.02h-.01v-.66h.01v-.95h-.01v-.22c0-.11.1-.21.25-.21h3.93c.14,0,.26.1.26.21v1.17h.15v-1.28h.32v-.15h.09v.15h.23v-.15h.16v.15h.26v-.15h.09v.15h.22v-.15h.17v.15h.26v-.15h.09v.15h.23v-.15h.16v.15h.26v-.15h.09v.15h.22v-.15h.17v.15h.26v-.15h.09v.15h.23v-.15h.16v.15h.27v-.15h.09v.15h.21v-.15h.17v.15h.26v-.15h.09v.15h.23v-.15h.16v.15h.27v-.15h.09v.15h.23v-.15h.16v.15h.25v-.15h.09v.15h.23v-.15h.16v.15h.27v-.15h.09v.15h.23v-.15h.16v.15h.25v-.15h.09v.15h.23v-.15h.16v.15h.55v1.28h.08v-1.28h.15v-.15h.04v.15h.09v-.15h.08v.15h.1v-.15h.05v.15h.1v-.15h.08v.15h.1v-.15h.05v.15h.09v-.15h.07v.15h.12v-.15h.05v.15h.09v-.15h.07v.15h.12v-.15h.04v.15h.09v-.15h.08v.15h.12v-.15h.04v.15h.09v-.15h.08v.15h.12v-.15h.04v.15h.09v-.15h.08v.15h.1v-.15h.05v.15h.1v-.15h.08v.15h.1v-.15h.04v.15h.09v-.15h.08v.15h.12v-.15h.04v.15h.09v-.15h.08v.15h.12v-.15h.04v.15h.09v-.15h.08v.15h.16Z"/>
          <path class="cls-2" d="M35.78,15.62s-21.11,0-21.11,0v34.1h21.08l.03-34.1Z"/>
          <path class="cls-2" d="M36.09,5.21c0-.38-.2-.73-.52-1v-1.91c0-.9-.76-1.66-1.82-1.81-1.57-.22-4.38-.49-8.53-.49s-6.97.25-8.53.49c-1.06.15-1.82.92-1.82,1.81v1.95c-.29.27-.48.6-.48.96v3.48c0,.37.18.85.48,1.28v3.07c0,.34.33.62.75.62h19.22c.4,0,.75-.27.75-.62v-3.01c.32-.44.52-.95.52-1.34v-3.48Z"/>
          <path class="cls-3" d="M34.37,18.2v-.44h-18.34v.44h18.34Z"/>
          <path class="cls-3" d="M34.39,20v-.44h-18.34v.44h18.34Z"/>
          <path class="cls-3" d="M34.39,21.8v-.44h-18.34v.44h18.34Z"/>
          <path class="cls-3" d="M34.39,25.4v-.44h-18.34v.44h18.34Z"/>
          <path class="cls-3" d="M34.37,27.2v-.44h-18.34v.44h18.34Z"/>
          <path class="cls-3" d="M34.37,29v-.44h-18.34v.44h18.34Z"/>
          <path class="cls-3" d="M34.37,30.8v-.44h-18.34v.44h18.34Z"/>
          <path class="cls-3" d="M34.37,32.6v-.44h-18.34v.44h18.34Z"/>
          <path class="cls-3" d="M34.37,34.4v-.44h-18.34v.44h18.34Z"/>
          <path class="cls-3" d="M34.37,36.19v-.44h-18.34v.44h18.34Z"/>
          <path class="cls-3" d="M34.37,37.99v-.44h-18.34v.44h18.34Z"/>
          <path class="cls-3" d="M34.37,39.79v-.44h-18.34v.44h18.34Z"/>
          <path class="cls-3" d="M34.39,41.59v-.44h-18.34v.44h18.34Z"/>
          <path class="cls-3" d="M34.39,43.39v-.44h-18.34v.44h18.34Z"/>
          <path class="cls-3" d="M34.39,45.19v-.44h-18.34v.44h18.34Z"/>
          <path class="cls-3" d="M34.37,46.99v-.44h-18.34v.44h18.34Z"/>
          <path class="cls-3" d="M34.37,48.65v-.44h-18.34v.44h18.34Z"/>
          <path class="cls-2" d="M35.75,49.95v-.92H14.67v.92h21.08Z"/>
          <path class="cls-2" d="M35.78,49.95v-.88s-.03-.05-.06-.05h-1.29s-.06.02-.06.05v.88s.03.05.06.05h1.29s.06-.02.06-.05Z"/>
          <path class="cls-7" d="M15.09,3.65l-.85.39.06.11c-.67.31-1.66,1.02-1.66,1.02,0,0,.09.13.27.14.16.01,1.58-.44,1.58-.44l.07-.25s.12-.11.25-.12c.16-.03.42.04.42.04l-.15-.89Z"/>
          <path class="cls-2" d="M14.69,3.99s.03.02,0,.04c-.12.07-.36.26-.46.39-.13.18-.24.35-.24.35l-1.35.41s.13-.36.49-.66c.55-.46,1.32-.52,1.55-.54h0Z"/>
          <path class="cls-6" d="M14.49,4.89s-.93.4-1.55.46c-.06,0-.19,0-.27-.08-.04-.04-.04-.07-.01-.09.36-.35,1.35-.43,1.35-.43l.49.13Z"/>
          <path class="cls-8" d="M14,4.77l.4.11c-.22.09-.96.37-1.46.42h-.07c-.07,0-.13-.01-.16-.05-.04-.05-.03-.1,0-.11.28-.3,1.23-.37,1.32-.39h-.01ZM14.02,4.75s-1.03.06-1.35.4c-.03.02-.04.09,0,.15.04.05.12.05.19.05h.09c.63-.06,1.55-.46,1.55-.46l-.49-.13h0Z"/>
          <path class="cls-5" d="M35.44,3.65l.85.39-.06.11c.67.32,1.66,1.04,1.66,1.04,0,0-.09.12-.27.14-.18.01-1.58-.44-1.58-.44l-.07-.25s-.12-.11-.25-.12c-.16-.03-.42.04-.42.04l.15-.89h0Z"/>
          <path class="cls-2" d="M35.84,3.99s-.03.02,0,.04c.12.07.36.26.46.39.13.18.24.35.24.35l1.36.43s-.13-.36-.49-.66c-.55-.46-1.32-.52-1.55-.54h-.01Z"/>
          <path class="cls-4" d="M36.03,4.89s.93.4,1.55.46c.06,0,.19,0,.27-.08.04-.04.04-.07.01-.09-.36-.35-1.35-.43-1.35-.43l-.49.13Z"/>
          <path class="cls-8" d="M36.53,4.77c.09,0,1.03.08,1.32.39,0,.01.04.06,0,.11-.03.03-.09.05-.16.05h-.07c-.51-.05-1.24-.34-1.46-.43l.4-.11h-.01ZM36.53,4.75l-.49.13s.93.4,1.55.46h.09c.06,0,.13,0,.19-.05.06-.05.03-.12,0-.15-.31-.32-1.35-.4-1.35-.4h0Z"/>
          <path d="M15.53,10.74h-.52V2.86l.48.55c.16.18.24.4.24.62v6.54c0,.09-.09.16-.19.16Z"/>
          <path d="M34.96,10.74h.49V2.86l-.55.62c-.12.13-.18.29-.18.45v6.61c0,.1.1.19.22.19h.01Z"/>
          <path class="cls-3" d="M18.51,4.5h-.31v7.34h.31v-7.34Z"/>
          <path class="cls-3" d="M19.93,4.5h-.31v7.34h.31v-7.34Z"/>
          <path class="cls-3" d="M21.37,4.5h-.31v7.34h.31v-7.34Z"/>
          <path class="cls-3" d="M22.8,4.5h-.31v7.34h.31v-7.34Z"/>
          <path class="cls-3" d="M24.24,4.5h-.31v7.34h.31v-7.34Z"/>
          <path class="cls-3" d="M25.66,4.5h-.31v7.34h.31v-7.34Z"/>
          <path class="cls-3" d="M27.09,4.5h-.31v7.34h.31v-7.34Z"/>
          <path class="cls-3" d="M28.53,4.5h-.31v7.34h.31v-7.34Z"/>
          <path class="cls-3" d="M29.96,4.5h-.31v7.34h.31v-7.34Z"/>
          <path class="cls-3" d="M31.38,4.5h-.31v7.34h.31v-7.34Z"/>
          <path class="cls-3" d="M32.82,4.5h-.31v7.34h.31v-7.34Z"/>
          <g class="cls-10">
            <rect class="cls-1" x="34.24" y="1.41" width="1.49" height="10"/>
          </g>
          <g class="cls-10">
            <rect class="cls-1" x="14.81" y="1.41" width="1.49" height="10"/>
          </g>
          <g class="cls-11">
            <rect class="cls-1" x="14.81" y="1.41" width="1.49" height="10"/>
          </g>
          <g class="cls-11">
            <rect class="cls-1" x="34.24" y="1.41" width="1.49" height="10"/>
          </g>
          <path class="cls-3" d="M34.39,23.6v-.44h-18.34v.44h18.34Z"/>
          <path d="M33.57.83c-1.99-.4-8.33-.36-8.33-.36,0,0-6.34-.04-8.33.36-.27.05-.67.16-.97.28-.1.04-.16.15-.12.25l.63,1.3c.04.08.15.11.24.09.28-.09.57-.15,1.05-.25,1.79-.35,7.5-.35,7.5-.35,0,0,5.71,0,7.5.35.42.09.76.16,1.05.25.1.02.21-.02.24-.1l.45-1.35c.03-.09-.02-.17-.12-.22-.22-.1-.54-.19-.79-.24Z"/>
        </g>
      </g>
    </g>
  </g>
</svg>