<?xml version="1.0" encoding="UTF-8"?>
<svg id="Layer_1" xmlns="http://www.w3.org/2000/svg" version="1.1" viewBox="0 0 350 65.2">
  <!-- Generator: Adobe Illustrator 29.3.1, SVG Export Plug-In . SVG Version: 2.1.0 Build 151)  -->
  <defs>
    <style>
      .st0 {
        fill: #fff;
      }

      .st1 {
        fill: #d9e821;
      }
    </style>
  </defs>
  <g>
    <g>
      <path class="st0" d="M93.8,54.8h-5.4v-27.7h-9.4v-4.6h24.3v4.6h-9.5v27.7Z"/>
      <path class="st0" d="M105.8,54.8v-25h5.2v3.9h.3c.2-.6.5-1.2,1-1.8s1.2-1.2,2.1-1.7,2-.7,3.4-.7.7,0,1,0,.6,0,.8.1v4.6c-.2,0-.6-.1-1-.1s-.8,0-1.3,0c-1.4,0-2.6.3-3.5.8s-1.6,1.2-2.1,2.1-.7,1.9-.7,3v14.9h-5.3Z"/>
      <path class="st0" d="M130.6,55.1c-2.4,0-4.4-.7-5.9-2.1s-2.3-3.2-2.3-5.6.8-4,2.3-5.4,3.7-2,6.6-2h6.3v-2.3c0-1.4-.4-2.5-1.3-3.2s-2-1-3.4-1-1.7.1-2.3.4-1.1.6-1.4,1-.6.9-.7,1.5h-5c0-1,.3-2,.8-2.8s1-1.6,1.8-2.2,1.8-1.1,3-1.4,2.5-.5,4.1-.5,3.4.3,4.9.8,2.7,1.4,3.5,2.7,1.3,2.9,1.3,5v16.9h-5v-3.2h-.2c-.4.6-.9,1.2-1.5,1.8s-1.4,1-2.3,1.3-2,.5-3.2.5ZM132.2,51.1c1,0,1.9-.2,2.7-.6s1.4-1,1.9-1.7.7-1.5.7-2.4v-2.7h-5.5c-1.5,0-2.6.3-3.3,1s-1.1,1.5-1.1,2.6.5,2.3,1.4,2.9,2,.9,3.1.9Z"/>
      <path class="st0" d="M148.1,44v-3.6c0-2.2.4-4.2,1.3-5.8s2.1-2.9,3.7-3.8,3.5-1.4,5.7-1.4,3.9.4,5.4,1.2,2.6,1.8,3.3,3,1.2,2.6,1.2,4h-5c0-.5-.3-1.1-.6-1.7s-.8-1.1-1.5-1.5-1.6-.6-2.8-.6c-1.8,0-3.2.6-4.2,1.8s-1.4,2.9-1.4,4.9v3.5c0,2.1.5,3.8,1.5,5s2.4,1.8,4.2,1.8,2-.2,2.7-.5,1.2-.7,1.6-1.3.6-1.1.7-1.8h5c0,1.4-.4,2.7-1.2,3.9s-1.9,2.2-3.3,2.9-3.3,1.1-5.6,1.1-4.1-.5-5.7-1.4-2.8-2.2-3.7-3.9-1.3-3.7-1.3-6Z"/>
      <path class="st0" d="M179.4,45.8v8.9h-5.2V20.8h5.2v19.8h.2l9.2-10.8h6l-9.5,10.8,10.1,14.2h-6.2l-7.8-11.1-2,2.2Z"/>
      <path class="st0" d="M212.9,22.5c2.3,0,4.2.4,5.8,1.2s2.9,2,3.7,3.5,1.3,3.2,1.3,5.2-.3,2.9-.8,4.1-1.3,2.2-2.2,3.1-1.9,1.5-3,1.9l6.5,13.3h-6l-5.8-12.4h-6.7v12.4h-5.3V22.5h12.3ZM205.9,38.1h6.1c2,0,3.5-.5,4.6-1.4s1.6-2.3,1.6-4.1-.5-3.3-1.6-4.2-2.6-1.5-4.5-1.5h-6.3v11.2Z"/>
      <path class="st0" d="M240.3,29.3c2.2,0,4.1.4,5.8,1.3s3,2.2,3.9,3.9,1.4,3.7,1.4,6v3.2c0,2.4-.5,4.5-1.4,6.2-.9,1.7-2.2,3-3.9,3.9s-3.6,1.3-5.8,1.3-4.1-.4-5.8-1.3-3-2.2-3.9-3.9-1.4-3.7-1.4-6.1v-3.2c0-2.3.5-4.3,1.4-6s2.3-3,3.9-3.9,3.6-1.4,5.8-1.4ZM240.3,33.6c-1.3,0-2.3.3-3.2,1s-1.5,1.5-2,2.6-.7,2.3-.7,3.7v2.8c0,1.4.2,2.7.7,3.7s1.1,2,2,2.6,2,.9,3.3.9,2.4-.3,3.2-.9,1.5-1.5,1.9-2.6.7-2.3.7-3.7v-2.8c0-1.4-.2-2.7-.7-3.7s-1.1-2-2-2.6-1.9-1-3.2-1Z"/>
      <path class="st0" d="M278,29.8v25h-5.2v-4.2h-.3c-.2.7-.6,1.4-1.2,2.1s-1.4,1.3-2.4,1.8-2.2.7-3.7.7-3.1-.3-4.4-.8-2.3-1.4-3-2.6-1.1-2.8-1.1-4.7v-17.1h5.2v15.8c0,1.3.2,2.4.7,3.1s1.1,1.3,1.8,1.6,1.6.5,2.4.5,2.1-.2,3-.7,1.6-1.2,2.1-2,.8-1.8.8-2.8v-15.4h5.2Z"/>
      <path class="st0" d="M286.3,29.9v-6.2h5.1v6.2h5.6v4.1h-5.6v13.3c0,1.4.3,2.3.9,2.8s1.6.7,3,.7.7,0,1.1,0,.7,0,.9,0v4c-.2,0-.7,0-1.4.1s-1.4,0-2,0c-2,0-3.6-.3-4.7-.8s-1.9-1.3-2.4-2.4-.7-2.4-.7-4.1v-13.7h-3.8v-4.1h3.9Z"/>
      <path class="st0" d="M312.2,55.2c-2.3,0-4.2-.4-5.9-1.3s-2.9-2.2-3.8-3.9c-.9-1.7-1.3-3.7-1.3-6v-3.4c0-2.4.5-4.4,1.4-6.1s2.2-3,3.8-3.8,3.4-1.3,5.5-1.3,3.9.5,5.5,1.4,2.9,2.2,3.8,3.9,1.4,3.7,1.4,6v2.9h-16.2v1.2c0,1.8.5,3.3,1.5,4.5s2.4,1.8,4.3,1.8,1.7-.1,2.4-.4,1.3-.6,1.7-1,.7-.9.8-1.4h5.1c0,.7-.3,1.5-.8,2.3s-1.1,1.6-1.9,2.3-1.8,1.3-3.1,1.8-2.7.7-4.4.7ZM306.4,40.1h11.1v-.3c0-1.3-.2-2.4-.7-3.3s-1.1-1.7-1.9-2.2-1.8-.8-2.9-.8-2.1.3-2.9.8-1.5,1.2-1.9,2.2-.7,2-.7,3.3v.3Z"/>
    </g>
    <g>
      <path class="st1" d="M329.3,22.6c.7,0,1.3.1,1.8.4s.8.7,1.1,1.1.4,1,.4,1.6-.1,1.1-.4,1.6-.6.8-1.1,1.1-1.1.4-1.8.4h-1.6v2.8h-2.2v-9.1h3.8ZM330.3,25.8c0-.5-.1-.8-.4-1.1s-.6-.4-1.1-.4h-1.2v2.9h1.2c.3,0,.6,0,.8-.2s.4-.3.5-.5.2-.5.2-.8Z"/>
      <path class="st1" d="M337.5,22.6c.7,0,1.3.1,1.8.4s.9.6,1.1,1,.4,1,.4,1.6,0,.9-.3,1.2-.4.6-.6.9-.5.4-.7.5l1.8,3.6h-2.4l-1.5-3.3h-1.3v3.3h-2.2v-9.1h3.8ZM335.8,26.9h1.3c.4,0,.8-.1,1-.3s.4-.5.4-1-.1-.8-.4-1-.6-.3-1-.3h-1.4v2.7Z"/>
      <path class="st1" d="M350,27.7c0,.8-.2,1.6-.5,2.2s-.8,1.1-1.4,1.5-1.3.5-2.2.5-1.6-.2-2.2-.5-1.1-.8-1.4-1.5-.5-1.4-.5-2.2v-1.1c0-.9.2-1.6.5-2.2s.8-1.1,1.4-1.5,1.3-.5,2.2-.5,1.6.2,2.2.5,1.1.8,1.4,1.5.5,1.4.5,2.2v1.1ZM347.8,26.6c0-.5,0-1-.2-1.3s-.4-.6-.6-.8-.6-.3-.9-.3-.7,0-1,.3-.5.4-.6.8-.2.8-.2,1.3v1.1c0,.5,0,1,.2,1.3s.4.6.6.8.6.3,1,.3.7,0,.9-.3.5-.4.6-.8.2-.8.2-1.3v-1.1Z"/>
    </g>
  </g>
  <g>
    <path class="st1" d="M64.3,0L0,16v4.3c24.8,0,44.9,20.1,44.9,44.9h4.3L65.4,1.2c.2-.7-.5-1.3-1.1-1.2Z"/>
    <path class="st1" d="M0,39.6v4.2c11.8,0,21.4,9.6,21.4,21.4h4.2c0-14.1-11.5-25.6-25.6-25.6Z"/>
    <path class="st1" d="M0,27.8v4.2c18.3,0,33.1,14.9,33.1,33.1h4.2C37.4,44.6,20.6,27.8,0,27.8Z"/>
  </g>
</svg>